<svg width="444" height="423" viewBox="0 0 444 423" fill="none" xmlns="http://www.w3.org/2000/svg">
<path d="M95.1311 145.584V145.593L87.9403 151.421L38.4914 162.074C36.9696 162.67 35.5839 163.552 34.4134 164.668C33.243 165.784 32.3107 167.113 31.6698 168.579C30.3754 171.539 30.3464 174.876 31.5893 177.856C32.2047 179.332 33.1138 180.676 34.2648 181.811C35.4157 182.946 36.7859 183.85 38.2971 184.472C41.3492 185.727 44.7905 185.755 47.8639 184.55L79.3609 179.407C81.1056 179.126 82.8284 178.73 84.517 178.22C85.1809 178.028 85.8365 177.81 86.4832 177.585C89.2825 165.755 93.2139 154.205 98.2264 143.084L95.1311 145.584Z" fill="#2F2E41"/>
<path d="M79.5471 410.226L90.1181 410.226L95.1466 370.685L79.5454 370.686L79.5471 410.226Z" fill="#FFB8B8"/>
<path d="M110.505 421.416L77.2822 421.418L77.2816 408.97L97.6681 408.969C101.072 408.969 104.337 410.28 106.745 412.614C109.152 414.949 110.504 418.115 110.505 421.416Z" fill="#2F2E41"/>
<path d="M26.9512 410.226L37.5222 410.226L42.5507 370.685L26.9495 370.686L26.9512 410.226Z" fill="#FFB8B8"/>
<path d="M57.9087 421.416L24.6864 421.418L24.6858 408.97L45.0723 408.969C48.4765 408.969 51.7414 410.28 54.1487 412.614C56.556 414.949 57.9085 418.115 57.9087 421.416Z" fill="#2F2E41"/>
<path d="M82.4365 249.07L91.7286 320.467C93.0061 330.282 93.8999 340.134 94.41 350.022L96.9134 398.577C96.9368 399.03 96.865 399.482 96.7024 399.907C96.5398 400.332 96.2898 400.721 95.9677 401.049C95.6455 401.378 95.2579 401.639 94.8283 401.818C94.3988 401.997 93.9362 402.089 93.4688 402.089H79.3659C78.5409 402.089 77.7432 401.802 77.1175 401.28C76.4919 400.759 76.0798 400.037 75.956 399.246L63.2726 318.21C63.2114 317.819 63.0096 317.462 62.7029 317.202C62.3961 316.942 62.0043 316.795 61.5969 316.789C61.1895 316.782 60.7928 316.915 60.4771 317.165C60.1615 317.415 59.9472 317.765 59.8725 318.154L44.5924 397.52C44.4413 398.234 44.0541 398.88 43.4898 399.361C42.9255 399.841 42.2148 400.13 41.4658 400.183L28.4858 400.982C28.0039 401.016 27.5199 400.952 27.0653 400.793C26.6107 400.634 26.1956 400.384 25.8468 400.06C25.4981 399.736 25.2235 399.344 25.0409 398.91C24.8583 398.476 24.7717 398.01 24.7868 397.541L28.9784 267.465L82.4365 249.07Z" fill="#2F2E41"/>
<path d="M41.2668 147.375C52.9626 147.375 62.444 138.18 62.444 126.837C62.444 115.495 52.9626 106.3 41.2668 106.3C29.5709 106.3 20.0895 115.495 20.0895 126.837C20.0895 138.18 29.5709 147.375 41.2668 147.375Z" fill="#FFB8B8"/>
<path d="M24.6672 269.138C29.8406 280.844 52.2585 289.206 57.4319 272.482C61.4327 259.555 77.2804 254.12 84.2729 252.322C85.1521 252.095 85.9038 251.541 86.3653 250.781C86.8268 250.02 86.9611 249.114 86.7392 248.259L67.1922 173.798C66.0537 169.46 63.7862 165.479 60.6068 162.234C57.4274 158.99 53.4425 156.591 49.0336 155.268C33.4966 150.602 17.1143 160.21 14.4842 175.771C13.7659 180.134 13.3082 184.534 13.1134 188.949C11.4921 221.802 21.2612 261.428 24.6672 269.138Z" fill="#3F3D56"/>
<path d="M25.1929 143.635C25.6489 143.898 26.1611 144.054 26.6898 144.094C27.2184 144.133 27.7494 144.054 28.2414 143.863C28.7335 143.671 29.1735 143.373 29.5275 142.99C29.8814 142.607 30.1397 142.15 30.2824 141.655L30.2943 141.608C30.6786 140.05 30.3594 138.422 30.2491 136.823C30.1388 135.224 30.3002 133.467 31.4233 132.291C33.5168 130.1 37.2412 131.261 40.2684 130.707C42.0415 130.323 43.6097 129.326 44.6793 127.902C45.749 126.478 46.2469 124.725 46.0799 122.97C46.0368 122.638 45.9691 122.305 45.8933 121.973C45.704 121.13 45.7186 120.256 45.9361 119.42C46.1535 118.584 46.5678 117.808 47.1465 117.153C47.7252 116.499 48.4525 115.983 49.2713 115.647C50.0902 115.31 50.9782 115.163 51.8658 115.215C54.925 115.385 58.2273 116.284 60.7584 114.086C61.6864 113.22 62.3306 112.107 62.6107 110.887C62.8907 109.668 62.7943 108.395 62.3333 107.229C60.888 103.183 56.8033 101.065 52.761 99.9007C47.7616 98.4999 42.5032 98.197 37.3679 99.0142C32.2327 99.8313 27.3498 101.748 23.0742 104.625C20.521 106.37 18.1365 108.563 17.0483 111.402C15.9601 114.242 16.4851 117.825 18.939 119.699C17.0368 121.652 15.6974 124.056 15.0548 126.669C14.4123 129.282 14.4892 132.013 15.2778 134.588C16.4898 138.376 22.2743 142.007 25.1929 143.635Z" fill="#2F2E41"/>
<path d="M355.745 175.339L348.89 175.297L345.226 175.281L324.231 139.685C324.407 139.312 324.559 138.93 324.687 138.539C327.024 131.549 320.859 126.741 314.987 126.841C314.319 126.84 313.654 126.916 313.004 127.067C324.571 147.365 332.327 169.493 335.914 192.422C336.51 192.586 337.118 192.703 337.733 192.773C340.936 193.053 344.162 192.946 347.338 192.455C351.615 191.929 355.659 191.184 357.815 191.343L355.745 175.339Z" fill="#A0616A"/>
<path d="M331.481 410.39H320.911L315.881 370.849L331.483 370.85L331.481 410.39Z" fill="#A0616A"/>
<path d="M313.36 409.133H333.746V421.581H300.524C300.524 419.946 300.856 418.327 301.501 416.817C302.146 415.307 303.091 413.935 304.283 412.779C305.475 411.623 306.89 410.706 308.448 410.08C310.005 409.455 311.674 409.133 313.36 409.133Z" fill="#2F2E41"/>
<path d="M406.494 410.39H395.924L390.895 370.849L406.497 370.85L406.494 410.39Z" fill="#A0616A"/>
<path d="M388.373 409.133H408.76V421.581H375.537C375.537 419.946 375.87 418.327 376.515 416.817C377.16 415.307 378.105 413.935 379.297 412.779C380.489 411.623 381.904 410.706 383.461 410.08C385.019 409.455 386.688 409.133 388.373 409.133Z" fill="#2F2E41"/>
<path d="M331.659 385.9C331.545 385.9 331.429 385.896 331.314 385.887L316.352 384.725C315.759 384.679 315.182 384.515 314.657 384.242C314.132 383.969 313.672 383.593 313.304 383.139C312.937 382.685 312.67 382.162 312.521 381.603C312.373 381.043 312.345 380.461 312.44 379.891L335.124 243.829L336.643 224.638C336.71 223.741 337.076 222.889 337.685 222.21C338.293 221.532 339.113 221.063 340.02 220.874L362.835 216.035C363.674 215.853 364.55 215.92 365.349 216.227C366.148 216.534 366.833 217.068 367.315 217.758L372.878 225.643C375.063 228.709 377.437 231.643 379.987 234.43C383.934 238.79 390.646 248.47 391.248 264.311C391.409 269.515 391.967 274.701 392.915 279.825L411.284 375.785C411.377 376.347 411.35 376.922 411.205 377.475C411.061 378.027 410.801 378.545 410.443 378.996C410.084 379.448 409.634 379.823 409.121 380.1C408.607 380.377 408.041 380.548 407.456 380.605L393.274 381.647C392.259 381.744 391.242 381.488 390.404 380.924C389.567 380.36 388.963 379.526 388.702 378.57L363.545 287.845C363.496 287.667 363.387 287.51 363.237 287.398C363.086 287.286 362.901 287.226 362.711 287.226C362.521 287.226 362.337 287.287 362.186 287.4C362.036 287.512 361.928 287.669 361.879 287.847L335.823 382.795C335.578 383.685 335.038 384.472 334.285 385.033C333.532 385.594 332.609 385.899 331.659 385.9Z" fill="#2F2E41"/>
<path d="M371.445 154.373C383.141 154.373 392.622 145.178 392.622 133.835C392.622 122.493 383.141 113.298 371.445 113.298C359.749 113.298 350.268 122.493 350.268 133.835C350.268 145.178 359.749 154.373 371.445 154.373Z" fill="#A0616A"/>
<path d="M335.551 227.726L335.113 198.397C333.5 179.64 342.066 169.791 349.536 164.837C351.463 163.576 353.633 162.707 355.916 162.284C358.199 161.86 360.547 161.89 362.817 162.372L379.484 165.866C381.804 166.356 383.999 167.298 385.933 168.634C387.868 169.971 389.503 171.673 390.74 173.64C391.923 175.495 392.7 177.567 393.022 179.726C393.344 181.884 393.205 184.084 392.613 186.189C391.455 190.128 388.887 193.538 385.371 195.806C371.05 205.61 370.041 222.078 370.032 222.244L370.015 222.584L335.551 227.726Z" fill="#3F3D56"/>
<path d="M345.846 203.806L334.029 195.395C333.201 194.804 332.648 193.918 332.492 192.932C332.336 191.946 332.589 190.941 333.197 190.136L348.246 170.249C349.117 169.098 350.213 168.124 351.472 167.384C352.73 166.644 354.127 166.151 355.582 165.934C357.038 165.717 358.522 165.781 359.952 166.121C361.382 166.46 362.729 167.07 363.916 167.915C365.103 168.76 366.107 169.823 366.87 171.044C367.633 172.265 368.141 173.619 368.364 175.031C368.587 176.442 368.521 177.882 368.17 179.268C367.82 180.655 367.191 181.961 366.319 183.112L351.27 202.998C350.661 203.802 349.747 204.338 348.73 204.49C347.714 204.641 346.676 204.395 345.846 203.806Z" fill="#3F3D56"/>
<path d="M366.297 128.703C363.304 129.622 360.195 130.141 357.057 130.246C353.922 130.211 350.663 129.245 348.545 127.002C345.538 123.817 345.577 118.627 347.905 114.944C350.233 111.262 354.411 108.968 358.731 107.917C363.052 106.867 367.564 106.916 372.018 106.975C377.306 103.235 385.018 103.804 390.444 107.352C395.871 110.9 399.187 116.915 400.595 123.113C402.003 129.312 401.696 135.747 401.162 142.073C400.869 145.54 401.169 150.04 404.584 151.103C406.739 151.774 409.068 150.543 410.612 148.939C412.157 147.334 413.236 145.341 414.85 143.802C418.29 140.524 423.81 139.859 428.355 141.425C432.9 142.992 436.525 146.48 439.081 150.447C442.569 155.859 444.272 162.172 443.965 168.547C443.657 174.921 441.354 181.053 437.361 186.126C433.369 191.198 427.877 194.97 421.617 196.938C415.358 198.907 408.629 198.978 402.326 197.143C390.665 193.748 381.862 184.204 376.197 173.752C368.933 160.283 365.928 145.036 367.558 129.918L366.297 128.703Z" fill="#2F2E41"/>
<path d="M378.343 176.016L353.149 172.622C352.227 172.498 351.289 172.7 350.507 173.192C349.725 173.683 349.151 174.43 348.89 175.297C348.837 175.473 348.796 175.651 348.769 175.832L346.752 189.905C346.615 190.892 346.886 191.891 347.504 192.686C348.122 193.481 349.038 194.008 350.054 194.153L375.248 197.548C378.192 197.946 381.179 197.193 383.551 195.456C385.923 193.718 387.487 191.138 387.897 188.283C388.307 185.428 387.532 182.531 385.74 180.231C383.948 177.93 381.288 176.414 378.343 176.016V176.016Z" fill="#3F3D56"/>
<g filter="url(#filter0_d)">
<path d="M335.972 148.425V149.134C335.955 150.914 335.9 152.686 335.808 154.451C334.163 184.644 320.209 213.107 296.805 234.007C273.401 254.906 242.32 266.659 209.932 266.856C177.544 267.054 146.301 255.682 122.606 235.07C98.9115 214.459 84.5593 186.168 82.4909 155.997C82.3183 153.492 82.232 150.968 82.232 148.425C82.1865 123.897 90.3417 99.9673 105.561 79.9722C106.777 78.3609 108.043 76.7793 109.358 75.2272C110.264 74.1476 111.196 73.0923 112.137 72.045C133.554 48.3621 164.062 33.4579 197.116 30.5301C230.17 27.6022 263.137 36.884 288.944 56.384C290.472 57.536 291.974 58.7283 293.441 59.9448C294.614 60.9196 295.768 61.9158 296.902 62.9336C319.225 82.8653 332.966 109.732 335.532 138.467C335.826 141.754 335.972 145.073 335.972 148.425Z" fill="#48BFE3"/>
</g>
<path d="M109.358 75.2267C109.42 75.251 109.479 75.2836 109.531 75.3234C110.213 75.847 109.358 76.854 109.462 77.6838C109.583 78.7472 111.102 78.9808 112.249 79.0855C113.397 79.1983 114.847 80.0603 114.304 81.0109C111.421 81.9374 108.504 81.027 105.561 79.9717C90.3417 99.9667 82.1865 123.896 82.232 148.424C82.232 150.969 82.3183 153.494 82.4909 155.996C82.7322 156.161 82.9965 156.294 83.2763 156.391C84.1394 156.697 85.1405 156.641 85.9346 157.076C86.5646 157.422 86.9875 158.035 87.6175 158.357C89.4214 159.275 91.9243 157.511 93.6072 158.607C94.0423 158.976 94.4543 159.369 94.8414 159.783C96.3949 161.04 98.9496 160.194 100.745 161.136C101.901 161.74 102.497 162.949 103.118 164.044C104.663 166.783 107.166 169.474 110.472 169.692C111.514 169.647 112.559 169.679 113.596 169.788C114.614 170.006 115.615 170.836 115.452 171.794C115.167 173.446 116.038 175.25 115.805 176.902C115.382 179.923 110.8 181.244 110.411 184.265C110.41 184.93 110.37 185.594 110.29 186.255C110.083 187.044 109.445 187.689 109.22 188.478C108.789 189.969 109.936 191.459 111.188 192.458C112.448 193.465 113.95 194.335 114.64 195.737C115.365 197.227 115.011 198.959 115.244 200.579C115.762 204.115 119.033 206.733 122.399 208.425C123.478 208.846 124.436 209.497 125.196 210.326C126.059 211.494 125.972 213.033 126.266 214.427C126.973 217.835 130.046 220.646 130.132 224.118C130.193 226.591 128.725 228.831 127.845 231.159C126.94 233.6 126.67 236.207 127.06 238.764C131.981 242.66 137.212 246.201 142.707 249.358C143.006 248.945 143.225 248.487 143.355 248.004C143.459 247.47 143.387 246.919 143.148 246.424C142.909 245.929 142.514 245.514 142.017 245.233C142.944 244.906 143.788 244.401 144.494 243.751C144.84 243.418 145.069 242.994 145.15 242.536C145.23 242.078 145.158 241.608 144.943 241.189C146.462 241.366 148.265 241.455 149.267 240.367C150.069 239.497 150.017 238.192 149.698 237.088C149.379 235.977 148.844 234.905 148.835 233.753C152.354 233.913 155.882 233.803 159.382 233.423C158.875 231.829 157.724 230.483 156.171 229.669C157.759 229.419 159.2 227.647 159.701 226.221C160.134 224.766 160.158 223.232 159.77 221.766C159.65 221.389 159.632 220.991 159.718 220.606C159.974 220.095 160.422 219.69 160.978 219.47C163.602 218.06 166.226 216.653 168.85 215.249C169.318 215.028 169.743 214.737 170.11 214.387C170.93 213.476 170.809 212.115 170.386 210.995C169.963 209.875 169.29 208.82 169.126 207.644C168.642 204.123 172.682 201.594 174.045 198.274C174.509 196.95 174.759 195.568 174.787 194.174C174.9 192.676 174.908 190.943 173.683 189.985C172.5 189.058 170.662 189.268 169.428 188.406C168.297 187.616 167.909 186.094 166.675 185.457C165.553 184.877 164.154 185.248 162.903 184.974C160.711 184.499 159.33 182.138 157.086 181.921C155.826 181.792 154.393 182.372 153.357 181.687C152.443 181.075 152.408 179.858 152.235 178.827C151.929 177.221 151.103 175.741 149.869 174.586C148.634 173.431 147.051 172.656 145.331 172.366C144.028 172.173 142.612 172.245 141.499 171.577C140.377 170.9 139.868 169.635 138.979 168.693C137.563 167.186 135.319 166.647 133.222 166.187C130.374 165.567 127.529 164.944 124.686 164.318C123.176 163.98 121.225 163.803 120.405 165.043C120.163 165.515 119.994 166.017 119.905 166.534C119.597 167.463 118.982 168.279 118.148 168.863C117.314 169.447 116.304 169.771 115.262 169.788C114.548 168.651 113.392 167.814 112.034 167.452C111.146 167.313 110.27 167.119 109.41 166.872C108.961 166.667 108.561 166.378 108.236 166.024C107.911 165.669 107.666 165.256 107.517 164.811C107.369 164.365 107.319 163.896 107.372 163.432C107.424 162.967 107.577 162.518 107.822 162.111C108.311 161.293 108.5 160.348 108.358 159.421C108.216 158.494 107.752 157.636 107.037 156.979C105.587 155.763 103.489 155.465 101.539 155.586C101.03 154.546 101.884 153.378 102.799 152.621C103.722 151.872 104.836 151.131 105.034 150.003C105.354 148.23 102.928 146.885 101.09 147.409C99.2517 147.94 98.0779 149.608 97.3012 151.251C96.9244 152.221 96.4107 153.14 95.7735 153.982C95.4471 154.399 95.0034 154.724 94.4916 154.92C93.9798 155.116 93.4198 155.177 92.8736 155.094C91.3546 154.732 90.7764 153.048 90.4398 151.63C89.9004 149.735 89.6277 147.782 89.6285 145.822C89.6417 143.842 90.4842 141.945 91.976 140.537C94.4876 138.378 98.3541 138.587 101.746 138.934C101.383 138.481 101.209 137.921 101.256 137.357C101.304 136.794 101.57 136.266 102.005 135.872C102.459 135.496 103.004 135.229 103.594 135.094C104.183 134.96 104.799 134.961 105.388 135.099C106.411 135.297 107.332 135.81 108.003 136.557C108.97 137.653 109.246 139.143 109.971 140.384C110.705 141.633 112.344 142.696 113.682 142.027C114.847 141.447 115.029 139.949 114.744 138.748C114.45 137.556 113.838 136.388 113.941 135.164C114.14 132.835 116.737 131.426 119.025 130.467C121.312 129.508 123.927 128.211 124.289 125.891C124.306 125.44 124.399 124.994 124.565 124.57C124.819 124.191 125.172 123.881 125.593 123.668C132.264 119.551 139.056 115.378 146.686 113.13C147.083 113.01 147.126 113.138 147.532 113.05C148.101 112.744 147.722 111.898 147.178 111.559C146.634 111.221 145.909 110.955 145.771 110.359C145.676 109.924 145.952 109.489 146.021 109.046C146.039 108.778 145.987 108.511 145.868 108.266C145.75 108.022 145.569 107.809 145.341 107.645C145.114 107.481 144.847 107.372 144.564 107.327C144.28 107.282 143.99 107.302 143.717 107.386C143.104 106.629 144.312 105.751 145.296 105.493C148.242 104.74 151.266 104.281 154.315 104.124C154.667 104.069 155.029 104.126 155.342 104.285C155.567 104.487 155.7 104.761 155.714 105.052C155.729 105.342 155.623 105.627 155.42 105.848C155.005 106.278 154.545 106.669 154.048 107.016C153.553 107.465 153.199 108.032 153.026 108.656C152.852 109.279 152.865 109.935 153.064 110.552C154.661 111.31 156.387 112.091 158.156 111.825C159.917 111.559 161.479 109.707 160.65 108.232C159.882 106.855 157.561 106.54 157.164 105.034C156.698 103.27 159.373 101.699 158.769 99.9748C158.51 99.2176 157.699 98.7664 157.077 98.2267C156.346 97.5546 155.849 96.6925 155.65 95.7526C155.451 94.8128 155.561 93.839 155.964 92.958C154.953 93.1228 153.916 93.0596 152.937 92.7737C151.958 92.4878 151.066 91.9875 150.337 91.3146C148.99 90.0498 147.92 88.0438 146.004 88.1083C144.252 88.1566 142.742 90.0659 141.102 89.4859C140.696 89.3409 140.273 89.0509 139.885 89.22C139.757 89.2969 139.649 89.3999 139.57 89.5213C139.491 89.6428 139.442 89.7794 139.428 89.9209C139.013 91.7818 139.73 93.9006 138.642 95.5118C137.46 97.2599 134.724 97.5016 133.291 99.0806C132.514 99.9345 132.212 101.087 131.496 101.989C130.78 102.891 129.269 103.471 128.406 102.682C128.829 101.873 128.945 100.954 128.734 100.076C128.524 99.1976 128.001 98.4121 127.25 97.848C126.455 97.361 125.596 96.9711 124.695 96.688C123.688 96.2914 122.73 95.7944 121.838 95.2057C121.394 94.9529 121.032 94.5905 120.794 94.1584C120.605 93.6151 120.63 93.0269 120.863 92.4989C121.3 91.3354 122.068 90.305 123.086 89.5187C124.103 88.7323 125.331 88.2197 126.637 88.0358C127.776 87.8908 129.105 87.9391 129.865 87.1255C130.262 86.6985 130.469 86.046 131.056 85.8768C131.425 85.8048 131.81 85.8472 132.152 85.9977C133.576 86.4649 134.991 86.9322 136.415 87.3994C136.89 87.6027 137.415 87.6834 137.934 87.633C138.192 87.602 138.427 87.4807 138.592 87.2937C138.757 87.1066 138.84 86.8679 138.823 86.626C138.685 85.9654 137.598 85.6513 137.701 84.9826C137.752 84.7641 137.876 84.5665 138.055 84.4187C139.595 82.8904 141.477 81.6985 143.567 80.9284C145.657 80.1582 147.904 79.8288 150.147 79.9637C150.682 80.7935 149.836 81.7682 149.12 82.4691C148.412 83.178 147.842 84.4348 148.706 84.9745C149.054 85.145 149.443 85.2282 149.836 85.2162C150.886 85.3476 151.906 85.636 152.857 86.0702C154.333 86.6663 155.783 87.3269 157.198 88.0358C156.99 87.1721 157.025 86.2727 157.302 85.4257C157.458 85.0099 157.774 84.6633 158.189 84.4533C158.604 84.2433 159.087 84.185 159.546 84.2898C160.391 84.5959 160.823 85.6432 161.729 85.7399C162.929 85.8688 163.404 84.2092 162.903 83.178C162.402 82.1469 161.401 81.2929 161.324 80.157C161.263 79.3998 161.574 78.4572 160.927 77.998C160.696 77.8557 160.433 77.7673 160.158 77.7402C154.738 76.8138 149.315 75.8846 143.89 74.9528C142.923 74.7837 141.533 74.9126 141.49 75.8229C141.464 76.3385 141.956 76.846 141.741 77.3133C141.508 77.8127 140.748 77.7724 140.196 77.9497C139.781 78.1254 139.438 78.4225 139.22 78.7961C139.002 79.1696 138.92 79.5993 138.987 80.0201C139.135 80.8578 139.483 81.6536 140.006 82.3483C138.944 81.9374 137.348 81.8649 136.286 81.446C136.132 80.2986 135.818 79.1748 135.354 78.1027C135.327 77.9321 135.261 77.769 135.16 77.6249C135.058 77.4807 134.924 77.3591 134.767 77.2685C134.61 77.1778 134.434 77.1205 134.25 77.1004C134.067 77.0803 133.881 77.0979 133.705 77.1521C132.307 77.3535 130.909 77.5469 129.511 77.7483C129.16 77.7638 128.824 77.8854 128.553 78.0947C128.009 78.6344 128.544 79.4964 128.527 80.2376C128.476 80.652 128.289 81.0415 127.99 81.3518C127.692 81.6622 127.297 81.8781 126.861 81.9696C125.983 82.1361 125.076 82.1251 124.203 81.9374C122.244 81.6554 120.293 81.3735 118.334 81.0915C120.063 80.5772 121.601 79.6164 122.77 78.3203C123.547 77.4663 123.961 75.8712 122.839 75.4684C122.508 75.3835 122.162 75.3589 121.821 75.3959C119.163 75.412 117.065 73.3416 114.58 72.4635C113.798 72.1914 112.971 72.0496 112.137 72.0446L109.358 75.2267Z" fill="#E5E5E5"/>
<path d="M335.813 154.451C335.509 154.832 335.109 155.138 334.649 155.342C334.188 155.545 333.681 155.64 333.172 155.619C330.471 155.401 329.332 151.768 326.656 151.357C326.419 151.3 326.169 151.323 325.948 151.422C325.551 151.623 325.482 152.122 325.457 152.541C325.344 154.62 325.249 156.779 326.121 158.696C327.39 161.5 330.678 163.852 329.988 166.825C326.276 165.222 324.343 161.33 323.471 157.601C322.591 153.871 322.453 149.955 320.882 146.427C319.683 147.853 317.18 146.677 316.092 145.178C315.057 143.76 314.418 142.117 313.417 140.675C312.416 139.241 310.879 137.952 309.05 137.871C307.125 137.791 305.451 139.023 303.983 140.191C302.707 141.071 301.635 142.184 300.833 143.462C299.806 145.396 300.074 147.667 300.022 149.818C299.97 152.139 299.444 154.596 297.743 156.304C296.043 158.003 292.91 158.6 291.037 157.061C290.132 156.18 289.487 155.094 289.165 153.911C287.128 148.372 285.434 142.729 284.09 137.009C283.779 138.314 282.545 139.998 281.371 139.233C281.109 139.024 280.897 138.766 280.75 138.475C278.557 135.019 274.51 132.941 270.41 131.692C266.319 130.452 262.012 129.872 257.965 128.502C255.695 127.733 253.526 126.725 251.5 125.497C250.986 126.205 250.685 127.029 250.631 127.882C250.576 128.736 250.769 129.587 251.19 130.347C251.644 131.09 252.35 131.672 253.196 132.003C254.041 132.334 254.981 132.394 255.867 132.176C256.765 131.902 257.524 131.322 258.413 131.032C259.302 130.75 260.502 130.887 260.89 131.692C261.27 132.458 260.701 133.384 260.985 134.19C261.408 135.406 263.385 135.503 264.075 136.615C264.278 137.055 264.325 137.544 264.208 138.011C264.092 138.478 263.818 138.897 263.428 139.209C262.634 139.813 261.757 140.317 260.821 140.707C257.921 142.214 255.859 144.783 253.321 146.781C250.784 148.787 247.202 150.245 244.181 148.965C244.898 145.557 240.557 143.059 239.754 139.668C239.486 138.548 239.624 137.364 239.253 136.276C238.71 134.697 237.208 133.618 235.982 132.425C234.493 130.962 233.333 129.235 232.57 127.346C231.806 125.458 231.455 123.446 231.538 121.429C231.607 120.027 231.883 118.601 231.538 117.232C231.201 115.87 229.984 114.549 228.482 114.605C225.056 114.75 220.732 114.992 218.937 112.261C218.289 111.286 218.013 109.86 218.945 109.111C219.601 108.587 220.568 108.636 221.422 108.716C224.003 108.95 226.575 109.192 229.155 109.425C230.959 109.586 232.91 109.723 234.463 108.845C236.017 107.967 236.69 105.623 235.249 104.584C234.204 103.826 232.323 103.867 232.012 102.666C231.762 101.659 232.953 100.523 232.306 99.6775C231.848 99.0813 230.812 99.2425 230.182 99.6936C229.633 100.226 229.035 100.714 228.396 101.152C227.162 101.748 225.694 101.176 224.365 100.789C223.036 100.403 221.258 100.37 220.62 101.522C219.895 102.803 221.25 104.495 220.542 105.784C219.593 107.484 216.399 106.517 215.07 107.983C213.551 109.659 216.106 112.172 215.597 114.315C214.941 114.619 214.212 114.758 213.482 114.72C212.751 114.682 212.043 114.468 211.428 114.098C210.824 113.714 210.343 113.185 210.036 112.567C209.729 111.948 209.607 111.263 209.685 110.585C209.805 109.619 210.349 108.628 209.987 107.717C209.596 107.014 208.951 106.464 208.166 106.163C205.663 104.866 203.16 103.574 200.657 102.288C199.958 103.496 200.838 104.986 201.943 105.897C203.039 106.799 204.42 107.484 205.145 108.676C205.604 109.502 205.708 110.461 205.435 111.357C205.162 112.252 204.534 113.016 203.678 113.494C203.569 113.563 203.446 113.61 203.316 113.631C203.187 113.652 203.054 113.646 202.927 113.614C202.807 113.549 202.703 113.462 202.62 113.358C202.537 113.254 202.477 113.136 202.443 113.01C201.123 109.844 199.129 106.727 195.953 105.075C192.768 103.415 188.203 103.762 186.114 106.541C185.622 107.202 185.286 107.959 184.854 108.66C182.567 112.374 177.647 114.13 173.056 114.017C172.607 114.044 172.159 113.946 171.77 113.735C171.028 113.26 171.062 112.245 171.174 111.407C171.338 110.223 171.494 109.047 171.658 107.862C171.662 107.139 171.961 106.445 172.495 105.921C173.349 105.293 174.575 105.687 175.662 105.671C176.483 105.637 177.273 105.367 177.923 104.899C178.573 104.43 179.053 103.785 179.296 103.053C179.515 102.314 179.513 101.533 179.291 100.795C179.069 100.056 178.635 99.3887 178.036 98.8638C177.544 98.4288 176.879 97.881 177.138 97.2929C177.243 97.1309 177.385 96.9922 177.554 96.8865C177.722 96.7808 177.913 96.7105 178.114 96.6806C180.055 96.157 182.118 96.0201 184.026 95.3917C185.942 94.7714 187.797 93.4985 188.255 91.6537C188.393 91.0897 188.453 90.405 188.997 90.123C189.271 90.0202 189.564 89.9655 189.86 89.9619C190.898 89.8231 191.842 89.327 192.508 88.5713C193.174 87.8155 193.513 86.8547 193.459 85.8775C194.374 85.2813 195.66 85.7244 196.549 86.3608C197.429 86.9973 198.214 87.8351 199.293 88.109C201.304 88.6246 203.246 86.957 205.335 86.9489C206.215 86.9489 207.121 87.2389 207.941 86.957C208.778 86.675 209.279 85.9016 209.918 85.3297C210.565 84.7496 211.687 84.4032 212.282 85.0235C212.11 83.8554 211.946 82.6953 211.773 81.5352C212.79 81.7743 213.85 81.8073 214.881 81.6323C215.913 81.4572 216.893 81.078 217.754 80.5202C215.579 79.8354 213.413 79.1506 211.238 78.4659C211.01 78.4133 210.799 78.308 210.625 78.1597C210.151 77.6844 210.625 76.9433 211.005 76.4035C211.929 75.1065 212.084 72.9716 210.565 72.3272C209.529 71.8841 208.347 72.4158 207.354 72.9314C205.766 73.7531 204.178 74.5829 202.59 75.4046C202.443 76.2505 203.548 76.7338 204.23 77.2977C204.645 77.6418 204.94 78.0951 205.074 78.5982C205.208 79.1013 205.176 79.6305 204.981 80.1161C204.787 80.6018 204.44 81.0211 203.985 81.319C203.531 81.6169 202.99 81.7794 202.435 81.785C202.748 82.1661 202.965 82.6078 203.071 83.0776C203.177 83.5474 203.169 84.0333 203.048 84.4999C201.986 84.5724 200.916 84.6449 199.846 84.7174C199.668 84.7505 199.485 84.7504 199.307 84.7172C199.129 84.684 198.96 84.6184 198.81 84.524C198.465 84.2421 198.516 83.7426 198.43 83.3237C198.288 82.823 197.988 82.3735 197.57 82.0332C197.151 81.6929 196.633 81.4774 196.083 81.4144C194.983 81.299 193.87 81.3949 192.812 81.6964C192.351 81.8477 191.848 81.8362 191.396 81.6641C191.14 81.5059 190.946 81.274 190.844 81.0035C190.656 80.4511 190.624 79.8628 190.751 79.2955C190.878 78.7281 191.16 78.201 191.569 77.765C192.398 76.9059 193.311 76.121 194.296 75.4207C196.529 73.5957 198.171 71.2237 199.034 68.573C200.795 67.8802 202.616 66.9457 204.385 66.2529C205.808 65.6376 207.298 65.1702 208.83 64.8592C210.272 64.6537 211.733 64.5889 213.189 64.6658C215.174 64.6981 217.167 64.7303 219.152 64.7706C220.924 64.7011 222.695 64.9387 224.374 65.4715C226.005 66.0998 227.447 67.4613 227.559 69.1047C227.593 69.292 227.575 69.4843 227.507 69.6634C227.439 69.8424 227.323 70.0023 227.17 70.1279C226.941 70.2461 226.681 70.302 226.419 70.289C224.771 70.3373 224.072 70.724 222.423 70.7804C223.468 71.8196 224.642 72.9153 226.161 73.1005C228.836 73.4228 230.761 70.8368 231.995 68.5892C232.039 69.1613 232.321 69.6946 232.78 70.0754C233.24 70.4562 233.841 70.6543 234.455 70.6273C235.116 70.5212 235.747 70.291 236.31 69.9506C241.619 67.2426 247.565 65.8086 253.615 65.7776C253.555 65.3501 253.668 64.9172 253.931 64.563C254.194 64.2087 254.589 63.9583 255.039 63.8602C256.273 63.6347 257.378 64.6256 257.973 65.6567C258.56 66.6879 258.931 67.8802 259.881 68.6536C260.821 69.427 262.642 69.3867 263.014 68.275C263.376 67.2035 262.176 66.2851 261.184 65.6487C260.183 65.0203 259.138 63.8522 259.812 62.9176C264.886 61.8623 270.004 60.815 275.209 60.6056C276.093 60.6306 276.974 60.4881 277.798 60.1866C278.206 60.0254 278.545 59.7429 278.764 59.3832C278.982 59.0234 279.067 58.6064 279.006 58.1968C277.871 58.4442 276.682 58.371 275.591 57.9866C274.5 57.6022 273.556 56.9239 272.878 56.0378C278.221 55.6269 283.813 55.2644 288.949 56.3842L293.445 59.9449C292.591 60.7747 291.452 61.5562 292.073 62.3859C292.278 62.5765 292.527 62.7212 292.8 62.8091C293.074 62.897 293.365 62.9259 293.652 62.8935C294.74 62.9096 295.827 62.9338 296.906 62.9338C319.23 82.8655 332.97 109.732 335.537 138.467C333.725 138.403 332.059 140.546 332.292 142.415C332.568 144.582 334.242 146.322 335.442 148.191C335.641 148.495 335.819 148.81 335.977 149.134L335.813 154.451Z" fill="#E5E5E5"/>
<path d="M142.293 202.057C141.25 201.358 140.062 200.89 138.812 200.684C137.563 200.479 136.282 200.542 135.06 200.869C133.838 201.196 132.705 201.779 131.74 202.576C130.775 203.374 130.003 204.367 129.477 205.485L98.8013 202.68L106.322 216.388L134.299 216.95C136.295 217.682 138.499 217.68 140.493 216.942C142.487 216.204 144.132 214.782 145.117 212.947C146.103 211.111 146.36 208.988 145.839 206.981C145.319 204.974 144.057 203.222 142.293 202.057Z" fill="#FFB8B8"/>
<path d="M127.039 217.301C126.674 217.695 126.228 218.009 125.731 218.224C125.233 218.439 124.694 218.55 124.149 218.55L84.1067 217.662C74.4143 217.655 65.0546 214.234 57.7686 208.035L33.7594 187.615C32.3178 186.85 31.0458 185.818 30.0163 184.576C28.9867 183.334 28.2198 181.907 27.7593 180.377C27.2989 178.848 27.1539 177.245 27.3328 175.661C27.5117 174.077 28.011 172.543 28.8019 171.146C29.5929 169.749 30.66 168.517 31.9424 167.521C33.2247 166.525 34.6971 165.783 36.2752 165.339C37.8533 164.895 39.5062 164.757 41.1393 164.933C42.7724 165.11 44.3537 165.596 45.7926 166.366L85.5567 196.795L124.274 204.031C125.048 204.215 125.745 204.626 126.271 205.207C126.797 205.788 127.127 206.512 127.214 207.28L128.009 214.381C128.094 215.142 127.938 215.911 127.561 216.584C127.417 216.842 127.241 217.083 127.039 217.301Z" fill="#2F2E41"/>
<path d="M289.295 210.577C288.432 211.577 287.36 212.388 286.15 212.956C284.94 213.525 283.62 213.838 282.276 213.876C280.932 213.914 279.595 213.675 278.353 213.175C277.111 212.675 275.993 211.926 275.072 210.976C266.72 202.482 280.372 189.727 288.756 198.24C289.052 198.533 289.326 198.846 289.577 199.176L331.851 198.157L336.896 189.208L352.403 195.047C349.426 199.524 346.008 217.096 338.221 216.241C337.201 216.268 290.339 210.65 289.295 210.577Z" fill="#A0616A"/>
<defs>
<filter id="filter0_d" x="52.2318" y="0" width="313.741" height="296.859" filterUnits="userSpaceOnUse" color-interpolation-filters="sRGB">
<feFlood flood-opacity="0" result="BackgroundImageFix"/>
<feColorMatrix in="SourceAlpha" type="matrix" values="0 0 0 0 0 0 0 0 0 0 0 0 0 0 0 0 0 0 127 0"/>
<feOffset/>
<feGaussianBlur stdDeviation="15"/>
<feColorMatrix type="matrix" values="0 0 0 0 0.476863 0 0 0 0 0.282353 0 0 0 0 0.890196 0 0 0 0.5 0"/>
<feBlend mode="normal" in2="BackgroundImageFix" result="effect1_dropShadow"/>
<feBlend mode="normal" in="SourceGraphic" in2="effect1_dropShadow" result="shape"/>
</filter>
</defs>
</svg>
