<svg width="411" height="456" viewBox="0 0 411 456" fill="none" xmlns="http://www.w3.org/2000/svg">
<g opacity="0.1" filter="url(#filter0_f)">
<path d="M88.0606 152.643V152.652L81.4042 158.836L35.6306 170.139C34.2219 170.772 32.9392 171.708 31.8557 172.892C30.7723 174.076 29.9093 175.486 29.316 177.042C28.1178 180.182 28.091 183.723 29.2415 186.886C29.8112 188.452 30.6527 189.878 31.7181 191.082C32.7835 192.286 34.0519 193.246 35.4508 193.905C38.276 195.237 41.4615 195.267 44.3065 193.988L73.4625 188.532C75.0776 188.233 76.6723 187.812 78.2354 187.272C78.85 187.068 79.4568 186.837 80.0554 186.597C82.6467 174.046 86.2859 161.79 90.9258 149.99L88.0606 152.643Z" fill="#2F2E41"/>
<path d="M73.6348 433.446L83.42 433.445L88.0748 391.49L73.6332 391.491L73.6348 433.446Z" fill="#FFB8B8"/>
<path d="M102.291 445.319L71.5383 445.321L71.5378 432.113L90.409 432.112C93.5603 432.112 96.5825 433.503 98.8109 435.98C101.039 438.457 102.291 441.816 102.291 445.319Z" fill="#2F2E41"/>
<path d="M24.9479 433.446L34.7331 433.445L39.3879 391.49L24.9463 391.491L24.9479 433.446Z" fill="#FFB8B8"/>
<path d="M53.6046 445.319L22.8516 445.321L22.851 432.113L41.7222 432.112C44.8735 432.112 47.8957 433.503 50.1241 435.98C52.3525 438.457 53.6045 441.816 53.6046 445.319Z" fill="#2F2E41"/>
<path d="M76.3095 262.448L84.9109 338.205C86.0934 348.62 86.9208 359.073 87.393 369.565L89.7104 421.086C89.732 421.566 89.6655 422.046 89.515 422.497C89.3645 422.948 89.1331 423.36 88.8349 423.709C88.5367 424.057 88.1779 424.335 87.7803 424.524C87.3826 424.714 86.9545 424.812 86.5218 424.812H73.467C72.7033 424.812 71.9649 424.507 71.3858 423.954C70.8067 423.401 70.4252 422.635 70.3106 421.795L58.5698 335.81C58.5132 335.396 58.3264 335.017 58.0425 334.741C57.7586 334.465 57.3959 334.31 57.0187 334.303C56.6416 334.295 56.2744 334.437 55.9822 334.702C55.69 334.967 55.4917 335.339 55.4225 335.751L41.2781 419.964C41.1382 420.721 40.7798 421.407 40.2574 421.917C39.735 422.427 39.0772 422.733 38.3838 422.79L26.3686 423.637C25.9225 423.673 25.4745 423.605 25.0537 423.437C24.6329 423.268 24.2486 423.003 23.9258 422.659C23.6029 422.315 23.3488 421.899 23.1797 421.439C23.0107 420.978 22.9306 420.484 22.9446 419.987L26.8246 281.967L76.3095 262.448Z" fill="#2F2E41"/>
<path d="M38.1994 154.542C49.026 154.542 57.8026 144.786 57.8026 132.751C57.8026 120.716 49.026 110.96 38.1994 110.96C27.3729 110.96 18.5962 120.716 18.5962 132.751C18.5962 144.786 27.3729 154.542 38.1994 154.542Z" fill="#FFB8B8"/>
<path d="M22.8338 283.742C27.6227 296.163 48.3744 305.035 53.1632 287.291C56.8667 273.574 71.5365 267.807 78.0094 265.899C78.8232 265.658 79.519 265.071 79.9462 264.264C80.3734 263.457 80.4977 262.495 80.2923 261.587L62.1981 182.579C61.1443 177.977 59.0453 173.752 56.1022 170.31C53.1591 166.867 49.4704 164.322 45.3891 162.918C31.007 157.967 15.8422 168.162 13.4077 184.673C12.7427 189.303 12.319 193.972 12.1387 198.656C10.6379 233.515 19.681 275.561 22.8338 283.742Z" fill="#3F3D56"/>
<path d="M23.3204 150.575C23.7425 150.853 24.2166 151.02 24.706 151.061C25.1954 151.103 25.6868 151.019 26.1423 150.816C26.5978 150.613 27.0052 150.296 27.3328 149.89C27.6604 149.484 27.8995 148.999 28.0316 148.474L28.0426 148.424C28.3984 146.77 28.1029 145.043 28.0008 143.346C27.8987 141.65 28.0481 139.786 29.0877 138.538C31.0256 136.213 34.4732 137.445 37.2754 136.857C38.9167 136.45 40.3683 135.392 41.3585 133.881C42.3487 132.37 42.8096 130.509 42.6549 128.648C42.615 128.295 42.5524 127.942 42.4823 127.589C42.307 126.695 42.3205 125.768 42.5218 124.881C42.7231 123.994 43.1066 123.17 43.6423 122.476C44.178 121.781 44.8512 121.234 45.6092 120.877C46.3672 120.52 47.1892 120.363 48.0108 120.419C50.8427 120.599 53.8995 121.553 56.2425 119.221C57.1015 118.302 57.6978 117.121 57.9571 115.827C58.2163 114.533 58.127 113.183 57.7004 111.945C56.3625 107.652 52.5813 105.405 48.8395 104.169C44.2117 102.683 39.3441 102.362 34.5905 103.229C29.837 104.096 25.317 106.129 21.3591 109.182C18.9957 111.034 16.7884 113.361 15.7811 116.374C14.7738 119.387 15.2597 123.188 17.5313 125.177C15.7705 127.249 14.5306 129.799 13.9358 132.572C13.341 135.345 13.4122 138.243 14.1422 140.975C15.2641 144.994 20.6187 148.847 23.3204 150.575Z" fill="#2F2E41"/>
<path d="M329.304 184.215L322.959 184.17L319.567 184.153L300.132 146.383C300.295 145.988 300.437 145.582 300.555 145.168C302.718 137.75 297.011 132.649 291.576 132.755C290.958 132.754 290.342 132.835 289.74 132.995C300.447 154.532 307.627 178.012 310.947 202.341C311.499 202.514 312.062 202.639 312.631 202.714C315.596 203.011 318.583 202.897 321.522 202.376C325.481 201.817 329.225 201.028 331.22 201.196L329.304 184.215Z" fill="#A0616A"/>
<path d="M306.844 433.62H297.059L292.404 391.664L306.846 391.665L306.844 433.62Z" fill="#A0616A"/>
<path d="M290.069 432.286H308.941V445.494H278.188C278.187 443.76 278.495 442.042 279.092 440.44C279.689 438.837 280.564 437.381 281.668 436.155C282.771 434.928 284.081 433.955 285.522 433.291C286.964 432.628 288.509 432.286 290.069 432.286Z" fill="#2F2E41"/>
<path d="M376.282 433.62H366.498L361.842 391.664L376.284 391.665L376.282 433.62Z" fill="#A0616A"/>
<path d="M359.508 432.286H378.379V445.494H347.626C347.626 443.76 347.933 442.042 348.53 440.44C349.128 438.837 350.003 437.381 351.106 436.155C352.209 434.928 353.519 433.955 354.961 433.291C356.402 432.628 357.948 432.286 359.508 432.286Z" fill="#2F2E41"/>
<path d="M307.009 407.635C306.903 407.635 306.796 407.63 306.689 407.62L292.84 406.388C292.29 406.339 291.756 406.165 291.27 405.875C290.785 405.585 290.358 405.187 290.018 404.705C289.678 404.223 289.431 403.668 289.293 403.074C289.156 402.481 289.13 401.863 289.218 401.258L310.216 256.887L311.622 236.524C311.684 235.572 312.023 234.669 312.586 233.948C313.15 233.228 313.908 232.731 314.748 232.531L335.868 227.396C336.644 227.203 337.455 227.274 338.195 227.6C338.934 227.926 339.568 228.492 340.015 229.224L345.164 237.591C347.187 240.844 349.384 243.957 351.745 246.915C355.399 251.541 361.611 261.811 362.169 278.62C362.318 284.142 362.834 289.644 363.712 295.082L380.715 396.901C380.801 397.498 380.777 398.109 380.643 398.695C380.509 399.281 380.269 399.83 379.937 400.309C379.605 400.788 379.189 401.186 378.713 401.48C378.238 401.774 377.713 401.956 377.172 402.016L364.044 403.122C363.105 403.225 362.163 402.953 361.388 402.355C360.612 401.756 360.054 400.871 359.812 399.857L336.525 303.591C336.479 303.402 336.379 303.236 336.239 303.117C336.1 302.998 335.929 302.934 335.753 302.934C335.577 302.935 335.406 302.999 335.267 303.119C335.128 303.238 335.028 303.405 334.983 303.594L310.864 404.34C310.637 405.284 310.136 406.119 309.439 406.714C308.742 407.31 307.888 407.634 307.009 407.635Z" fill="#2F2E41"/>
<path d="M343.838 161.968C354.664 161.968 363.441 152.212 363.441 140.177C363.441 128.142 354.664 118.385 343.838 118.385C333.011 118.385 324.234 128.142 324.234 140.177C324.234 152.212 333.011 161.968 343.838 161.968Z" fill="#A0616A"/>
<path d="M310.612 239.8L310.206 208.681C308.713 188.778 316.642 178.328 323.557 173.072C325.34 171.733 327.349 170.812 329.463 170.362C331.576 169.912 333.749 169.944 335.851 170.456L351.279 174.163C353.427 174.684 355.458 175.683 357.249 177.101C359.04 178.518 360.554 180.325 361.699 182.412C362.794 184.38 363.513 186.578 363.811 188.869C364.109 191.16 363.98 193.494 363.432 195.727C362.36 199.907 359.984 203.525 356.728 205.932C343.472 216.335 342.538 233.808 342.53 233.984L342.514 234.345L310.612 239.8Z" fill="#3F3D56"/>
<path d="M320.142 214.42L309.203 205.496C308.436 204.869 307.924 203.929 307.779 202.882C307.635 201.836 307.87 200.769 308.432 199.915L322.363 178.814C323.169 177.592 324.183 176.559 325.349 175.774C326.514 174.988 327.807 174.465 329.154 174.235C330.501 174.005 331.875 174.073 333.199 174.433C334.523 174.794 335.769 175.441 336.868 176.337C337.967 177.233 338.896 178.362 339.602 179.657C340.309 180.953 340.779 182.39 340.985 183.887C341.192 185.385 341.131 186.913 340.806 188.384C340.482 189.855 339.899 191.241 339.093 192.462L325.162 213.563C324.598 214.416 323.752 214.985 322.811 215.145C321.87 215.306 320.91 215.045 320.142 214.42Z" fill="#3F3D56"/>
<path d="M339.073 134.73C336.302 135.705 333.424 136.256 330.519 136.368C327.617 136.331 324.6 135.306 322.64 132.926C319.856 129.546 319.892 124.039 322.047 120.132C324.202 116.224 328.07 113.79 332.069 112.676C336.068 111.561 340.245 111.614 344.368 111.675C349.263 107.708 356.401 108.311 361.425 112.076C366.448 115.841 369.518 122.223 370.821 128.8C372.124 135.377 371.84 142.205 371.346 148.917C371.075 152.596 371.352 157.371 374.513 158.499C376.508 159.21 378.664 157.905 380.094 156.202C381.523 154.5 382.522 152.385 384.016 150.752C387.201 147.273 392.311 146.568 396.518 148.23C400.725 149.892 404.081 153.594 406.447 157.802C409.675 163.545 411.252 170.244 410.967 177.008C410.683 183.771 408.551 190.278 404.855 195.66C401.159 201.042 396.075 205.045 390.281 207.133C384.487 209.222 378.257 209.297 372.424 207.35C361.63 203.747 353.48 193.621 348.236 182.531C341.512 168.24 338.731 152.061 340.24 136.02L339.073 134.73Z" fill="#2F2E41"/>
<path d="M350.223 184.933L326.902 181.331C326.048 181.2 325.179 181.415 324.456 181.936C323.732 182.457 323.201 183.25 322.959 184.17C322.91 184.356 322.872 184.546 322.847 184.738L320.98 199.67C320.853 200.718 321.104 201.778 321.676 202.621C322.248 203.465 323.096 204.024 324.037 204.177L347.358 207.78C350.083 208.202 352.848 207.404 355.044 205.56C357.24 203.716 358.687 200.979 359.067 197.949C359.447 194.919 358.729 191.846 357.07 189.405C355.412 186.964 352.949 185.356 350.223 184.933V184.933Z" fill="#3F3D56"/>
<g filter="url(#filter1_d)">
<path d="M311.001 155.657V156.409C310.986 158.298 310.935 160.179 310.85 162.051C309.327 194.088 296.409 224.29 274.745 246.465C253.081 268.641 224.31 281.111 194.329 281.321C164.348 281.531 135.427 269.464 113.494 247.594C91.5599 225.723 78.2745 195.705 76.3598 163.692C76.2 161.033 76.1202 158.355 76.1202 155.657C76.078 129.631 83.6271 104.24 97.7149 83.0239C98.8413 81.3143 100.013 79.636 101.23 77.9891C102.069 76.8437 102.932 75.7239 103.803 74.6126C123.628 49.4834 151.868 33.6691 182.466 30.5624C213.063 27.4558 243.58 37.3044 267.469 57.9952C268.883 59.2176 270.273 60.4827 271.631 61.7734C272.717 62.8078 273.785 63.8649 274.835 64.9448C295.499 86.0938 308.218 114.601 310.594 145.091C310.866 148.579 311.002 152.101 311.001 155.657Z" fill="#48BFE3"/>
</g>
<path d="M101.23 77.9886C101.288 78.0145 101.342 78.049 101.39 78.0912C102.021 78.6468 101.23 79.7153 101.326 80.5958C101.438 81.7241 102.844 81.972 103.907 82.0831C104.969 82.2028 106.311 83.1174 105.808 84.1261C103.14 85.1091 100.439 84.1432 97.715 83.0234C83.6271 104.239 76.078 129.63 76.1202 155.656C76.1202 158.357 76.2 161.035 76.3598 163.691C76.5832 163.865 76.8278 164.006 77.0869 164.11C77.8858 164.435 78.8125 164.375 79.5475 164.836C80.1307 165.204 80.5222 165.854 81.1054 166.195C82.7752 167.17 85.0921 165.298 86.6499 166.46C87.0526 166.853 87.4341 167.27 87.7924 167.708C89.2304 169.042 91.5952 168.144 93.257 169.145C94.3276 169.786 94.8788 171.068 95.4541 172.23C96.8841 175.137 99.201 177.992 102.261 178.223C103.226 178.175 104.193 178.209 105.153 178.325C106.096 178.556 107.022 179.436 106.871 180.454C106.607 182.206 107.414 184.121 107.198 185.873C106.807 189.078 102.564 190.48 102.205 193.686C102.204 194.391 102.166 195.096 102.093 195.797C101.901 196.635 101.31 197.319 101.102 198.156C100.703 199.738 101.766 201.319 102.924 202.379C104.09 203.448 105.481 204.371 106.12 205.858C106.791 207.44 106.463 209.277 106.679 210.996C107.158 214.748 110.186 217.526 113.302 219.321C114.3 219.768 115.187 220.459 115.89 221.339C116.689 222.578 116.609 224.211 116.881 225.69C117.536 229.305 120.38 232.289 120.46 235.973C120.516 238.597 119.158 240.973 118.343 243.444C117.505 246.034 117.256 248.8 117.616 251.513C122.171 255.647 127.014 259.404 132.101 262.754C132.377 262.316 132.58 261.83 132.7 261.318C132.796 260.751 132.73 260.166 132.509 259.641C132.287 259.116 131.922 258.675 131.461 258.377C132.32 258.03 133.101 257.494 133.754 256.804C134.075 256.451 134.287 256.001 134.362 255.515C134.436 255.029 134.369 254.53 134.17 254.086C135.576 254.274 137.246 254.368 138.172 253.214C138.915 252.291 138.867 250.906 138.572 249.735C138.276 248.555 137.781 247.419 137.773 246.196C141.031 246.366 144.296 246.249 147.536 245.846C147.067 244.155 146.001 242.726 144.564 241.862C146.034 241.597 147.368 239.717 147.831 238.204C148.232 236.66 148.254 235.032 147.895 233.477C147.784 233.077 147.768 232.654 147.847 232.246C148.084 231.704 148.499 231.274 149.014 231.041C151.442 229.545 153.871 228.052 156.3 226.561C156.733 226.328 157.127 226.019 157.466 225.647C158.225 224.681 158.113 223.236 157.722 222.048C157.331 220.86 156.707 219.74 156.556 218.492C156.108 214.757 159.847 212.073 161.109 208.551C161.539 207.145 161.77 205.679 161.796 204.2C161.9 202.61 161.908 200.772 160.774 199.755C159.679 198.772 157.978 198.994 156.835 198.08C155.789 197.242 155.429 195.626 154.287 194.951C153.248 194.336 151.954 194.729 150.795 194.438C148.766 193.934 147.488 191.429 145.411 191.198C144.244 191.062 142.918 191.677 141.959 190.951C141.112 190.301 141.08 189.01 140.921 187.916C140.637 186.212 139.872 184.641 138.73 183.416C137.587 182.19 136.121 181.368 134.529 181.06C133.323 180.855 132.013 180.932 130.982 180.223C129.944 179.505 129.472 178.163 128.649 177.163C127.339 175.564 125.262 174.991 123.32 174.504C120.684 173.846 118.05 173.185 115.419 172.521C114.021 172.162 112.215 171.974 111.456 173.29C111.232 173.791 111.076 174.323 110.993 174.872C110.708 175.858 110.139 176.723 109.367 177.343C108.595 177.963 107.66 178.307 106.695 178.325C106.034 177.118 104.964 176.23 103.707 175.846C102.886 175.699 102.074 175.493 101.278 175.231C100.863 175.013 100.493 174.706 100.191 174.33C99.8903 173.954 99.6639 173.516 99.5263 173.044C99.3887 172.571 99.3428 172.073 99.3912 171.58C99.4397 171.088 99.5816 170.611 99.8082 170.179C100.261 169.311 100.435 168.309 100.304 167.325C100.173 166.341 99.7431 165.431 99.0812 164.734C97.739 163.443 95.7976 163.127 93.992 163.255C93.5207 162.152 94.3116 160.913 95.1585 160.109C96.0133 159.314 97.0439 158.528 97.2277 157.331C97.5233 155.451 95.2783 154.023 93.5766 154.579C91.8749 155.143 90.7884 156.912 90.0693 158.656C89.7206 159.685 89.245 160.66 88.6552 161.554C88.353 161.996 87.9423 162.341 87.4686 162.549C86.9948 162.757 86.4765 162.821 85.9709 162.734C84.5648 162.349 84.0295 160.562 83.7179 159.058C83.2186 157.047 82.9662 154.975 82.9669 152.895C82.9791 150.794 83.7591 148.781 85.14 147.287C87.4648 144.996 91.044 145.219 94.1837 145.586C93.8474 145.106 93.6863 144.512 93.7304 143.914C93.7745 143.316 94.0209 142.755 94.4234 142.338C94.8436 141.939 95.3485 141.655 95.8943 141.512C96.44 141.369 97.0102 141.371 97.5552 141.517C98.5018 141.727 99.3547 142.272 99.976 143.065C100.871 144.227 101.126 145.808 101.798 147.125C102.477 148.45 103.995 149.578 105.233 148.869C106.311 148.253 106.479 146.663 106.216 145.39C105.944 144.125 105.377 142.885 105.473 141.586C105.656 139.115 108.061 137.619 110.178 136.602C112.295 135.585 114.716 134.209 115.052 131.747C115.067 131.268 115.153 130.795 115.307 130.345C115.542 129.944 115.869 129.614 116.258 129.388C122.434 125.02 128.721 120.592 135.784 118.207C136.151 118.079 136.191 118.216 136.567 118.122C137.094 117.797 136.742 116.899 136.239 116.54C135.736 116.181 135.065 115.899 134.937 115.266C134.849 114.805 135.104 114.343 135.168 113.873C135.185 113.589 135.136 113.305 135.027 113.046C134.917 112.787 134.749 112.56 134.539 112.387C134.328 112.213 134.081 112.097 133.819 112.049C133.557 112.001 133.288 112.023 133.035 112.112C132.468 111.309 133.587 110.377 134.497 110.104C137.224 109.304 140.023 108.817 142.846 108.65C143.172 108.593 143.506 108.653 143.797 108.821C144.004 109.036 144.127 109.327 144.141 109.635C144.154 109.944 144.057 110.246 143.869 110.48C143.484 110.936 143.059 111.352 142.598 111.719C142.14 112.195 141.813 112.797 141.652 113.459C141.492 114.121 141.504 114.817 141.688 115.472C143.166 116.275 144.763 117.104 146.401 116.822C148.031 116.54 149.477 114.574 148.71 113.01C147.999 111.548 145.85 111.215 145.482 109.616C145.051 107.744 147.528 106.077 146.968 104.248C146.729 103.445 145.978 102.966 145.403 102.393C144.726 101.68 144.265 100.765 144.081 99.7681C143.898 98.7709 143.999 97.7375 144.372 96.8028C143.437 96.9776 142.476 96.9106 141.57 96.6072C140.664 96.3039 139.838 95.773 139.163 95.059C137.917 93.717 136.926 91.5885 135.152 91.6569C133.531 91.7082 132.132 93.7341 130.615 93.1186C130.239 92.9647 129.848 92.657 129.488 92.8365C129.369 92.9181 129.27 93.0274 129.196 93.1562C129.123 93.2851 129.078 93.43 129.065 93.5802C128.681 95.5548 129.344 97.8029 128.338 99.5125C127.243 101.367 124.711 101.624 123.384 103.299C122.665 104.205 122.386 105.428 121.723 106.385C121.059 107.342 119.661 107.958 118.862 107.12C119.254 106.262 119.361 105.287 119.166 104.355C118.972 103.423 118.487 102.59 117.792 101.991C117.056 101.475 116.261 101.061 115.427 100.761C114.495 100.34 113.609 99.8124 112.783 99.1877C112.371 98.9195 112.037 98.535 111.816 98.0765C111.641 97.5 111.664 96.8759 111.88 96.3156C112.284 95.081 112.996 93.9878 113.937 93.1534C114.879 92.319 116.016 91.7751 117.225 91.58C118.279 91.4261 119.51 91.4774 120.213 90.6141C120.58 90.161 120.772 89.4686 121.315 89.2892C121.657 89.2127 122.014 89.2577 122.33 89.4174C123.648 89.9132 124.958 90.409 126.276 90.9047C126.716 91.1204 127.202 91.206 127.683 91.1526C127.921 91.1197 128.139 90.991 128.291 90.7925C128.444 90.594 128.521 90.3408 128.505 90.0841C128.378 89.3832 127.371 89.0498 127.467 88.3403C127.513 88.1085 127.628 87.8988 127.794 87.742C129.219 86.1203 130.962 84.8557 132.897 84.0385C134.831 83.2213 136.911 82.8718 138.987 83.0149C139.483 83.8954 138.7 84.9297 138.037 85.6733C137.381 86.4256 136.854 87.759 137.653 88.3318C137.975 88.5126 138.336 88.601 138.7 88.5882C139.671 88.7277 140.615 89.0336 141.496 89.4943C142.862 90.1268 144.204 90.8278 145.514 91.58C145.322 90.6635 145.355 89.7092 145.61 88.8105C145.755 88.3693 146.047 88.0015 146.431 87.7787C146.815 87.5559 147.263 87.494 147.688 87.6052C148.47 87.93 148.87 89.0412 149.709 89.1438C150.819 89.2806 151.259 87.5197 150.795 86.4256C150.332 85.3314 149.405 84.4253 149.333 83.2201C149.277 82.4165 149.565 81.4164 148.966 80.9292C148.753 80.7782 148.509 80.6844 148.255 80.6557C143.238 79.6726 138.218 78.6868 133.195 77.6981C132.3 77.5185 131.014 77.6553 130.974 78.6212C130.95 79.1683 131.406 79.7068 131.206 80.2026C130.99 80.7326 130.287 80.6898 129.776 80.8779C129.392 81.0644 129.075 81.3796 128.873 81.776C128.671 82.1724 128.595 82.6283 128.657 83.0747C128.794 83.9636 129.116 84.808 129.6 85.5451C128.617 85.1092 127.139 85.0322 126.157 84.5877C126.014 83.3703 125.724 82.1779 125.294 81.0403C125.269 80.8593 125.208 80.6862 125.114 80.5333C125.02 80.3803 124.896 80.2512 124.751 80.1551C124.605 80.0589 124.442 79.998 124.272 79.9767C124.102 79.9554 123.93 79.9742 123.768 80.0317C122.474 80.2454 121.179 80.4505 119.885 80.6642C119.56 80.6807 119.249 80.8097 118.998 81.0318C118.495 81.6045 118.99 82.5191 118.974 83.3055C118.927 83.7453 118.754 84.1585 118.478 84.4878C118.201 84.8172 117.836 85.0463 117.432 85.1434C116.619 85.32 115.78 85.3083 114.972 85.1092C113.158 84.81 111.353 84.5108 109.539 84.2116C111.14 83.6658 112.564 82.6464 113.645 81.2711C114.365 80.365 114.748 78.6725 113.709 78.2451C113.403 78.155 113.083 78.1289 112.767 78.1682C110.306 78.1853 108.365 75.9885 106.064 75.0567C105.34 74.768 104.575 74.6175 103.803 74.6122L101.23 77.9886Z" fill="#E5E5E5"/>
<path d="M310.854 162.051C310.572 162.455 310.202 162.78 309.776 162.996C309.35 163.212 308.881 163.313 308.409 163.29C305.909 163.059 304.854 159.204 302.378 158.768C302.159 158.708 301.927 158.732 301.723 158.837C301.355 159.05 301.291 159.58 301.267 160.025C301.163 162.23 301.075 164.521 301.882 166.555C303.057 169.53 306.101 172.026 305.461 175.18C302.026 173.479 300.237 169.351 299.43 165.393C298.615 161.435 298.487 157.281 297.033 153.537C295.922 155.05 293.605 153.802 292.599 152.212C291.64 150.707 291.049 148.964 290.122 147.434C289.195 145.912 287.773 144.544 286.08 144.459C284.298 144.373 282.748 145.681 281.39 146.921C280.208 147.854 279.216 149.035 278.474 150.391C277.523 152.443 277.771 154.853 277.723 157.136C277.675 159.597 277.188 162.205 275.614 164.017C274.04 165.82 271.14 166.453 269.406 164.82C268.568 163.885 267.971 162.734 267.673 161.478C265.788 155.601 264.219 149.613 262.975 143.544C262.687 144.929 261.545 146.716 260.458 145.903C260.215 145.682 260.019 145.408 259.883 145.1C257.854 141.433 254.107 139.227 250.312 137.903C246.525 136.586 242.538 135.971 238.792 134.517C236.69 133.701 234.683 132.631 232.808 131.329C232.331 132.08 232.053 132.954 232.003 133.86C231.952 134.765 232.131 135.669 232.52 136.475C232.941 137.264 233.594 137.881 234.377 138.232C235.16 138.583 236.029 138.648 236.85 138.415C237.681 138.125 238.384 137.509 239.207 137.202C240.03 136.902 241.14 137.048 241.5 137.903C241.851 138.715 241.324 139.698 241.588 140.552C241.979 141.843 243.809 141.946 244.448 143.125C244.636 143.592 244.679 144.112 244.571 144.607C244.463 145.102 244.21 145.548 243.849 145.878C243.113 146.519 242.302 147.054 241.436 147.468C238.752 149.066 236.842 151.793 234.493 153.913C232.145 156.041 228.829 157.589 226.033 156.23C226.696 152.614 222.677 149.964 221.934 146.365C221.687 145.177 221.814 143.92 221.471 142.766C220.968 141.091 219.577 139.945 218.443 138.68C217.065 137.127 215.991 135.295 215.284 133.291C214.578 131.287 214.253 129.152 214.329 127.012C214.393 125.525 214.648 124.012 214.329 122.559C214.017 121.114 212.891 119.712 211.5 119.772C208.329 119.926 204.326 120.182 202.664 117.285C202.065 116.25 201.81 114.737 202.672 113.942C203.28 113.387 204.174 113.438 204.965 113.524C207.354 113.771 209.735 114.028 212.124 114.276C213.793 114.447 215.599 114.592 217.037 113.66C218.475 112.729 219.098 110.241 217.764 109.138C216.797 108.335 215.056 108.378 214.768 107.104C214.536 106.035 215.639 104.83 215.04 103.933C214.616 103.3 213.657 103.471 213.074 103.95C212.565 104.515 212.012 105.033 211.421 105.497C210.278 106.129 208.92 105.523 207.69 105.112C206.459 104.702 204.813 104.668 204.222 105.89C203.551 107.249 204.805 109.044 204.15 110.412C203.272 112.216 200.316 111.19 199.085 112.746C197.679 114.524 200.044 117.191 199.572 119.464C198.966 119.786 198.291 119.934 197.615 119.894C196.938 119.854 196.283 119.626 195.714 119.234C195.155 118.827 194.709 118.265 194.425 117.609C194.141 116.953 194.029 116.226 194.1 115.507C194.212 114.481 194.715 113.429 194.38 112.464C194.018 111.718 193.42 111.133 192.694 110.814C190.377 109.438 188.06 108.067 185.743 106.702C185.096 107.984 185.911 109.566 186.934 110.532C187.948 111.489 189.226 112.216 189.898 113.481C190.322 114.358 190.418 115.375 190.166 116.325C189.914 117.275 189.332 118.086 188.539 118.592C188.439 118.666 188.325 118.716 188.205 118.738C188.085 118.76 187.962 118.754 187.844 118.721C187.734 118.651 187.637 118.559 187.56 118.449C187.483 118.338 187.428 118.213 187.397 118.08C186.175 114.72 184.329 111.412 181.389 109.66C178.441 107.899 174.215 108.266 172.281 111.216C171.826 111.916 171.514 112.72 171.115 113.464C168.998 117.404 164.444 119.268 160.194 119.148C159.778 119.177 159.364 119.073 159.003 118.849C158.316 118.345 158.348 117.268 158.452 116.379C158.604 115.122 158.748 113.874 158.899 112.617C158.903 111.85 159.18 111.113 159.674 110.557C160.465 109.891 161.6 110.309 162.606 110.292C163.366 110.256 164.097 109.97 164.699 109.473C165.301 108.975 165.745 108.291 165.97 107.514C166.172 106.73 166.171 105.901 165.965 105.118C165.76 104.335 165.358 103.626 164.803 103.069C164.348 102.608 163.733 102.026 163.973 101.402C164.07 101.231 164.201 101.083 164.357 100.971C164.513 100.859 164.69 100.784 164.875 100.753C166.673 100.197 168.582 100.052 170.348 99.3851C172.122 98.7269 173.839 97.3763 174.263 95.4188C174.39 94.8204 174.446 94.0938 174.95 93.7946C175.204 93.6855 175.475 93.6276 175.749 93.6237C176.709 93.4764 177.584 92.9501 178.2 92.1482C178.816 91.3463 179.13 90.3267 179.08 89.2898C179.927 88.6573 181.117 89.1274 181.94 89.8027C182.755 90.478 183.482 91.367 184.481 91.6576C186.342 92.2047 188.14 90.4353 190.073 90.4267C190.888 90.4267 191.727 90.7344 192.486 90.4353C193.261 90.1361 193.724 89.3155 194.316 88.7086C194.915 88.0931 195.953 87.7255 196.505 88.3837C196.345 87.1443 196.193 85.9133 196.033 84.6824C196.974 84.936 197.956 84.9711 198.91 84.7854C199.865 84.5996 200.772 84.1972 201.57 83.6054C199.557 82.8788 197.551 82.1522 195.538 81.4256C195.326 81.3698 195.131 81.2581 194.971 81.1008C194.531 80.5965 194.971 79.81 195.322 79.2373C196.177 77.8611 196.321 75.5959 194.915 74.912C193.956 74.4419 192.862 75.0061 191.943 75.5531C190.473 76.425 189.003 77.3055 187.533 78.1774C187.397 79.0749 188.42 79.5878 189.051 80.1862C189.435 80.5512 189.708 81.0322 189.832 81.566C189.956 82.0998 189.926 82.6613 189.746 83.1767C189.566 83.692 189.245 84.1369 188.824 84.453C188.403 84.7691 187.903 84.9415 187.389 84.9474C187.678 85.3518 187.88 85.8205 187.978 86.3189C188.076 86.8174 188.069 87.3331 187.956 87.8281C186.974 87.905 185.983 87.982 184.992 88.0589C184.828 88.094 184.658 88.0939 184.494 88.0587C184.329 88.0235 184.173 87.9539 184.033 87.8537C183.714 87.5546 183.762 87.0246 183.682 86.5801C183.55 86.0488 183.273 85.5719 182.886 85.2108C182.498 84.8497 182.019 84.621 181.509 84.5542C180.491 84.4317 179.461 84.5335 178.481 84.8534C178.055 85.0139 177.589 85.0018 177.171 84.8192C176.934 84.6513 176.754 84.4052 176.659 84.1183C176.486 83.5321 176.456 82.9079 176.573 82.3059C176.691 81.7039 176.952 81.1446 177.331 80.682C178.098 79.7704 178.943 78.9376 179.855 78.1945C181.922 76.2581 183.442 73.7412 184.241 70.9286C185.871 70.1935 187.557 69.2019 189.195 68.4668C190.511 67.8139 191.891 67.318 193.309 66.988C194.643 66.7699 195.996 66.7012 197.344 66.7828C199.181 66.817 201.027 66.8512 202.864 66.894C204.504 66.8202 206.143 67.0724 207.698 67.6376C209.207 68.3044 210.542 69.749 210.646 71.4928C210.677 71.6915 210.66 71.8956 210.597 72.0856C210.535 72.2755 210.427 72.4452 210.286 72.5784C210.074 72.7039 209.833 72.7631 209.591 72.7494C208.065 72.8007 207.418 73.211 205.892 73.2708C206.859 74.3735 207.945 75.536 209.351 75.7326C211.828 76.0746 213.61 73.3306 214.752 70.9457C214.793 71.5528 215.054 72.1187 215.479 72.5228C215.905 72.9268 216.461 73.137 217.029 73.1084C217.641 72.9958 218.225 72.7515 218.747 72.3904C223.661 69.517 229.165 67.9954 234.765 67.9625C234.71 67.5089 234.814 67.0496 235.058 66.6737C235.302 66.2978 235.667 66.0321 236.083 65.928C237.226 65.6887 238.248 66.7401 238.799 67.8343C239.343 68.9284 239.686 70.1935 240.565 71.0141C241.436 71.8347 243.122 71.792 243.465 70.6124C243.801 69.4755 242.69 68.501 241.771 67.8257C240.845 67.159 239.878 65.9195 240.501 64.9279C245.199 63.8081 249.936 62.6969 254.754 62.4746C255.573 62.5011 256.388 62.3499 257.151 62.0301C257.528 61.859 257.843 61.5593 258.045 61.1775C258.247 60.7958 258.326 60.3533 258.269 59.9187C257.218 60.1812 256.118 60.1036 255.108 59.6957C254.098 59.2878 253.224 58.5681 252.597 57.6278C257.542 57.1919 262.719 56.8073 267.473 57.9954L271.635 61.7736C270.844 62.6541 269.79 63.4833 270.365 64.3637C270.555 64.5659 270.785 64.7194 271.038 64.8127C271.291 64.906 271.561 64.9366 271.827 64.9022C272.834 64.9193 273.84 64.945 274.839 64.945C295.503 86.0939 308.223 114.601 310.599 145.091C308.921 145.023 307.379 147.297 307.595 149.28C307.85 151.579 309.4 153.426 310.511 155.409C310.694 155.731 310.86 156.065 311.006 156.409L310.854 162.051Z" fill="#E5E5E5"/>
<path d="M131.717 212.564C130.752 211.823 129.652 211.326 128.495 211.108C127.338 210.89 126.153 210.957 125.022 211.304C123.89 211.651 122.842 212.269 121.949 213.115C121.056 213.961 120.341 215.015 119.854 216.202L91.458 213.226L98.42 227.77L124.318 228.367C126.165 229.144 128.205 229.141 130.051 228.358C131.896 227.575 133.42 226.067 134.332 224.119C135.244 222.171 135.482 219.919 135 217.789C134.518 215.66 133.35 213.8 131.717 212.564Z" fill="#FFB8B8"/>
<path d="M117.596 228.74C117.259 229.157 116.847 229.49 116.386 229.719C115.925 229.947 115.426 230.065 114.921 230.064L77.8555 229.123C68.8835 229.115 60.2194 225.485 53.475 218.908L31.2502 197.241C29.9158 196.429 28.7383 195.333 27.7853 194.015C26.8323 192.698 26.1223 191.184 25.6961 189.561C25.2699 187.938 25.1357 186.237 25.3013 184.556C25.4669 182.876 25.929 181.248 26.6612 179.766C27.3934 178.284 28.3812 176.976 29.5683 175.919C30.7553 174.862 32.1182 174.075 33.579 173.604C35.0398 173.133 36.5699 172.987 38.0816 173.174C39.5933 173.361 41.0571 173.877 42.3891 174.693L79.1978 206.981L115.037 214.658C115.754 214.854 116.399 215.29 116.886 215.906C117.373 216.523 117.678 217.291 117.759 218.107L118.495 225.641C118.574 226.449 118.429 227.264 118.08 227.978C117.946 228.252 117.784 228.508 117.596 228.74Z" fill="#2F2E41"/>
<path d="M267.793 221.605C266.994 222.665 266.002 223.526 264.882 224.129C263.762 224.732 262.54 225.065 261.296 225.105C260.052 225.145 258.814 224.892 257.665 224.361C256.515 223.831 255.48 223.036 254.627 222.028C246.896 213.015 259.534 199.481 267.294 208.514C267.568 208.825 267.822 209.157 268.054 209.508L307.186 208.426L311.857 198.93L326.211 205.126C323.455 209.877 320.291 228.522 313.083 227.615C312.138 227.643 268.76 221.682 267.793 221.605Z" fill="#A0616A"/>
</g>
<defs>
<filter id="filter0_f" x="1.97205" y="20" width="419.028" height="435.494" filterUnits="userSpaceOnUse" color-interpolation-filters="sRGB">
<feFlood flood-opacity="0" result="BackgroundImageFix"/>
<feBlend mode="normal" in="SourceGraphic" in2="BackgroundImageFix" result="shape"/>
<feGaussianBlur stdDeviation="5" result="effect1_foregroundBlur"/>
</filter>
<filter id="filter1_d" x="46.12" y="0" width="294.882" height="311.324" filterUnits="userSpaceOnUse" color-interpolation-filters="sRGB">
<feFlood flood-opacity="0" result="BackgroundImageFix"/>
<feColorMatrix in="SourceAlpha" type="matrix" values="0 0 0 0 0 0 0 0 0 0 0 0 0 0 0 0 0 0 127 0"/>
<feOffset/>
<feGaussianBlur stdDeviation="15"/>
<feColorMatrix type="matrix" values="0 0 0 0 0.476863 0 0 0 0 0.282353 0 0 0 0 0.890196 0 0 0 0.5 0"/>
<feBlend mode="normal" in2="BackgroundImageFix" result="effect1_dropShadow"/>
<feBlend mode="normal" in="SourceGraphic" in2="effect1_dropShadow" result="shape"/>
</filter>
</defs>
</svg>
