<svg width="200" height="200" viewBox="0 0 200 200" fill="none" xmlns="http://www.w3.org/2000/svg">
<rect width="200" height="200" rx="100" fill="#48BFE3"/>
<path d="M35.5162 108.351H66.5488L82.065 80.8421L66.5488 53.3334H35.5162L20 80.8421L35.5162 108.351Z" fill="white"/>
<path d="M35.1415 74.1014C35.9321 74.1014 36.5731 73.4454 36.5731 72.636C36.5731 71.8267 35.9321 71.1707 35.1415 71.1707C34.3508 71.1707 33.7098 71.8267 33.7098 72.636C33.7098 73.4454 34.3508 74.1014 35.1415 74.1014Z" fill="#E2E2E2"/>
<path d="M35.1415 82.3076C35.9321 82.3076 36.5731 81.6515 36.5731 80.8422C36.5731 80.0329 35.9321 79.3768 35.1415 79.3768C34.3508 79.3768 33.7098 80.0329 33.7098 80.8422C33.7098 81.6515 34.3508 82.3076 35.1415 82.3076Z" fill="#E2E2E2"/>
<path d="M35.1415 90.5138C35.9321 90.5138 36.5731 89.8577 36.5731 89.0484C36.5731 88.2391 35.9321 87.583 35.1415 87.583C34.3508 87.583 33.7098 88.2391 33.7098 89.0484C33.7098 89.8577 34.3508 90.5138 35.1415 90.5138Z" fill="#E2E2E2"/>
<path d="M68.3552 71.4637H41.1543V73.8084H68.3552V71.4637Z" fill="#E2E2E2"/>
<path d="M68.3552 79.6699H41.1543V82.0145H68.3552V79.6699Z" fill="#E2E2E2"/>
<path d="M68.3552 87.8762H41.1543V90.2208H68.3552V87.8762Z" fill="#E2E2E2"/>
<path d="M146.183 87.0176H177.215L192.732 59.5088L177.215 32H146.183L130.667 59.5088L146.183 87.0176Z" fill="white"/>
<path d="M145.808 52.7681C146.599 52.7681 147.24 52.112 147.24 51.3027C147.24 50.4934 146.599 49.8373 145.808 49.8373C145.017 49.8373 144.376 50.4934 144.376 51.3027C144.376 52.112 145.017 52.7681 145.808 52.7681Z" fill="#E2E2E2"/>
<path d="M145.808 60.9742C146.599 60.9742 147.24 60.3182 147.24 59.5088C147.24 58.6995 146.599 58.0435 145.808 58.0435C145.017 58.0435 144.376 58.6995 144.376 59.5088C144.376 60.3182 145.017 60.9742 145.808 60.9742Z" fill="#E2E2E2"/>
<path d="M145.808 69.1804C146.599 69.1804 147.24 68.5244 147.24 67.715C147.24 66.9057 146.599 66.2496 145.808 66.2496C145.017 66.2496 144.376 66.9057 144.376 67.715C144.376 68.5244 145.017 69.1804 145.808 69.1804Z" fill="#E2E2E2"/>
<path d="M179.022 50.1304H151.821V52.475H179.022V50.1304Z" fill="#E2E2E2"/>
<path d="M179.022 58.3365H151.821V60.6812H179.022V58.3365Z" fill="#E2E2E2"/>
<path d="M179.022 66.5428H151.821V68.8875H179.022V66.5428Z" fill="#E2E2E2"/>
<path d="M117.325 13.3334H82.708L65.3998 44.0193L82.708 74.7054H117.325L134.633 44.0193L117.325 13.3334Z" fill="#E6E6E6"/>
<path d="M84.651 71.261H115.382L130.748 44.0193L115.382 16.7777H84.651L69.2854 44.0193L84.651 71.261Z" fill="white"/>
<path d="M84.2798 37.344C85.0627 37.344 85.6975 36.6943 85.6975 35.8928C85.6975 35.0914 85.0627 34.4417 84.2798 34.4417C83.4968 34.4417 82.8621 35.0914 82.8621 35.8928C82.8621 36.6943 83.4968 37.344 84.2798 37.344Z" fill="#F25F5C"/>
<path d="M84.2798 45.4704C85.0627 45.4704 85.6975 44.8207 85.6975 44.0193C85.6975 43.2178 85.0627 42.5681 84.2798 42.5681C83.4968 42.5681 82.8621 43.2178 82.8621 44.0193C82.8621 44.8207 83.4968 45.4704 84.2798 45.4704Z" fill="#F25F5C"/>
<path d="M84.2798 53.597C85.0627 53.597 85.6975 52.9473 85.6975 52.1459C85.6975 51.3444 85.0627 50.6947 84.2798 50.6947C83.4968 50.6947 82.8621 51.3444 82.8621 52.1459C82.8621 52.9473 83.4968 53.597 84.2798 53.597Z" fill="#F25F5C"/>
<path d="M117.171 34.7318H90.2341V37.0537H117.171V34.7318Z" fill="#F25F5C"/>
<path d="M117.171 42.8583H90.2341V45.1801H117.171V42.8583Z" fill="#F25F5C"/>
<path d="M117.171 50.9849H90.2341V53.3067H117.171V50.9849Z" fill="#F25F5C"/>
<path d="M122.618 118.525L125.44 124.508L128.665 121.317L126.649 116.531L122.618 118.525Z" fill="#A0616A"/>
<path d="M135.081 53.2521C135.081 53.2521 137.916 63.7161 140.325 64.4115C142.735 65.107 127.474 67.2784 127.474 67.2784L127.137 57.901L135.081 53.2521Z" fill="#A0616A"/>
<path d="M157.694 114.935L156.888 120.519L154.469 118.924V112.941L157.694 114.935Z" fill="#A0616A"/>
<path d="M123.021 175.165L121.812 184.737L128.262 185.136L127.456 175.165H123.021Z" fill="#A0616A"/>
<path d="M158.501 175.165L159.71 184.737L153.259 185.136L154.066 175.165H158.501Z" fill="#A0616A"/>
<path d="M125.843 115.334C125.843 115.334 123.021 122.913 123.424 126.104C123.827 129.295 120.199 145.648 121.408 147.244C122.618 148.839 122.618 150.834 121.811 152.03C121.005 153.227 120.602 151.631 121.005 153.626C121.408 155.62 120.602 165.592 121.005 167.187C121.408 168.783 119.796 169.182 120.602 170.777C121.408 172.372 122.618 177.159 122.618 177.159L127.859 176.76L128.665 172.372C128.665 172.372 131.085 171.974 130.681 169.58C130.278 167.187 132.697 151.232 132.697 151.232L139.551 128.896L149.227 149.238C149.227 149.238 149.631 163.597 150.84 165.193C152.05 166.788 149.631 171.176 150.84 172.771C152.05 174.367 153.259 177.159 153.259 177.159H159.307V173.968C159.307 173.968 162.936 171.974 159.307 165.991L158.501 131.688L156.081 115.334H125.843Z" fill="#2F2E41"/>
<path d="M129.069 183.541C129.069 183.541 126.246 182.344 125.037 183.142C123.827 183.94 123.021 182.743 123.021 182.743C123.021 182.743 121.408 181.945 121.005 183.142C120.695 183.983 120.289 184.786 119.796 185.535C119.796 185.535 117.377 189.923 118.989 191.119C120.602 192.316 121.811 193.114 121.811 193.912C121.811 194.709 129.472 195.108 129.472 193.912C129.472 192.715 129.069 183.541 129.069 183.541Z" fill="#2F2E41"/>
<path d="M152.453 183.541C152.453 183.541 155.275 182.344 156.485 183.142C157.694 183.94 158.501 182.743 158.501 182.743C158.501 182.743 160.113 181.945 160.517 183.142C160.827 183.983 161.232 184.786 161.726 185.535C161.726 185.535 164.145 189.923 162.532 191.119C160.92 192.316 159.71 193.114 159.71 193.912C159.71 194.709 152.05 195.108 152.05 193.912C152.05 192.715 152.453 183.541 152.453 183.541Z" fill="#2F2E41"/>
<path d="M149.832 66.4726C149.832 66.4726 138.543 62.085 132.496 63.6805C126.448 65.276 116.368 72.4556 116.772 74.0511C117.175 75.6466 121.005 94.194 121.005 94.194C121.005 94.194 121.005 105.362 123.021 108.952C125.037 112.542 125.44 115.334 125.44 115.334L125.037 119.323C125.037 119.323 135.519 120.121 141.164 117.727C146.808 115.334 156.081 116.93 156.081 116.93C156.081 116.93 151.243 96.9861 148.824 93.7951C146.405 90.6042 149.832 66.4726 149.832 66.4726Z" fill="#575A89"/>
<path d="M120.199 73.054L116.57 74.2506C116.57 74.2506 113.345 79.037 113.345 82.228C113.345 85.4189 112.942 105.362 114.554 108.154C116.167 110.947 117.78 116.531 120.199 116.93L123.021 120.519L127.859 117.328L126.246 113.739L120.199 73.054Z" fill="#575A89"/>
<path d="M144.389 67.0709L148.4 65.9565L150.034 66.6721C150.034 66.6721 156.081 72.6551 158.097 78.6381C160.113 84.6212 160.516 107.756 160.516 107.756C160.516 107.756 160.92 108.952 160.516 109.351C160.113 109.75 159.71 110.149 159.71 110.947C159.71 111.744 158.904 113.34 158.904 113.34L158.501 116.531L154.469 116.132C154.469 116.132 146.808 93.7952 146.808 88.6099C146.808 83.4246 144.389 67.0709 144.389 67.0709Z" fill="#575A89"/>
<path d="M143.265 64.4373C143.265 64.4373 143.381 62.484 142.172 62.0851C140.962 61.6863 139.35 59.6919 136.124 60.4897C132.899 61.2874 124.432 62.484 124.029 63.2817C123.626 64.0795 122.416 64.4784 122.819 65.2761C123.223 66.0738 124.029 65.2761 123.223 66.0738C122.416 66.8716 122.013 66.4727 122.416 66.8716C122.819 67.2704 122.819 69.2648 122.819 69.2648C122.819 69.2648 128.867 73.2535 130.48 72.8546C132.092 72.4558 141.717 64.0805 141.717 64.0805L143.265 64.4373Z" fill="#575A89"/>
<path opacity="0.2" d="M122.797 90.537L122.389 104.124L125.614 113.697L122.797 90.537Z" fill="black"/>
<path opacity="0.2" d="M150.623 84.601L154.271 97.7059L153.428 107.762L150.623 84.601Z" fill="black"/>
<path d="M130.784 60.9706C135.511 60.9706 139.342 57.18 139.342 52.5042C139.342 47.8284 135.511 44.0378 130.784 44.0378C126.058 44.0378 122.227 47.8284 122.227 52.5042C122.227 57.18 126.058 60.9706 130.784 60.9706Z" fill="#A0616A"/>
<path d="M123.502 51.9201C124.106 53.4465 124.71 54.9728 125.314 56.4992C126.056 58.3756 126.906 60.3832 128.646 61.4304C130.795 62.7233 133.664 62.0929 135.742 60.6923C139.452 58.1923 141.339 53.3112 140.261 49.0003C139.183 44.6894 135.215 41.2408 130.755 40.7396L130.669 42.2722L128.768 40.6958C128.262 41.7033 126.663 41.927 125.895 41.0977C126.394 42.1218 125.818 43.3707 124.986 44.1552C123.963 45.1189 121.039 46.2771 121.16 47.9998C121.241 49.1494 123.031 50.7287 123.502 51.9201Z" fill="#2F2E41"/>
</svg>
