<svg width="746" height="209" viewBox="0 0 746 209" fill="none" xmlns="http://www.w3.org/2000/svg">
<path d="M568.977 127.902C576.34 127.902 582.797 135.127 586.357 145.915C586.609 146.672 586.845 147.45 587.066 148.239C588.565 153.77 589.31 159.457 589.282 165.164C589.282 185.711 580.174 202.426 568.977 202.426C557.779 202.426 548.672 185.711 548.672 165.164C548.672 144.617 557.779 127.902 568.977 127.902ZM568.977 201.834C579.825 201.834 588.652 185.383 588.652 165.164C588.681 159.433 587.927 153.722 586.408 148.171C586.2 147.429 585.977 146.702 585.74 145.989C582.274 135.499 576.057 128.494 568.977 128.494C558.129 128.494 549.301 144.945 549.301 165.164C549.301 185.383 558.129 201.834 568.977 201.834Z" fill="#3F3D56"/>
<path d="M564.097 186.708C567.981 186.708 571.023 177.244 571.023 165.164C571.023 153.083 567.981 143.62 564.097 143.62C560.214 143.62 557.172 153.083 557.172 165.164C557.172 177.244 560.214 186.708 564.097 186.708ZM564.097 144.211C567.51 144.211 570.393 153.806 570.393 165.164C570.393 176.521 567.51 186.116 564.097 186.116C560.685 186.116 557.801 176.521 557.801 165.164C557.801 153.806 560.685 144.211 564.097 144.211Z" fill="#3F3D56"/>
<path d="M563.31 170.112C561.833 170.112 560.635 167.897 560.635 165.164C560.635 162.431 561.833 160.216 563.31 160.216C564.788 160.216 565.986 162.431 565.986 165.164C565.986 167.897 564.788 170.112 563.31 170.112Z" fill="#CFCCE0"/>
<path d="M569.134 91.5275L526.005 91.3796V107.341L569.134 108.975V91.5275Z" fill="#3F3D56"/>
<path d="M605.967 145.662L606.595 145.63L604.69 113.115H565.671V113.707H604.094L605.967 145.662Z" fill="#3F3D56"/>
<path d="M606.582 198.763L629.272 195.32L629.278 194.312L606.588 197.755L606.582 198.763Z" fill="#3F3D56"/>
<path d="M575.819 208.802L605.976 206.262L605.938 205.248L575.781 207.788L575.819 208.802Z" fill="#3F3D56"/>
<path d="M539.464 145.693C539.7 146.406 539.922 147.133 540.131 147.876L540.789 147.944L561.264 150.082L608.17 145.646L559.375 143.28L540.081 145.619L539.464 145.693Z" fill="#3F3D56"/>
<path d="M609.465 174.674L612.613 184.728L606.631 189.46L602.224 176.744L609.465 174.674Z" fill="#9F616A"/>
<path d="M585.225 182.067L588.373 192.713L577.355 199.219C577.355 199.219 577.04 187.094 575.466 184.728L585.225 182.067Z" fill="#9F616A"/>
<path d="M571.688 125.287L573.262 128.244C573.262 128.244 591.206 120.555 595.928 131.202C600.65 141.848 611.039 175.561 611.039 175.561L601.909 179.109L585.225 143.326L547.133 142.439L545.559 122.625L571.688 125.287Z" fill="#2F2E41"/>
<path d="M558.903 130.416C558.903 130.416 584.717 125.388 586.606 137.513C588.495 149.638 585.661 172.705 585.347 173.296C585.032 173.888 586.606 184.829 586.606 184.829L575.273 186.308C575.273 186.308 568.032 154.074 571.18 145.793L549.881 144.556C542.528 144.129 536.521 138.672 536.099 131.764C535.937 129.119 536.642 126.719 539.07 125.388C546.625 121.248 560.477 121.248 560.477 121.248L558.903 130.416Z" fill="#2F2E41"/>
<path d="M608.52 184.433C608.52 184.433 610.724 179.997 613.872 182.067C617.02 184.137 624.261 188.573 624.261 188.573C624.261 188.573 635.461 192.278 625.52 194.783C616.677 197.011 614.502 196.557 614.502 196.557C614.502 196.557 607.261 197.74 606.317 197.149C605.372 196.557 604.743 187.094 604.743 187.094C604.743 187.094 609.15 186.207 608.52 184.433Z" fill="#2F2E41"/>
<path d="M583.965 193.6C583.965 193.6 587.113 189.46 589.317 191.234C591.521 193.009 599.391 198.036 599.391 198.036C599.391 198.036 612.613 201.585 600.965 204.838C589.317 208.091 576.41 207.499 576.095 206.316C575.78 205.134 576.725 196.557 576.725 196.557C576.725 196.557 583.336 196.262 583.965 193.6Z" fill="#2F2E41"/>
<path d="M525.691 111.637H526.32V89.0637L516.158 91.835L516.334 92.4031L525.691 89.8513V111.637Z" fill="#3F3D56"/>
<path d="M505.232 145.89C508.774 134.951 515.278 127.605 522.701 127.605C530.064 127.605 536.521 134.83 540.082 145.618C540.333 146.375 540.569 147.153 540.79 147.943C542.289 153.473 543.034 159.16 543.006 164.867C543.006 185.414 533.899 202.129 522.701 202.129C521.913 202.129 521.128 202.046 520.359 201.883C512.807 200.286 506.504 191.057 503.806 178.518C502.856 174.023 502.384 169.45 502.396 164.867C502.396 157.941 503.432 151.45 505.232 145.89ZM518.114 200.532C519.544 201.185 521.111 201.529 522.701 201.537C533.549 201.537 542.376 185.086 542.376 164.867C542.404 159.136 541.65 153.425 540.132 147.875C539.924 147.132 539.702 146.405 539.465 145.692C535.998 135.203 529.781 128.197 522.701 128.197C515.319 128.197 508.872 135.818 505.506 147.061C503.824 152.864 502.99 158.854 503.026 164.867C503.026 182.144 509.47 196.67 518.114 200.532Z" fill="#3F3D56"/>
<path d="M517.821 186.412C521.704 186.412 524.746 176.949 524.746 164.868C524.746 152.788 521.704 143.324 517.821 143.324C513.937 143.324 510.895 152.788 510.895 164.868C510.895 176.949 513.937 186.412 517.821 186.412ZM517.821 143.916C521.233 143.916 524.117 153.511 524.117 164.868C524.117 176.226 521.233 185.821 517.821 185.821C514.408 185.821 511.525 176.226 511.525 164.868C511.525 153.511 514.408 143.916 517.821 143.916Z" fill="#3F3D56"/>
<path d="M517.034 169.816C515.556 169.816 514.358 167.601 514.358 164.868C514.358 162.135 515.556 159.92 517.034 159.92C518.512 159.92 519.71 162.135 519.71 164.868C519.71 167.601 518.512 169.816 517.034 169.816Z" fill="#CFCCE0"/>
<path d="M521.283 88.5703L514.672 90.9361L515.932 94.1891L521.283 92.1191V88.5703Z" fill="#3F3D56"/>
<path d="M595.578 111.637V116.368H576.822V111.951L595.578 111.637Z" fill="#3F3D56"/>
<path d="M574.582 122.297L587.494 123.227C588.493 123.299 589.482 123.002 590.252 122.4C591.021 121.797 591.511 120.937 591.616 120.001C591.677 119.458 591.606 118.909 591.409 118.396C591.212 117.882 590.894 117.418 590.478 117.036C590.063 116.655 589.561 116.367 589.01 116.193C588.459 116.02 587.873 115.966 587.297 116.036L575.207 117.497L574.582 122.297Z" fill="#9F616A"/>
<path d="M549.33 88.1081C549.336 89.4131 549.478 90.7145 549.752 91.9939L551.638 117.181L570.592 122.312L576.183 123.826L576.438 122.43L577.392 117.234L577.688 115.626L571.024 114.499L560.219 112.671L558.932 81.0372L554.534 80.2861C554.207 79.6314 553.917 78.9612 553.665 78.2781C552.419 79.3146 551.41 80.5783 550.7 81.9924C550.334 82.7188 550.043 83.4764 549.831 84.2547C549.491 85.5142 549.323 86.8089 549.33 88.1081Z" fill="#E6E6E6"/>
<path d="M532.296 58.0913C532.615 57.5093 532.98 56.9507 533.389 56.4204C534.441 55.0395 535.779 53.871 537.321 52.9841C538.863 52.0972 540.579 51.5099 542.367 51.257C543.276 51.127 544.197 51.0814 545.115 51.121C551.411 51.4049 556.801 55.761 557.972 61.921C557.984 61.9979 557.997 62.0688 558.01 62.1428L558.029 62.2581L560.084 74.933L558.639 75.14L552.995 75.9473L541.199 77.6359L532.954 78.8159L530.898 66.141C530.442 63.3864 530.932 60.5669 532.296 58.0913Z" fill="#2F2E41"/>
<path d="M546.941 74.131C541.222 74.131 536.587 69.7761 536.587 64.404C536.587 59.0319 541.222 54.677 546.941 54.677C552.66 54.677 557.296 59.0319 557.296 64.404C557.296 69.7761 552.66 74.131 546.941 74.131Z" fill="#9F616A"/>
<path d="M539.521 83.2315L549.831 84.2547L557.559 85.0236C556.389 83.5405 555.376 81.9538 554.534 80.286C554.207 79.6314 553.917 78.9612 553.665 78.278C553.384 77.517 553.16 76.7383 552.995 75.9477C552.753 74.8101 552.653 73.65 552.696 72.4907C552.723 71.8761 552.791 71.2637 552.9 70.6571L540.371 70.5359C540.572 71.1214 540.741 71.705 540.878 72.2866C541.293 74.0417 541.401 75.8485 541.199 77.6363C541.105 78.4533 540.949 79.2628 540.73 80.0583C540.426 81.1472 540.022 82.209 539.521 83.2315Z" fill="#9F616A"/>
<path d="M534.471 82.5869L534.878 103.028C534.972 103.125 535.066 103.223 535.155 103.323C539.461 107.993 540.299 114.653 540.125 121.079C540.11 121.789 540.078 122.495 540.037 123.196C543.195 124.503 546.503 125.87 549.79 126.94C550.435 127.15 551.078 127.351 551.717 127.535C557.018 129.066 562.162 129.658 566.396 127.83C567.941 127.159 569.319 126.193 570.445 124.994L570.592 122.312L571.024 114.499L571.477 106.263C574.213 103.161 571.483 95.1938 565.319 84.1631C564.928 83.4628 564.372 82.8555 563.693 82.3871C563.015 81.9188 562.232 81.6018 561.403 81.4602L558.932 81.0373L554.534 80.2861L554.462 80.2743C553.52 81.2798 552.246 81.821 550.7 81.9925C548.055 82.2764 544.63 81.475 540.752 80.0496L540.73 80.0584L535.287 82.2586L534.471 82.5869Z" fill="#E6E6E6"/>
<path d="M533.64 58.101L537.468 65.4373L559.698 61.8749C559.184 59.1899 557.791 56.7226 555.712 54.8177C553.633 52.9127 550.973 51.6653 548.103 51.2496C545.233 50.8339 542.296 51.2707 539.703 52.4991C537.11 53.7274 534.991 55.6859 533.64 58.101H533.64Z" fill="#2F2E41"/>
<path d="M580.004 109.335C580.167 109.184 580.38 109.09 580.607 109.069C580.835 109.048 581.063 109.101 581.254 109.219L588.891 113.892C589.017 113.968 589.122 114.071 589.2 114.191C589.278 114.311 589.327 114.446 589.342 114.585C589.358 114.725 589.34 114.867 589.289 114.999C589.239 115.132 589.158 115.252 589.052 115.351L569.63 133.517C569.536 133.605 569.424 133.675 569.3 133.722C569.177 133.769 569.045 133.793 568.912 133.792C568.779 133.791 568.647 133.764 568.525 133.715C568.402 133.666 568.292 133.594 568.199 133.504L561.834 127.316C561.65 127.136 561.549 126.895 561.553 126.646C561.557 126.397 561.665 126.159 561.855 125.985L580.004 109.335Z" fill="#CCCCCC"/>
<path d="M587.387 114.392L586.597 113.918C586.68 114.058 586.71 114.219 586.683 114.377C586.656 114.535 586.573 114.679 586.447 114.787C586.322 114.895 586.161 114.959 585.991 114.97C585.822 114.981 585.653 114.938 585.513 114.847L580.398 111.544C580.282 111.469 580.191 111.365 580.134 111.243C580.078 111.122 580.059 110.988 580.08 110.857C580.101 110.726 580.16 110.603 580.252 110.502C580.343 110.401 580.463 110.327 580.597 110.287L580.19 110.043C580.137 110.011 580.075 109.998 580.012 110.004C579.95 110.011 579.892 110.037 579.848 110.079L562.643 125.963C562.617 125.987 562.597 126.016 562.583 126.048C562.57 126.08 562.563 126.114 562.564 126.148C562.564 126.182 562.572 126.216 562.587 126.248C562.602 126.279 562.623 126.307 562.65 126.331L568.898 132.05C568.95 132.096 569.019 132.121 569.09 132.12C569.161 132.119 569.229 132.093 569.279 132.045L587.433 114.791C587.462 114.764 587.484 114.731 587.498 114.694C587.512 114.658 587.517 114.619 587.512 114.581C587.508 114.542 587.494 114.506 587.472 114.473C587.451 114.44 587.422 114.412 587.387 114.392Z" fill="white"/>
<path d="M567.529 122.455L572.807 127.13L585.362 115.479L578.99 111.583L567.529 122.455Z" fill="#FFC563"/>
<path d="M584.874 118.354C584.839 118.322 584.82 118.278 584.82 118.233C584.82 118.187 584.839 118.144 584.874 118.112L585.971 117.08C586.006 117.049 586.053 117.032 586.101 117.032C586.149 117.032 586.195 117.049 586.23 117.08C586.264 117.113 586.283 117.156 586.283 117.202C586.283 117.247 586.264 117.291 586.23 117.323L585.132 118.354C585.097 118.386 585.051 118.403 585.003 118.403C584.955 118.403 584.908 118.386 584.874 118.354Z" fill="#E6E6E6"/>
<path d="M583.024 119.849L584.122 118.818C584.156 118.785 584.203 118.767 584.251 118.767C584.3 118.767 584.346 118.785 584.38 118.818C584.415 118.85 584.434 118.893 584.434 118.939C584.434 118.984 584.415 119.028 584.38 119.06L583.282 120.092C583.265 120.108 583.245 120.12 583.223 120.129C583.201 120.137 583.177 120.142 583.153 120.142C583.129 120.142 583.106 120.137 583.083 120.129C583.061 120.12 583.041 120.108 583.024 120.092C583.007 120.076 582.994 120.057 582.985 120.036C582.975 120.015 582.971 119.993 582.971 119.97C582.971 119.948 582.975 119.925 582.985 119.905C582.994 119.884 583.007 119.865 583.024 119.849Z" fill="#E6E6E6"/>
<path d="M567.651 127.626C566.97 127.626 566.418 127.108 566.418 126.468C566.418 125.828 566.97 125.31 567.651 125.31C568.332 125.31 568.884 125.828 568.884 126.468C568.884 127.108 568.332 127.626 567.651 127.626Z" fill="#FFC563"/>
<path d="M549.41 129.847L562.322 130.777C563.321 130.849 564.311 130.552 565.08 129.949C565.85 129.347 566.339 128.486 566.444 127.55C566.505 127.008 566.434 126.459 566.237 125.946C566.04 125.432 565.722 124.967 565.306 124.586C564.891 124.204 564.389 123.916 563.838 123.743C563.287 123.57 562.702 123.516 562.125 123.586L550.036 125.047L549.41 129.847Z" fill="#9F616A"/>
<path d="M551.013 131.377L552.517 123.174L535.047 120.222L535.287 82.0723C531.556 83.2769 528.416 85.7102 526.447 88.9221C524.479 92.1339 523.816 95.9068 524.581 99.5426L526.468 124.73L551.013 131.377Z" fill="#E6E6E6"/>
<path d="M525.061 128.208L525.366 116.073H554.662L555.598 148.611L556.228 148.595L555.275 115.481H524.757L524.747 115.767L524.432 128.188L525.061 128.208Z" fill="#3F3D56"/>
<path d="M547.413 114.003V118.734H528.656V114.317L547.413 114.003Z" fill="#3F3D56"/>
<path d="M225.785 186.83L226.914 178.079L258.815 170.388L255.145 160.046C257.701 153.158 262.189 149.781 270.389 153.151L284.494 161.382C285.864 162.182 286.981 163.313 287.727 164.657C288.473 166.001 288.82 167.509 288.733 169.023C288.647 170.543 288.126 172.012 287.224 173.277C286.322 174.541 285.074 175.553 283.611 176.207C267.821 183.238 247.696 185.928 225.785 186.83Z" fill="#FFB8B8"/>
<path d="M227.761 189.482L217.881 188.156L208.639 189.928C208.073 190.036 207.489 190.028 206.926 189.904C206.364 189.779 205.837 189.541 205.381 189.207C204.926 188.872 204.554 188.449 204.29 187.966C204.026 187.483 203.877 186.952 203.853 186.41C203.826 185.803 203.956 185.2 204.233 184.651C204.509 184.102 204.923 183.624 205.439 183.259L219.921 173.009C221.163 172.13 222.698 171.696 224.25 171.784C225.802 171.872 227.27 172.477 228.39 173.491L231.996 176.753C229.415 178.257 227.497 180.513 226.35 183.648C228.83 184.928 229.3 186.873 227.761 189.482Z" fill="#2F2E41"/>
<path d="M237.198 97.6026C242.245 97.6026 246.336 93.7595 246.336 89.0187C246.336 84.278 242.245 80.4348 237.198 80.4348C232.152 80.4348 228.061 84.278 228.061 89.0187C228.061 93.7595 232.152 97.6026 237.198 97.6026Z" fill="#FFB8B8"/>
<path d="M251.475 105.946L231.008 114.035C232.671 106.189 233.5 99.0419 231.008 94.6756L244.135 93.217C243.483 96.5725 246.805 101.066 251.475 105.946Z" fill="#FFB8B8"/>
<path d="M216.751 186.565L209.129 186.035C204.46 167.743 202.069 150.454 203.113 134.675C203.26 132.372 204.352 130.211 206.158 128.648C207.965 127.084 210.346 126.238 212.802 126.288C215.161 126.338 217.417 127.213 219.127 128.742L228.984 137.553C233.379 141.452 236.791 146.225 238.971 151.522C241.762 158.39 240.76 162.241 234.096 161.587C229.932 161.151 226.102 159.238 223.388 156.239L216.187 148.377L216.751 186.565Z" fill="#FFB8B8"/>
<path d="M210.849 208.301C209.85 208.24 208.88 207.963 208.013 207.493C207.146 207.023 206.406 206.371 205.85 205.589C205.294 204.807 204.937 203.915 204.808 202.982C204.678 202.05 204.778 201.102 205.101 200.211L206.589 196.112L207.718 185.77C209.458 182.435 211.921 182.934 214.776 185.504C216.591 185.337 216.98 183.632 216.752 181.261L222.475 188.498C222.965 189.118 223.269 189.849 223.355 190.616C223.442 191.384 223.308 192.159 222.967 192.861L217.207 204.729C216.658 205.86 215.756 206.808 214.621 207.446C213.485 208.083 212.17 208.382 210.849 208.301Z" fill="#2F2E41"/>
<path d="M282.952 160.443C272.506 166.013 269.233 166.174 258.815 170.123L249.781 165.35C239.172 169.035 231.729 163.983 223.668 156.466C228.943 148.212 226.61 137.485 229.879 137.637L268.978 149.173L270.672 153.151L282.952 160.443Z" fill="#2F2E41"/>
<path d="M270.389 151.825C256.584 157.438 241.719 151.495 229.032 138.432L220.631 106.561C220.532 106.21 220.51 105.843 220.567 105.484C220.624 105.125 220.759 104.78 220.964 104.472C221.168 104.164 221.437 103.898 221.755 103.691C222.073 103.484 222.433 103.341 222.812 103.269L232.56 101.438L237.36 108.598L246.958 100.642L257.151 103.773C258.507 104.189 259.716 104.943 260.65 105.955C261.585 106.967 262.209 108.198 262.456 109.517L270.389 151.825Z" fill="#FFC563"/>
<path opacity="0.2" d="M248.461 178.844C247.716 178.577 247.05 178.147 246.518 177.588C245.987 177.03 245.606 176.36 245.407 175.634C245.209 174.909 245.198 174.15 245.377 173.42C245.555 172.69 245.917 172.01 246.433 171.439L252.886 164.289L257.403 166.676L255.077 175.583C254.909 176.228 254.597 176.831 254.161 177.354C253.726 177.877 253.177 178.306 252.551 178.615C251.926 178.923 251.238 179.103 250.532 179.142C249.827 179.182 249.121 179.08 248.461 178.844Z" fill="black"/>
<path d="M248.461 177.783C247.716 177.516 247.05 177.086 246.518 176.527C245.987 175.969 245.606 175.299 245.407 174.573C245.209 173.848 245.198 173.088 245.377 172.358C245.555 171.629 245.917 170.949 246.433 170.378L252.886 163.228L257.403 165.615L255.077 174.522C254.909 175.167 254.597 175.77 254.161 176.293C253.726 176.816 253.177 177.245 252.551 177.554C251.926 177.862 251.238 178.042 250.532 178.081C249.827 178.121 249.121 178.019 248.461 177.783Z" fill="#FFB8B8"/>
<path d="M258.532 167.736L251.757 163.493L261.638 138.83L257.968 104.09L261.316 106.055C263.112 107.11 264.662 108.497 265.871 110.132C267.08 111.766 267.923 113.614 268.349 115.564L273.777 140.421C271.402 151.879 267.443 161.96 258.532 167.736Z" fill="#FFC563"/>
<path opacity="0.2" d="M254.439 128.355L257.827 144.267L255.041 153.573L254.439 128.355Z" fill="black"/>
<path d="M228.262 88.2826C228.262 88.2826 222.996 72.0939 239.089 75.4891C241.586 76.0157 243.742 77.3788 245.458 79.1617C245.611 79.3176 245.8 79.44 246.009 79.5204C246.218 79.6007 246.444 79.6371 246.67 79.6269C249.241 79.6269 250.829 88.2568 245.687 92.0518C245.687 92.0518 246.736 86.9451 244.829 85.205C244.486 84.9106 244.199 84.5634 243.98 84.1784C242.739 81.8264 238.567 81.0544 235.69 81.2546C234.22 81.3568 234.092 83.7629 232.466 83.4268C228.766 82.6621 227.584 86.6889 228.262 88.2826Z" fill="#2F2E41"/>
<path d="M244.46 112.31L244.354 113.043L243.696 117.566L242.619 124.973L242.349 126.827C242.329 126.969 242.254 127.098 242.14 127.192C242.025 127.286 241.878 127.338 241.726 127.338H234.545C234.393 127.338 234.246 127.286 234.131 127.193C234.017 127.099 233.942 126.97 233.921 126.829L233.647 124.973L232.552 117.566L231.883 113.04L231.775 112.312C231.763 112.228 231.77 112.143 231.795 112.062C231.821 111.981 231.865 111.906 231.924 111.842C231.983 111.779 232.056 111.728 232.137 111.693C232.219 111.658 232.308 111.639 232.398 111.639H243.837C243.927 111.639 244.015 111.658 244.097 111.692C244.179 111.727 244.252 111.778 244.311 111.842C244.37 111.905 244.414 111.98 244.439 112.061C244.465 112.142 244.472 112.227 244.46 112.31Z" fill="#E6E6E6"/>
<path d="M233.156 109.677H243.116C243.199 109.677 243.281 109.693 243.357 109.722C243.433 109.752 243.503 109.795 243.561 109.85C243.619 109.905 243.666 109.97 243.697 110.042C243.729 110.114 243.745 110.191 243.745 110.268V111.049C243.745 111.205 243.679 111.356 243.561 111.467C243.443 111.577 243.283 111.64 243.116 111.64H233.156C232.989 111.64 232.829 111.577 232.711 111.467C232.593 111.356 232.527 111.205 232.527 111.049V110.268C232.527 110.191 232.543 110.114 232.575 110.042C232.606 109.97 232.653 109.905 232.711 109.85C232.769 109.795 232.839 109.752 232.915 109.722C232.991 109.693 233.073 109.677 233.156 109.677Z" fill="#3F3D56"/>
<path d="M245.36 112.62C240.558 113.113 235.714 113.113 230.912 112.62C230.83 112.62 230.748 112.605 230.672 112.576C230.595 112.546 230.526 112.502 230.467 112.447C230.409 112.393 230.363 112.327 230.331 112.256C230.3 112.184 230.283 112.107 230.283 112.03V111.249C230.283 111.171 230.3 111.095 230.331 111.023C230.363 110.951 230.409 110.886 230.467 110.831C230.526 110.776 230.595 110.733 230.672 110.703C230.748 110.673 230.83 110.658 230.912 110.658C235.71 111.212 240.562 111.212 245.36 110.658C245.527 110.658 245.687 110.72 245.805 110.831C245.923 110.942 245.989 111.092 245.989 111.249V112.03C245.989 112.186 245.923 112.337 245.805 112.447C245.687 112.558 245.527 112.62 245.36 112.62Z" fill="#3F3D56"/>
<path d="M237.844 121.688C239.344 121.688 240.559 120.546 240.559 119.138C240.559 117.729 239.344 116.588 237.844 116.588C236.345 116.588 235.13 117.729 235.13 119.138C235.13 120.546 236.345 121.688 237.844 121.688Z" fill="white"/>
<path d="M244.824 124.503C244.906 125.248 244.797 126.001 244.506 126.698C244.215 127.395 243.75 128.017 243.15 128.51C242.55 129.004 241.833 129.355 241.059 129.534C240.285 129.714 239.477 129.716 238.701 129.541L228.998 127.353L229.23 122.489L238.743 120.425C239.431 120.275 240.145 120.265 240.838 120.395C241.531 120.524 242.187 120.791 242.762 121.176C243.337 121.562 243.818 122.058 244.173 122.631C244.529 123.205 244.751 123.843 244.824 124.503Z" fill="#FFB8B8"/>
<path d="M231.714 128.222L205.527 128.837C204.581 128.86 203.642 128.688 202.775 128.334C201.907 127.981 201.133 127.454 200.504 126.79C199.876 126.126 199.409 125.342 199.136 124.491C198.863 123.641 198.792 122.744 198.925 121.865C199.135 120.487 199.839 119.218 200.921 118.267L213.25 107.432C215.537 105.422 218.386 104.067 221.464 103.525L225.785 102.764L228.326 120.797L213.646 119.206L230.867 121.062L231.714 128.222Z" fill="#FFC563"/>
<path d="M454.046 197.78V206.138C454.046 206.138 452.59 208.682 447.575 208.797C446.966 208.831 446.361 208.686 445.843 208.383C445.326 208.08 444.921 207.633 444.686 207.104C443.987 205.773 443.906 203.907 443.977 202.469C444.013 201.75 444.094 201.034 444.22 200.324L454.046 197.78Z" fill="#3F3D56"/>
<path opacity="0.1" d="M455.202 177.61L440.176 192.749C437.542 187.917 436.41 178.221 435.931 170.036C438.73 167.847 441.431 165.963 443.476 165.054C443.476 165.054 450.394 160.352 451.853 158.097C452.626 162.589 454.076 170.793 454.694 172.753C454.897 173.397 455.066 175.206 455.202 177.61Z" fill="black"/>
<path d="M455.771 199.399L443.152 202.034L440.997 194.029C440.689 193.623 440.414 193.195 440.176 192.749C440.036 192.494 439.901 192.223 439.771 191.941C437.422 186.892 436.377 177.786 435.931 170.039C435.908 169.647 435.885 169.257 435.866 168.875C435.504 161.866 435.604 156.243 435.604 156.243C435.604 156.243 437.115 149.352 435.604 146.72C434.439 144.69 434.044 141.638 433.925 140.338C433.892 139.952 433.879 139.73 433.879 139.73L434.112 139.155L435.063 136.791H445.527L451.61 141.626L452.535 142.362L452.432 142.97C452.17 144.471 451.477 148.441 451.137 150.38C450.894 151.965 450.968 153.579 451.354 155.139C451.354 155.139 451.48 155.911 451.678 157.136C451.726 157.44 451.781 157.762 451.843 158.112C452.616 162.604 454.066 170.808 454.684 172.768C454.855 173.306 455.007 174.655 455.12 176.482C455.146 176.847 455.169 177.227 455.192 177.625C455.645 185.412 455.771 199.399 455.771 199.399Z" fill="#514E7F"/>
<path d="M533.856 88.7648C530.53 92.0079 526.971 85.9777 524.819 81.2149C523.613 78.5342 522.855 76.2516 522.855 76.2516L531.708 72.7319C531.708 72.7319 532.251 73.5435 532.934 74.8291C534.769 78.2637 537.625 85.078 533.856 88.7648Z" fill="#A1616A"/>
<path d="M468.321 41.2864C468.179 44.2952 468.419 47.3093 469.036 50.2648C469.036 50.2648 451.027 52.0884 452.645 49.4563C453.593 47.9123 454.208 43.8365 454.551 40.7211C454.8 38.5145 454.91 36.7911 454.91 36.7911C454.91 36.7911 472.165 30.3081 469.576 35.779C468.803 37.4111 468.444 39.3442 468.321 41.2864Z" fill="#A1616A"/>
<path d="M431.76 199.521C430.346 202.181 432.53 204.649 432.53 204.649C433.015 206.19 433.019 207.132 432.802 207.688C432.352 208.87 430.951 208.436 430.951 208.436C426.544 207.98 423.875 196.813 425.008 195.534C426.14 194.254 424.318 191.315 424.318 191.315L421.934 192.187L419.75 185.883L421.128 184.288L422.911 182.227L424.118 180.829L436.17 192.643C436.17 192.643 435.656 193.369 434.947 194.412C433.957 195.874 432.588 197.971 431.76 199.521Z" fill="#3F3D56"/>
<path opacity="0.1" d="M455.143 176.467L439.784 191.941C437.422 186.892 436.377 177.786 435.93 170.039C435.908 169.647 435.885 169.258 435.866 168.875C438.69 166.662 441.424 164.759 443.476 163.841C443.476 163.841 449.93 159.455 451.687 157.124C451.736 157.428 451.791 157.75 451.852 158.1C452.626 162.592 454.075 170.796 454.693 172.756C454.865 173.291 455.007 174.64 455.143 176.467Z" fill="black"/>
<path d="M475.183 149.246C474.323 152.389 474.323 156.136 474.323 156.136C474.323 156.136 474.213 162.923 467.095 165.559L466.244 165.863L436.801 195.536C436.801 195.536 425.907 182.163 422.348 181.351C422.348 181.351 436.691 167.47 443.485 164.431C443.485 164.431 451.684 158.86 452.114 156.936C452.545 155.012 454.92 153.997 454.92 153.997C454.92 153.997 453.085 147.514 453.839 145.891C454.253 144.899 454.333 143.811 454.069 142.775C453.868 142.167 453.48 141.806 452.875 142.125C452.758 142.187 452.649 142.261 452.551 142.347L433.895 139.711V130.706C433.895 130.706 429.366 125.742 430.013 119.664C430.66 113.585 429.256 113.788 429.256 113.788C429.256 113.788 429.324 103.521 430.246 102.664C431.168 101.807 440.027 97.8801 440.027 97.8801L467.8 102.515L468.945 107.506C468.945 107.506 469.916 111.475 471.534 113.238C473.152 115.001 471.534 117.126 471.534 117.126C471.534 117.126 472.074 121.685 473.692 125.742C475.31 129.8 476.047 146.106 475.183 149.246Z" fill="#514E7F"/>
<path opacity="0.1" d="M469.576 35.779C468.803 37.4111 468.444 39.3564 468.321 41.2864C466.383 42.8629 463.877 43.6828 461.316 43.5777C458.755 43.4726 456.334 42.4504 454.551 40.7211C454.8 38.5144 454.91 36.7911 454.91 36.7911C454.91 36.7911 472.165 30.3081 469.576 35.779Z" fill="black"/>
<path opacity="0.1" d="M471.505 31.6516C471.285 31.5817 471.065 31.4996 470.858 31.4176C470.117 31.1349 469.337 30.8097 468.888 30.2018C468.477 29.6365 468.344 28.8401 467.703 28.518C466.966 28.1472 466.086 28.6487 465.286 28.8219C464.335 29.0316 463.345 28.7824 462.42 28.4633C461.041 27.9861 459.116 27.1077 457.702 28.0165C456.602 28.7216 457.029 30.217 456.748 31.2838C456.311 32.9403 454.438 34.0193 454.085 35.694C453.927 36.4326 454.03 37.3353 453.393 37.7942C453.207 37.9188 452.995 38.0058 452.771 38.0495C452.147 36.8612 451.796 35.5624 451.742 34.2381C451.688 32.9137 451.932 31.5935 452.458 30.3638C452.984 29.134 453.781 28.0224 454.795 27.1015C455.81 26.1805 457.02 25.4711 458.346 25.0194C459.673 24.5677 461.086 24.384 462.493 24.4802C463.9 24.5764 465.27 24.9504 466.512 25.5778C467.755 26.2051 468.843 27.0717 469.705 28.121C470.567 29.1702 471.184 30.3784 471.515 31.6668L471.505 31.6516Z" fill="black"/>
<path d="M471.783 33.8732C471.782 36.2757 470.803 38.5868 469.048 40.3341C467.293 42.0814 464.893 43.1329 462.34 43.2735C459.787 43.4141 457.273 42.6333 455.313 41.0907C453.352 39.5481 452.093 37.3602 451.793 34.9744C451.492 32.5886 452.173 30.1851 453.696 28.2553C455.22 26.3255 457.47 25.0153 459.988 24.5924C462.505 24.1696 465.1 24.6661 467.24 25.9805C469.381 27.2948 470.907 29.3278 471.505 31.6636C471.69 32.3872 471.784 33.1289 471.783 33.8732Z" fill="#A1616A"/>
<path d="M475.507 79.0387C475.184 79.522 474.695 81.0234 474.148 83.1024C473.766 84.5491 473.352 86.2725 472.928 88.1265C471.02 96.494 468.929 107.509 468.929 107.509C468.929 107.509 468.797 107.138 467.862 107.01C467.105 106.907 465.817 106.965 463.656 107.509C458.802 108.725 436.367 99.7067 436.367 99.7067L437.014 96.9712L440.573 81.7742C440.573 81.7742 455.567 45.7055 455.997 46.1128C456.259 46.359 459.061 47.6325 461.197 48.5778C462.559 49.1856 463.656 49.6567 463.656 49.6567L468.185 46.2952L468.434 46.1098L474.016 53.0001C474.016 53.0001 477.125 76.7075 475.507 79.0387Z" fill="#3F3D56"/>
<path d="M457.712 53.204C458.359 55.5413 456.851 59.3831 456.851 59.3831C456.851 59.3831 451.674 71.3402 450.163 76.8658C448.652 82.3915 440.01 93.5279 440.01 93.5279C440.01 93.5279 438.742 94.7224 436.966 96.3849C436.756 96.5825 436.536 96.7861 436.319 96.9928C432.85 100.236 427.974 104.783 426.45 106.111C426.227 106.309 426.075 106.436 426.01 106.479C425.873 106.566 425.719 106.629 425.557 106.664C424.561 106.919 422.597 106.734 419.863 106.479C416.627 106.175 419.326 99.8954 419.326 99.8954L420.177 99.0717L420.953 98.318L429.767 89.7985L430.414 89.1572L433.109 86.5463L434.481 72.9906L434.513 72.6654C434.513 72.6654 434.112 71.8052 433.494 70.4922C431.847 66.9391 428.612 60.0822 427.428 57.8665C427.292 57.6081 427.185 57.4167 427.104 57.2981C427.104 57.2829 427.088 57.2677 427.078 57.2556C426.214 55.9395 428.586 56.0398 428.586 56.0398C428.586 56.0398 430.961 55.4319 430.527 54.5201C430.094 53.6083 433.332 53.0004 433.226 51.6843C433.119 50.3683 435.167 50.1646 435.167 50.1646C435.167 50.1646 438.079 51.0764 437.755 50.1646C437.432 49.2528 442.285 48.7452 442.285 48.7452C442.285 48.7452 444.657 49.8607 445.951 48.7452C447.245 47.6298 452.555 47.6328 452.555 47.6328C452.555 47.6328 451.471 43.7819 452.555 42.6664C453.638 41.5509 461.766 47.6328 461.766 47.6328C461.766 47.6328 457.065 50.8698 457.712 53.204Z" fill="#464353"/>
<path d="M430.751 104.467C430.751 104.467 439.703 116.32 445.958 112.473C452.212 108.625 437.545 98.5916 437.545 98.5916L430.751 104.467Z" fill="#A1616A"/>
<path d="M468.273 42.5295C468.273 42.5295 473.851 46.9215 475.973 47.0218C475.973 47.0218 475.4 49.4533 473.029 50.4685C473.029 50.4685 478.853 51.1919 481.011 50.8788C483.169 50.5657 486.941 51.0764 487.695 52.0946C488.449 53.1128 490.086 54.4197 491.381 54.6203C492.675 54.8209 494.082 56.0397 494.082 56.0397L484.586 69.2095C484.586 69.2095 481.134 77.3156 481.888 79.1392C482.641 80.9629 481.778 91.1965 481.185 91.7011C480.593 92.2056 482.211 112.573 485.123 112.573C485.123 112.573 477.144 117.639 474.769 116.12C472.395 114.6 477.791 98.1872 475.417 94.4366C473.042 90.6859 472.505 76.8627 472.505 76.8627C472.505 76.8627 468.622 60.5988 469.379 57.2555C470.136 53.9121 468.273 42.5295 468.273 42.5295Z" fill="#464353"/>
<path d="M488.792 55.4316L494.082 56.0395C494.082 56.0395 495.7 58.0668 497.205 58.0668C498.709 58.0668 499.9 59.8905 499.9 59.8905C499.9 59.8905 502.058 61.0029 503.459 60.6989C504.86 60.395 510.684 59.8935 511.548 60.7536C512.411 61.6138 518.019 62.4223 518.019 62.4223C518.019 62.4223 520.177 65.562 522.118 65.562C524.059 65.562 534.843 72.9599 535.167 75.592C535.167 75.592 524.49 69.2093 524.383 83.2422C524.383 83.2422 519.853 79.443 519.096 77.823C518.339 76.203 511.331 76.8625 511.331 76.8625C511.331 76.8625 506.587 74.8839 505.83 73.5678C505.073 72.2517 500.654 75.665 499.253 74.665C497.852 73.665 485.123 68.4616 485.123 68.4616L481.186 61.5105L488.792 55.4316Z" fill="#464353"/>
<path d="M462.413 27.8461C463.329 28.1652 464.325 28.4144 465.28 28.2017C466.092 28.0223 466.956 27.5208 467.694 27.8977C468.341 28.2229 468.47 29.0162 468.878 29.5816C469.327 30.1894 470.107 30.5299 470.851 30.7973C471.406 31.0404 472 31.1965 472.608 31.2593C472.913 31.2873 473.22 31.2489 473.506 31.1472C473.792 31.0455 474.05 30.8831 474.258 30.6727C474.834 30.0192 474.66 29.0406 474.317 28.2594C473.974 27.4783 473.488 26.7002 473.524 25.8553C473.566 24.8522 474.339 23.9799 474.404 22.98C474.488 21.7125 473.398 20.6062 472.162 20.0925C471.055 19.6336 469.79 19.5059 468.777 18.8768C467.622 18.1656 466.988 16.9315 466.134 15.9103C464.892 14.424 462.947 13.3147 460.957 13.5274C459.731 13.6581 458.618 14.2599 457.398 14.4939C455.544 14.8556 453.583 14.3298 451.739 14.7341C451.294 14.7999 450.886 15.0095 450.587 15.3267C450.134 15.8982 450.367 16.6975 450.568 17.3844C450.927 18.6215 451.079 20.0226 450.364 21.1107C449.555 22.3417 447.837 22.8614 447.09 24.1258C446.874 24.4967 446.754 24.9105 446.741 25.3332C446.728 25.7559 446.822 26.1754 447.015 26.5574C447.371 27.2564 448.06 27.8248 448.167 28.5938C448.242 29.1469 447.999 29.6849 447.873 30.2259C447.747 30.7669 447.782 31.4417 448.258 31.7456C448.733 32.0496 449.4 31.9736 449.766 32.3535C449.876 32.5044 449.949 32.6768 449.979 32.8578C450.008 33.0389 449.994 33.2239 449.937 33.3991C449.808 34.0069 449.533 34.5571 449.387 35.1528C449.294 35.445 449.268 35.7525 449.311 36.0549C449.354 36.3573 449.465 36.6476 449.636 36.9065C450.264 37.7029 451.532 37.6542 452.548 37.4415C452.841 37.3977 453.121 37.2939 453.367 37.1375C454.014 36.6786 453.901 35.7759 454.059 35.0373C454.412 33.3656 456.285 32.2806 456.722 30.6271C457.003 29.5603 456.576 28.0619 457.676 27.3567C459.106 26.4905 461.035 27.3689 462.413 27.8461Z" fill="#464353"/>
<path opacity="0.1" d="M460.841 137.8C460.841 137.8 470.997 143.879 471.321 146.21L460.841 137.8Z" fill="black"/>
<path opacity="0.1" d="M460.32 142.663C460.32 142.663 471.967 147.93 471.32 149.754L460.32 142.663Z" fill="black"/>
<path opacity="0.1" d="M459.546 147.322C459.546 147.322 466.127 150.565 466.558 152.489L459.546 147.322Z" fill="black"/>
<path opacity="0.1" d="M462.352 154.617C462.352 154.617 466.665 158.164 467.529 157.252C468.392 156.34 462.352 154.617 462.352 154.617Z" fill="black"/>
<path opacity="0.1" d="M456.311 156.848C456.311 156.848 459.673 161.912 458.055 162.216C456.437 162.519 456.311 156.848 456.311 156.848Z" fill="black"/>
<path opacity="0.1" d="M503.442 64.9543C503.442 64.9543 499.883 68.8873 500.53 71.0332L503.442 64.9543Z" fill="black"/>
<path opacity="0.1" d="M512.735 66.8813C512.735 66.8813 507.393 71.3371 508.176 71.8447L512.735 66.8813Z" fill="black"/>
<path opacity="0.1" d="M436.312 97.0017C432.844 100.245 427.968 104.792 426.444 106.12C426.221 106.318 426.069 106.445 426.004 106.488C425.866 106.575 425.713 106.638 425.551 106.673C424.027 104.57 421.853 101.54 420.17 99.0746L420.947 98.3208L429.767 89.7983L430.857 90.9016C430.857 90.9016 434.203 94.0414 434.203 94.6492C434.203 94.941 435.248 95.9987 436.312 97.0017Z" fill="black"/>
<path opacity="0.1" d="M516.061 72.355C516.061 72.355 515.521 75.285 516.384 75.3944L516.061 72.355Z" fill="black"/>
<path opacity="0.1" d="M439.81 98.9987C435.928 99.5032 428.703 109.229 428.703 109.229C428.703 109.229 427.755 107.935 426.438 106.126C424.781 103.831 422.555 100.704 420.938 98.333L430.418 89.1479L432.142 90.8926C432.142 90.8926 435.488 94.0323 435.488 94.6402C435.488 94.8772 436.135 95.5976 436.957 96.3848C438.215 97.6097 439.81 98.9987 439.81 98.9987Z" fill="black"/>
<path opacity="0.05" d="M457.767 134.174C456.392 135.845 456.392 138.809 455.771 140.025C455.431 140.693 454.674 141.848 454.059 142.784C453.858 142.176 453.47 141.815 452.865 142.134C452.467 139.347 451.765 134.535 451.539 133.566C451.215 132.198 454.774 128.551 454.774 128.551C454.774 128.551 458.252 129.235 459.142 130.906C460.032 132.578 459.142 132.505 457.767 134.174Z" fill="black"/>
<path d="M431.938 57.5593L427.085 57.2554C427.085 57.2554 425.79 60.0911 424.713 60.2948C423.636 60.4984 422.231 62.8266 422.231 62.8266C422.231 62.8266 418.077 63.5378 418.258 64.7536C418.439 65.9694 411.871 74.6651 411.871 74.6651C411.871 74.6651 409.713 78.8352 411.224 81.8746C412.735 84.914 413.813 86.9413 414.136 88.0537C414.46 89.1661 418.29 94.0322 418.258 94.944C418.226 95.8558 428.049 109.229 428.049 109.229C428.049 109.229 435.274 99.5031 439.156 98.9956C439.156 98.9956 434.843 95.248 434.843 94.6401C434.843 94.0322 431.524 90.8925 431.524 90.8925L427.318 86.6373C427.318 86.6373 425.913 86.0294 427.318 84.914C428.722 83.7985 424.946 81.2667 424.946 81.2667C424.946 81.2667 424.836 79.443 426.24 78.9355C427.644 78.4279 429.476 75.0876 429.476 75.0876L434.546 72.6561L431.938 57.5593Z" fill="#464353"/>
<path d="M467.574 42.9672L468.273 42.5295L470.243 46.4352L469.486 47.271H467.195C467.195 47.271 467.276 45.1434 467.331 45.0674C467.386 44.9915 467.574 42.9672 467.574 42.9672Z" fill="#464353"/>
<path opacity="0.1" d="M454.046 197.78V200.366L443.977 202.469C444.013 201.75 444.094 201.034 444.22 200.324L454.046 197.78Z" fill="black"/>
<path opacity="0.1" d="M478.529 110.287L473.705 111.035L467.418 112.007L467.862 107.053L469.842 84.8563L472.362 83.8533L474.148 83.1452L477.235 81.9172L476.588 87.8957L478.529 110.287Z" fill="black"/>
<path opacity="0.1" d="M451.61 141.623L434.112 139.152L435.063 136.788H445.527L451.61 141.623Z" fill="black"/>
<path opacity="0.1" d="M436.17 192.649C436.17 192.649 435.655 193.375 434.947 194.418C432.374 191.363 426.276 184.33 422.911 182.233L424.117 180.835L436.17 192.649Z" fill="black"/>
<path opacity="0.1" d="M463.646 49.0489C463.646 49.0489 456.437 45.9092 455.987 45.502C455.538 45.0947 440.583 81.1664 440.583 81.1664L436.377 99.0989C436.377 99.0989 458.809 108.114 463.662 106.898C468.515 105.682 468.946 106.898 468.946 106.898C468.946 106.898 473.909 80.7591 475.527 78.4309C477.144 76.1027 474.016 52.3923 474.016 52.3923L468.409 45.4989L463.646 49.0489Z" fill="black"/>
<path opacity="0.1" d="M458.359 53.2041C459.006 55.5414 457.498 59.3832 457.498 59.3832C457.498 59.3832 452.321 71.3402 450.811 76.8659C449.3 82.3915 440.658 93.5279 440.658 93.5279C440.658 93.5279 439.389 94.7224 437.613 96.3849C437.416 96.5703 437.208 96.7618 437.001 96.9624L440.56 81.7654C440.56 81.7654 455.554 45.6967 455.984 46.104C456.246 46.3502 459.048 47.6237 461.184 48.569C459.847 49.7118 457.929 51.657 458.359 53.2041Z" fill="black"/>
<path opacity="0.1" d="M430.751 105.074C430.751 105.074 439.703 116.928 445.958 113.08C452.212 109.232 437.545 99.1992 437.545 99.1992L430.751 105.074Z" fill="black"/>
<path opacity="0.1" d="M473.705 110.992C474.388 105.397 476.368 96.9898 474.753 94.4398C473.954 93.1754 473.362 90.7651 472.928 88.1269C472.695 86.7075 472.511 85.2212 472.362 83.8109C471.967 80.0694 471.841 76.8659 471.841 76.8659C471.841 76.8659 467.959 60.599 468.713 57.2556C469.185 55.1645 468.641 49.9246 468.169 46.2955L468.418 46.1101L473.999 53.0004C473.999 53.0004 477.125 76.7078 475.507 79.0391C475.184 79.5223 474.695 81.0238 474.148 83.1028L477.235 81.887L476.588 87.8655L478.529 110.257L473.705 110.992Z" fill="black"/>
<path d="M464.399 67.7415C464.905 67.7415 465.315 67.3564 465.315 66.8814C465.315 66.4063 464.905 66.0212 464.399 66.0212C463.894 66.0212 463.484 66.4063 463.484 66.8814C463.484 67.3564 463.894 67.7415 464.399 67.7415Z" fill="#3F3D56"/>
<path d="M463.484 85.7013C463.99 85.7013 464.4 85.3162 464.4 84.8411C464.4 84.3661 463.99 83.981 463.484 83.981C462.978 83.981 462.568 84.3661 462.568 84.8411C462.568 85.3162 462.978 85.7013 463.484 85.7013Z" fill="#3F3D56"/>
<path d="M464.399 76.2489C464.905 76.2489 465.315 75.8638 465.315 75.3887C465.315 74.9137 464.905 74.5286 464.399 74.5286C463.894 74.5286 463.484 74.9137 463.484 75.3887C463.484 75.8638 463.894 76.2489 464.399 76.2489Z" fill="#3F3D56"/>
<path d="M461.757 95.1539C462.262 95.1539 462.672 94.7688 462.672 94.2937C462.672 93.8187 462.262 93.4336 461.757 93.4336C461.251 93.4336 460.841 93.8187 460.841 94.2937C460.841 94.7688 461.251 95.1539 461.757 95.1539Z" fill="#3F3D56"/>
<path opacity="0.1" d="M432.818 207.703C432.368 208.885 430.967 208.451 430.967 208.451C426.561 207.995 423.891 196.828 425.024 195.548C426.156 194.269 424.318 191.314 424.318 191.314L421.934 192.187L419.75 185.883L421.128 184.287C422.5 186.521 424.464 189.734 424.927 190.555C425.805 192.256 426.222 194.136 426.14 196.026C426.066 198.001 428.505 207.448 432.818 207.703Z" fill="black"/>
<g opacity="0.1">
<path opacity="0.1" d="M450.859 18.98C450.888 18.2436 450.79 17.5076 450.568 16.8007C450.475 16.5018 450.403 16.1971 450.355 15.8889C450.313 16.4039 450.386 16.9214 450.568 17.4086C450.722 17.9218 450.819 18.4483 450.859 18.98Z" fill="black"/>
<path opacity="0.1" d="M473.55 25.6666C473.676 24.7547 474.343 23.925 474.404 22.9919C474.414 22.8367 474.408 22.6809 474.385 22.5269C474.259 23.4691 473.563 24.3049 473.524 25.2623C473.52 25.3975 473.529 25.5328 473.55 25.6666Z" fill="black"/>
<path opacity="0.1" d="M474.259 30.0739C474.05 30.2843 473.793 30.4467 473.506 30.5484C473.22 30.6502 472.913 30.6885 472.608 30.6605C472 30.5977 471.406 30.4416 470.852 30.1985C470.107 29.9159 469.328 29.5907 468.878 28.9828C468.467 28.4174 468.334 27.6242 467.694 27.2989C466.956 26.9281 466.076 27.4296 465.277 27.6029C464.326 27.8156 463.335 27.5664 462.413 27.2473C461.035 26.7701 459.107 25.8917 457.693 26.7974C456.593 27.5026 457.02 29.001 456.738 30.0678C456.301 31.7213 454.428 32.8033 454.075 34.478C453.917 35.2166 454.02 36.1193 453.383 36.5783C453.136 36.7351 452.856 36.8389 452.561 36.8822C451.532 37.095 450.264 37.1436 449.649 36.3473C449.472 36.1197 449.36 35.8526 449.326 35.5722C449.242 36.0551 449.358 36.5497 449.649 36.9551C450.277 37.7515 451.545 37.7028 452.561 37.4901C452.856 37.4468 453.136 37.343 453.383 37.1861C454.03 36.7272 453.917 35.8245 454.075 35.0859C454.428 33.4142 456.301 32.3292 456.738 30.6757C457.02 29.6089 456.593 28.1105 457.693 27.4053C459.107 26.4935 461.035 27.378 462.413 27.8552C463.329 28.1743 464.326 28.4235 465.277 28.2108C466.092 28.0314 466.956 27.5299 467.694 27.9068C468.341 28.232 468.467 29.0253 468.878 29.5907C469.328 30.1985 470.107 30.539 470.852 30.8064C471.406 31.0495 472 31.2055 472.608 31.2684C472.913 31.2964 473.22 31.258 473.506 31.1563C473.793 31.0546 474.05 30.8922 474.259 30.6818C474.416 30.4842 474.528 30.2584 474.588 30.0184C474.648 29.7784 474.655 29.5293 474.608 29.2867C474.574 29.5751 474.453 29.8482 474.259 30.0739Z" fill="black"/>
<path opacity="0.1" d="M448.167 27.998C448.061 27.229 447.372 26.6606 447.016 25.9616C446.882 25.6983 446.797 25.4157 446.763 25.1257C446.701 25.6197 446.789 26.12 447.016 26.5695C447.362 27.2472 448.015 27.8065 448.151 28.539C448.184 28.3603 448.19 28.1781 448.167 27.998Z" fill="black"/>
<path opacity="0.1" d="M449.966 32.7454C450.013 32.5819 450.02 32.4109 449.988 32.2444C449.956 32.0779 449.886 31.9201 449.782 31.7819C449.416 31.3899 448.721 31.478 448.274 31.1741C448.156 31.0861 448.057 30.9768 447.985 30.8526C447.912 30.7284 447.866 30.5917 447.85 30.4507C447.779 30.9461 447.85 31.4932 448.274 31.7819C448.698 32.0707 449.416 32.0099 449.782 32.3898C449.873 32.4927 449.936 32.6147 449.966 32.7454Z" fill="black"/>
</g>
<path opacity="0.1" d="M454.046 206.052V206.138C454.046 206.138 452.59 208.682 447.575 208.797C446.966 208.831 446.361 208.686 445.843 208.383C445.326 208.08 444.921 207.633 444.686 207.104C446.934 207.624 450.584 207.958 454.046 206.052Z" fill="black"/>
<path d="M469.842 84.8136L467.422 111.965L478.529 110.244L476.588 87.853L477.235 81.8745L469.842 84.8136Z" fill="#464353"/>
<path opacity="0.1" d="M463.646 50.2648C463.646 50.2648 456.437 47.1251 455.987 46.7178C455.538 46.3105 440.583 82.3822 440.583 82.3822L436.377 100.315C436.377 100.315 458.809 109.33 463.662 108.114C468.515 106.898 468.946 108.114 468.946 108.114C468.946 108.114 473.909 81.9749 475.527 79.6467C477.144 77.3185 474.016 53.6081 474.016 53.6081L468.409 46.7147L463.646 50.2648Z" fill="black"/>
<path opacity="0.1" d="M441.554 66.8813C441.554 66.8813 435.837 70.1214 437.561 70.9329C439.286 71.7444 441.554 66.8813 441.554 66.8813Z" fill="black"/>
<path opacity="0.1" d="M441.554 54.9241C441.554 54.9241 435.73 64.9541 438.425 64.2459C441.12 63.5377 441.554 54.9241 441.554 54.9241Z" fill="black"/>
<path opacity="0.1" d="M427.427 57.8665C427.291 57.6081 427.185 57.4166 427.104 57.2981L431.284 57.5595L433.5 70.483C431.847 66.9391 428.611 60.0822 427.427 57.8665Z" fill="black"/>
<path opacity="0.1" d="M413.405 77.7197C413.405 77.7197 419.229 76.6073 419.335 77.3154C419.442 78.0236 413.405 77.7197 413.405 77.7197Z" fill="black"/>
<path opacity="0.1" d="M418.259 83.2424C418.259 83.2424 423.196 83.8503 422.979 84.8412C422.762 85.832 418.259 83.2424 418.259 83.2424Z" fill="black"/>
<path opacity="0.1" d="M422.338 66.0181C422.338 66.0181 427.085 72.3309 427.732 71.024L422.338 66.0181Z" fill="black"/>
<path d="M86.0908 109.857C85.6011 110.254 85.0231 110.543 84.3992 110.702C83.7752 110.862 83.1211 110.889 82.4848 110.78C81.8485 110.672 81.2461 110.431 80.7218 110.075C80.1975 109.719 79.7645 109.258 79.4547 108.725L74.8832 100.857L78.3404 98.1648L85.8768 103.528C86.3918 103.895 86.813 104.365 87.1097 104.904C87.4064 105.443 87.5711 106.038 87.5916 106.645C87.6121 107.251 87.488 107.855 87.2283 108.41C86.9686 108.966 86.58 109.46 86.0908 109.857Z" fill="#FFB9B9"/>
<path d="M24.5988 184.625H17.3661L16.6772 125.093H31.1427L24.5988 184.625Z" fill="#FFB9B9"/>
<path d="M42.5084 187.86H35.2757L34.5869 124.446L49.0523 123.799L42.5084 187.86Z" fill="#FFB9B9"/>
<path d="M34.587 32.5603C28.6903 32.5603 23.9101 28.0698 23.9101 22.5305C23.9101 16.9912 28.6903 12.5007 34.587 12.5007C40.4837 12.5007 45.2639 16.9912 45.2639 22.5305C45.2639 28.0698 40.4837 32.5603 34.587 32.5603Z" fill="#FFB9B9"/>
<path d="M40.0972 40.3252L21.8432 35.472C25.9256 33.9802 27.5015 31.378 26.665 27.707H38.7196C37.1699 33.2371 37.1636 37.7499 40.0972 40.3252Z" fill="#FFB9B9"/>
<path d="M24.2544 95.0035L20.8102 103.416L17.3661 98.5625L21.8435 94.3564L24.2544 95.0035Z" fill="#FFB9B9"/>
<path d="M44.8322 18.9543C40.6808 16.4515 36.5409 15.6271 32.4116 16.3313C31.1555 16.5515 29.961 17.0117 28.9021 17.6835C27.8432 18.3554 26.9426 19.2244 26.256 20.2367C25.5695 21.249 25.1117 22.3831 24.911 23.5685C24.7103 24.7539 24.771 25.9655 25.0893 27.1279C25.0979 27.1592 25.1066 27.1906 25.1152 27.222L24.498 26.1324C22.8612 23.2429 22.3027 19.9215 22.9117 16.6988C23.3793 14.224 24.7867 11.9926 26.8727 10.4186C28.9586 8.84457 31.5815 8.03475 34.2548 8.13938L36.578 8.23029C39.2507 8.33491 41.7941 9.33988 43.7429 11.0614C45.6917 12.7829 46.9156 15.1059 47.1909 17.6056C47.22 17.8755 47.1672 18.1477 47.0386 18.3906C46.91 18.6335 46.7108 18.8373 46.4641 18.9784C46.2174 19.1195 45.9332 19.1921 45.6444 19.1878C45.3556 19.1835 45.074 19.1026 44.8322 18.9543Z" fill="#2F2E41"/>
<path d="M80.7386 98.8862L75.4002 102.93L46.2971 81.7385L48.0192 44.8547C49.656 46.0848 51.0169 47.6075 52.0232 49.3348C53.0295 51.062 53.6613 52.9596 53.882 54.9177L58.8683 75.7529L80.7386 98.8862Z" fill="#235067"/>
<path d="M51.8076 130.27L33.898 130.917L33.2092 127.358L32.1759 132.211L15.644 131.564C15.6468 115.828 16.0042 98.4408 13.9219 92.4155L52.152 95.9745C55.1629 108.166 55.5339 119.716 51.8076 130.27Z" fill="#2F2E41"/>
<path d="M20.4341 200.155C16.568 200.155 13.537 201.565 13.8891 197.948L14.8904 185.719C14.9098 185.201 15.089 184.7 15.4063 184.276C15.7236 183.852 16.1653 183.523 16.6776 183.331C19.4329 180.297 22.1882 179.973 24.9435 182.36C25.8394 183.412 26.3617 184.702 26.4371 186.047L26.9977 198.192C27.1917 201.723 24.197 200.155 20.4341 200.155Z" fill="#2F2E41"/>
<path d="M55.7395 200.326L37.3575 199.869C36.5964 199.77 35.9011 199.41 35.4054 198.858C34.9096 198.307 34.6482 197.603 34.6715 196.881L34.3252 188.443C34.303 188.027 34.4545 187.62 34.7473 187.307C35.0402 186.995 35.4513 186.802 35.8931 186.77L38.7198 186.566C39.055 183.677 40.9275 182.976 43.5416 183.331L51.8076 192.066L57.2545 193.499C58.1278 193.729 58.8818 194.25 59.3746 194.966C59.8674 195.681 60.0652 196.54 59.9306 197.383C59.7853 198.293 59.2637 199.113 58.479 199.664C57.6943 200.215 56.7099 200.453 55.7395 200.326Z" fill="#2F2E41"/>
<path d="M53.1851 100.18C42.8834 101.417 33.392 97.6702 24.4264 94.842C20.3789 93.5652 16.3015 94.8981 12.5441 92.7389C14.1689 77.705 12.5914 60.7704 9.13998 42.7239C8.94305 41.7022 9.14849 40.6482 9.71799 39.7584C10.2875 38.8686 11.1821 38.2038 12.235 37.8881L23.5654 34.5015L33.5534 37.7369L38.7197 38.7075L49.3579 45.4598C49.9788 45.8537 50.4653 46.4077 50.7591 47.0552C51.0528 47.7026 51.1412 48.416 51.0137 49.1096C47.8177 66.0817 48.5583 83.5018 53.1851 100.18Z" fill="#235067"/>
<path d="M22.5323 94.3566L17.7105 100.18L0.834171 76.5618L2.29378 52.5668C2.47968 49.5107 3.48541 46.5485 5.2174 43.9556C6.94939 41.3627 9.35135 39.2234 12.1999 37.7368L11.8554 74.6205L22.5323 94.3566Z" fill="#235067"/>
<path d="M353.54 24.0077C359.873 24.0077 365.007 19.1849 365.007 13.2357C365.007 7.28643 359.873 2.46362 353.54 2.46362C347.206 2.46362 342.073 7.28643 342.073 13.2357C342.073 19.1849 347.206 24.0077 353.54 24.0077Z" fill="#2F2E41"/>
<path d="M318.614 142.923L325.659 119.97L328.058 120.675C328.058 120.675 325.21 137.853 320.713 142.219L318.614 142.923Z" fill="#2F2E41"/>
<path d="M345.445 19.7128C345.445 19.7128 346.344 28.7247 344.246 31.2593C342.147 33.7939 345.595 38.7223 345.595 38.7223L351.891 45.7628L361.184 41.8201L362.533 34.4979L361.634 29.4288C361.634 29.4288 358.486 26.4717 359.835 21.1209C361.184 15.7701 345.445 19.7128 345.445 19.7128Z" fill="#FFB9B9"/>
<path opacity="0.1" d="M345.445 19.7128C345.445 19.7128 346.344 28.7247 344.246 31.2593C342.147 33.7939 345.595 38.7223 345.595 38.7223L351.891 45.7628L361.184 41.8201L362.533 34.4979L361.634 29.4288C361.634 29.4288 358.486 26.4717 359.835 21.1209C361.184 15.7701 345.445 19.7128 345.445 19.7128Z" fill="black"/>
<path d="M350.842 188.264V194.037L359.086 195.586L358.336 186.011L350.842 188.264Z" fill="#FFB9B9"/>
<path d="M375.575 186.011L373.776 194.037L377.373 196.431L383.669 192.066L382.919 185.166L375.575 186.011Z" fill="#FFB9B9"/>
<path d="M359.835 194.882C359.835 194.882 356.687 189.884 350.841 193.016C350.841 193.016 349.792 198.543 348.743 198.965C347.694 199.388 341.848 207.414 348.743 208.118C355.638 208.822 359.086 206.71 359.086 206.71C359.086 206.71 357.737 207.8 359.835 207.237C361.934 206.674 361.034 203.576 361.034 203.576L359.835 194.882Z" fill="#2F2E41"/>
<path d="M380.371 191.502C380.371 191.502 375.724 194.6 374.975 193.192C374.225 191.784 373.026 191.925 373.026 191.925C373.026 191.925 368.829 206.788 371.527 207.492C373.265 207.894 375.09 207.805 376.774 207.237C376.774 207.237 380.371 204.87 380.371 206.701C380.371 208.531 390.414 208.4 394.611 208.259C398.808 208.118 396.56 205.161 396.56 205.161L391.014 200.092L384.718 191.502C384.718 191.502 381.87 189.109 380.371 191.502Z" fill="#2F2E41"/>
<path d="M336.152 97.3001L342.447 154.047C342.447 154.047 345.895 188.686 346.495 189.25C347.094 189.813 350.991 191.643 359.535 189.25L357.587 143.909L361.184 115.746L369.429 135.178C369.429 135.178 371.377 187.419 372.726 187.419C374.075 187.419 382.32 189.954 384.268 186.856C386.217 183.758 385.917 150.386 385.917 150.386C385.917 150.386 385.018 97.7225 378.422 96.0328C371.827 94.343 336.152 97.3001 336.152 97.3001Z" fill="#2F2E41"/>
<path d="M353.54 24.9229C359.252 24.9229 363.882 20.5729 363.882 15.2069C363.882 9.84095 359.252 5.49097 353.54 5.49097C347.827 5.49097 343.197 9.84095 343.197 15.2069C343.197 20.5729 347.827 24.9229 353.54 24.9229Z" fill="#FFB9B9"/>
<path d="M354.139 42.2429C354.139 42.2429 353.09 36.188 353.09 35.0615C353.09 33.935 348.443 33.2309 348.443 33.2309C348.443 33.2309 344.846 29.4291 344.096 29.9923C343.347 30.5555 331.955 37.7369 330.156 38.7226C328.357 39.7082 326.408 43.9326 326.558 44.2142C326.708 44.4958 336.002 62.8013 336.002 62.8013C336.002 62.8013 340.049 74.0661 337.201 79.9802C334.353 85.8943 330.755 97.5816 336.002 99.9754C341.248 102.369 366.73 107.579 371.377 103.073C376.024 98.5673 379.322 97.3 380.521 97.3C381.72 97.3 375.574 77.7272 376.923 75.8967C378.272 74.0661 376.324 62.6605 376.324 62.6605L383.219 44.4958C383.219 44.4958 382.619 34.3574 368.979 32.1045L360.819 28.3877L354.139 42.2429Z" fill="#575A89"/>
<path d="M326.109 99.8346C326.109 99.8346 325.359 106.594 325.359 108.565C325.359 110.536 321.762 122.083 327.008 123.491C332.254 124.899 331.805 108.142 331.805 108.142V99.553L326.109 99.8346Z" fill="#FFB9B9"/>
<path d="M388.316 93.498C388.316 93.498 389.215 99.9754 388.765 101.383C388.316 102.792 393.112 115.042 386.667 115.746C380.221 116.45 381.87 101.102 381.87 101.102V93.4981L388.316 93.498Z" fill="#FFB9B9"/>
<path d="M324.76 140.67L329.107 118.985H330.456C331.399 120.127 332.018 121.476 332.254 122.905C332.49 124.333 332.335 125.795 331.805 127.152C330.006 131.939 328.507 140.67 328.507 140.67H324.76Z" fill="#2F2E41"/>
<path d="M328.807 42.5244L326.558 44.2142C326.558 44.2142 323.56 88.9921 324.31 92.3715C325.059 95.751 321.612 100.539 324.61 100.961C327.608 101.383 331.205 103.214 332.854 102.087C334.503 100.961 334.803 96.8775 335.402 95.8918C336.002 94.9061 337.051 83.2188 337.051 83.2188C337.051 83.2188 340.199 71.5315 338.25 62.8012C336.302 54.0709 334.503 45.1998 334.503 45.1998L328.807 42.5244Z" fill="#575A89"/>
<path d="M376.324 39.0039L383.219 44.4955L388.465 73.221C388.465 73.221 391.763 95.6099 389.215 95.8916C386.667 96.1732 382.769 95.4691 381.12 95.8916C379.472 96.314 378.122 95.1875 378.122 95.1875C378.122 95.1875 376.324 86.1756 376.324 86.0348C376.324 85.894 375.125 75.6148 375.125 75.6148L373.626 64.0683L375.874 51.3953L376.324 39.0039Z" fill="#575A89"/>
<path d="M343.797 171.93C343.797 171.93 342.822 174.558 341.479 178.138C340.856 179.802 340.153 181.674 339.429 183.582C338.962 184.815 338.489 186.064 338.023 187.284C337.279 189.234 336.557 191.107 335.925 192.715C335.092 194.837 334.416 196.5 334.053 197.276C332.404 200.796 302.275 195.163 299.877 193.755C297.479 192.347 296.879 187.56 296.579 180.801C296.578 180.765 296.576 180.73 296.576 180.695C296.537 179.331 296.908 177.299 297.527 174.915C297.835 173.723 298.207 172.445 298.621 171.117C299.176 169.336 299.805 167.469 300.463 165.61C303.29 157.626 306.622 149.822 306.622 149.822C306.622 149.822 312.468 146.02 314.567 143.486C316.665 140.951 328.207 138.98 328.207 138.98C331.505 139.121 339 151.089 341.998 154.751C344.996 158.412 343.797 171.93 343.797 171.93Z" fill="#3F3D56"/>
<path d="M327.008 150.527C327.753 150.527 328.357 149.959 328.357 149.259C328.357 148.559 327.753 147.992 327.008 147.992C326.263 147.992 325.659 148.559 325.659 149.259C325.659 149.959 326.263 150.527 327.008 150.527Z" fill="#2F2E41"/>
<path d="M329.107 151.371C329.521 151.371 329.856 151.056 329.856 150.667C329.856 150.278 329.521 149.963 329.107 149.963C328.693 149.963 328.357 150.278 328.357 150.667C328.357 151.056 328.693 151.371 329.107 151.371Z" fill="#2F2E41"/>
<path d="M341.479 178.138C340.855 179.802 340.152 181.674 339.428 183.582L298.621 171.117C299.176 169.336 299.805 167.469 300.463 165.61L341.479 178.138Z" fill="#F2F2F2"/>
<path d="M338.022 187.284C337.279 189.234 336.557 191.107 335.925 192.715L296.576 180.695C296.537 179.331 296.908 177.299 297.527 174.915L338.022 187.284Z" fill="#F2F2F2"/>
<path d="M327.008 149.541C327.008 149.541 330.006 161.932 328.208 172.915C326.409 183.899 332.704 194.178 332.704 194.178" stroke="#2F2E41" stroke-width="3" stroke-miterlimit="10"/>
<path d="M329.107 150.527C329.107 150.527 323.261 170.522 323.111 173.338C322.961 176.154 320.563 196.29 317.565 198.402" stroke="#2F2E41" stroke-width="3" stroke-miterlimit="10"/>
<path d="M345.599 9.27805C345.599 9.27805 343.258 3.55993 346.653 1.69055L347.589 4.21972C347.589 4.21972 356.134 -0.618692 358.358 0.480947L356.251 3.12008C356.251 3.12008 366.201 3.12008 366.904 6.7489L363.392 6.85886C363.392 6.85886 367.138 9.1681 367.255 12.9069L359.763 13.3467L363.392 15.3261C363.392 15.3261 349.813 17.0855 346.536 12.0272L345.599 9.27805Z" fill="#2F2E41"/>
<path d="M343.572 9.50429C343.572 9.50429 346.27 14.5735 349.867 13.3062C353.465 12.0389 349.867 7.39212 349.867 7.39212L347.469 6.26562L343.572 9.50429Z" fill="#2F2E41"/>
<path opacity="0.1" d="M645.102 96.5967L650.691 110.275L652.1 109.918L654.59 114.21L645.102 115.322V96.5967Z" fill="black"/>
<path opacity="0.1" d="M653.866 105.348H645.102L641.888 80.4885H653.866V105.348Z" fill="black"/>
<path d="M670.978 86.3777L669.093 86.075L664.744 85.3824C664.744 85.3824 651.689 82.6202 648.983 82.4004C647.351 82.1992 645.759 81.773 644.259 81.1355C643.553 80.8493 643.107 80.6295 643.107 80.6295L647.809 72.5629L655.102 67.4824C655.102 67.4824 659.716 66.5617 661.672 64.0401C662.105 63.4964 662.387 62.8597 662.493 62.1877C662.599 61.5157 662.524 60.8295 662.276 60.1913C661.084 56.72 669.384 63.5092 669.384 63.5092C669.384 63.5092 669.305 65.135 669.384 67.2087C669.384 67.6234 669.424 68.0381 669.455 68.4736C669.455 68.7598 669.504 69.0459 669.53 69.3362C669.733 71.4099 670.153 73.5126 670.969 74.7776C672.978 77.8673 670.978 86.3777 670.978 86.3777Z" fill="#714246"/>
<path d="M679.499 57.5371C679.499 58.7859 679.237 60.0225 678.728 61.1761C678.219 62.3296 677.472 63.3776 676.532 64.2601C675.591 65.1426 674.475 65.8422 673.246 66.319C672.017 66.7957 670.701 67.0403 669.371 67.0387C669.042 67.0402 668.714 67.025 668.387 66.993C666.439 66.8132 664.588 66.1061 663.06 64.9575C661.532 63.809 660.391 62.2683 659.777 60.5226C659.162 58.777 659.1 56.9013 659.599 55.1232C660.097 53.3451 661.134 51.7412 662.584 50.506C664.033 49.2708 665.834 48.4575 667.766 48.1648C669.698 47.8721 671.68 48.1126 673.469 48.8571C675.259 49.6015 676.78 50.818 677.848 52.3588C678.916 53.8996 679.485 55.6984 679.486 57.5371H679.499Z" fill="#714246"/>
<path d="M665.998 51.1295C666.301 51.2464 666.57 51.4282 666.784 51.6604C668.051 52.8465 669.336 54.0576 670.21 55.5216C671.084 56.9856 671.503 58.7773 670.938 60.374C670.294 62.1698 668.501 63.5011 668.104 65.3508C668.043 65.5445 668.027 65.7483 668.059 65.9481C668.09 66.148 668.167 66.339 668.285 66.5079C668.629 66.9019 669.265 66.9227 669.702 67.2254C669.963 67.441 670.15 67.724 670.24 68.039C670.331 68.354 670.32 68.687 670.21 68.9963C669.981 69.6115 669.669 70.1969 669.283 70.7382C668.338 72.3059 667.958 74.3506 668.96 75.8768C669.438 76.5015 670.008 77.06 670.651 77.5357C671.715 78.4269 672.7 79.3978 673.596 80.4389C674.368 81.3037 675.028 82.2518 675.561 83.2632C676.099 84.3208 676.444 85.4572 676.974 86.5148C678.232 89.0032 680.713 90.9566 683.596 91.4045C686.479 91.8524 689.653 90.5999 691.07 88.2027C692.139 86.3986 692.152 84.1923 691.728 82.1683C691.428 80.7251 690.92 79.2652 691.093 77.8261C691.288 76.7911 691.626 75.7844 692.099 74.8317C694.086 70.083 694.717 64.7329 693.176 59.839C692.935 58.9733 692.541 58.1517 692.011 57.4086C691.452 56.7572 690.835 56.1522 690.165 55.6004C688.059 53.6677 686.51 51.2789 684.867 48.9646C683.225 46.6504 681.459 44.3818 679.044 42.8017C676.629 41.2215 673.459 40.446 670.696 41.3916C667.804 42.3828 666.02 44.9168 664.016 46.9532C663.199 47.7826 661.618 48.8402 662.078 50.1632C662.727 52.0585 664.731 50.7563 665.998 51.1295Z" fill="#453034"/>
<path d="M673.389 201.832L671.623 202.927L671.353 203.097L671.3 203.13L669.212 204.428L664.334 205.199L660.038 204.921C660.038 204.921 658.806 202.495 660.744 202.549C661.364 202.518 661.968 202.355 662.51 202.072L662.775 201.944C663.053 201.803 663.336 201.645 663.614 201.483C664.188 201.143 664.735 200.77 665.172 200.451C665.817 199.986 666.245 199.621 666.245 199.621L673.389 201.832Z" fill="#714246"/>
<path d="M679.446 203.984C679.446 203.984 675.68 204.756 673.155 204.536C670.629 204.316 666.281 206.373 666.281 206.373C666.281 206.373 664.811 207.024 660.285 207.298C655.76 207.572 655.756 205.419 655.756 205.419C656.277 202.483 663.424 201.504 663.649 201.475C663.557 201.521 663.208 201.699 662.811 201.936C662.303 202.247 661.755 202.653 661.711 202.981C661.636 203.603 664.89 204.727 664.89 204.727L669.477 203.59C669.477 203.59 670.254 203.379 671.327 203.122L671.429 203.097C673.009 202.689 674.614 202.375 676.236 202.155C678.214 201.956 679.225 203.537 679.433 203.902L679.446 203.984Z" fill="#B07473"/>
<path d="M738.721 126.039L736.721 127.474C736.721 127.474 736.143 127.449 735.277 127.424H734.999C733.754 127.383 732.046 127.337 730.584 127.337C729.644 127.3 728.702 127.348 727.772 127.482C726.774 127.814 725.013 122.128 725.013 122.128L727.017 121.684L727.679 121.539L728.121 121.435L729.754 121.074L734.712 121.593L738.182 123.691L738.721 126.039Z" fill="#714246"/>
<path d="M742.659 127.54C741.449 128.594 733.533 127.54 733.198 127.516C733.799 127.578 734.408 127.538 734.995 127.399C735.282 127.349 735.554 127.238 735.791 127.077C736.027 126.916 736.223 126.707 736.363 126.466C737.657 123.094 731.246 121.659 731.246 121.659L728.262 121.535H727.684L720.43 121.236L720.077 119.358C720.077 119.358 722.434 119.573 726.134 119.847C728.218 120.005 730.73 120.183 733.485 120.353C741.131 120.83 742.95 125.492 742.95 125.492C742.95 125.492 743.895 126.483 742.659 127.54Z" fill="#B07473"/>
<path d="M653.861 46.1982C653.811 46.2998 653.753 46.3982 653.689 46.4926L651.923 48.923L647.336 49.3667L647.287 47.658L646.515 21.9652C646.515 21.9652 643.34 4.72876 649.336 5.72413C655.331 6.71949 651.57 21.9652 651.57 21.9652C651.57 21.9652 652.254 29.7 652.735 32.0183C653.199 34.2538 655.292 43.3489 653.861 46.1982Z" fill="#714246"/>
<path d="M664.157 110.022L662.832 112.121L659.91 116.815C659.91 116.815 654.612 118.636 653.261 117.255C652.515 116.496 651.715 113.85 651.146 111.631C650.704 109.831 650.378 108.313 650.378 108.313L664.157 110.022Z" fill="#714246"/>
<path d="M730.372 129.519C730.372 130.9 726.315 131.783 726.315 131.783L713.953 142.114C713.953 142.114 706.192 145.374 701.251 150.069C696.311 154.764 691.98 150.732 691.98 150.732C686.748 149.517 671.693 132.393 671.693 132.393C671.693 132.393 671.34 151.948 670.634 153.383C669.927 154.818 670.868 158.741 671.278 160.4C671.54 161.785 671.639 163.192 671.574 164.597C671.574 164.597 677.221 184.869 676.748 186.64C676.276 188.411 679.808 196.693 679.808 196.693V203.599C679.808 203.599 665.989 203.101 665.239 200.173C664.488 197.245 668.682 195.972 668.682 195.972V195.254C665.919 193.927 665.393 184.811 665.393 184.811C665.393 184.811 661.274 173.543 660.687 171.664C660.1 169.785 660.687 166.969 660.687 166.969L660.276 164.539C660.276 164.539 659.393 162.88 659.393 162.548C659.278 161.707 658.932 160.909 658.391 160.23C657.746 159.512 659.097 157.8 659.097 157.8L657.923 154.925V151.778L655.159 140.343C655.159 140.343 652.276 127.03 653.279 122.667C654.281 118.304 652.1 116.09 652.1 116.09C656.819 118.416 659.199 113.249 659.98 111.022C660.179 110.449 660.276 110.072 660.276 110.072C660.276 110.072 666.757 107.824 672.793 108.359C674.018 108.455 675.225 108.696 676.386 109.076C683.093 111.341 684.148 120.73 684.148 120.73L690.09 129.241C693.145 136.806 697.732 137.581 697.732 137.581C697.732 137.581 708.496 130.788 708.77 130.456C709.044 130.124 713.185 128.465 713.185 128.465C713.67 127.664 714.411 127.027 715.304 126.645C716.717 126.093 716.831 124.044 716.831 124.044C717.008 119.242 720.006 118.856 720.006 118.856C730.429 118.031 730.372 128.138 730.372 129.519Z" fill="#444053"/>
<path opacity="0.1" d="M670.51 102.507H664.157V84.0013H670.51V102.507Z" fill="black"/>
<path d="M653.689 46.4929C653.689 46.4929 653.455 56.2143 656.042 57.5373C658.63 58.8603 659.632 65.7781 659.632 65.7781C659.632 65.7781 651.809 70.6264 650.043 72.754C648.277 74.8816 644.281 79.9662 645.102 81.1855C645.923 82.4049 643.102 87.925 643.102 87.925C643.102 87.925 648.277 97.8786 647.102 101.611C645.928 105.344 645.809 115.298 645.809 115.298H643.575C643.575 115.298 644.281 107.123 644.281 103.809C644.281 100.496 641.928 88.6715 641.928 88.6715C641.928 88.6715 640.868 77.0589 641.928 76.7396C642.988 76.4202 649.221 71.7627 649.689 69.6683C650.157 67.5739 646.414 48.0399 646.414 48.0399C646.414 48.0399 651.217 47.8159 653.689 46.4929Z" fill="#F86D70"/>
<path d="M669.446 68.1998L659.932 75.8807C659.932 75.8807 651.884 81.1437 648.868 78.9746C645.853 76.8056 659.755 65.6782 659.755 65.6782C656.674 66.8797 653.846 68.5875 651.402 70.7214L649.747 72.1647C645.389 75.9554 644.405 75.9554 644.259 81.5294C644.224 82.9022 644.723 84.8763 645.102 85.233C646.515 86.5436 647.504 95.9747 647.31 97.082C647.115 98.1893 649.959 107.72 649.005 110.354C648.051 112.987 660.532 109.031 662.647 111.569C664.762 114.107 673.468 109.582 673.468 109.582C673.468 109.582 668.647 97.9695 667.473 97.2064C666.298 96.4433 664.886 90.467 667.473 87.7048C670.06 84.9427 670.254 82.2884 670.254 82.2884C670.254 82.2884 660.837 82.8358 662.749 76.8761C663.282 75.1523 664.204 73.5564 665.452 72.1968C666.699 70.8372 668.244 69.7456 669.98 68.9961L669.446 68.1998Z" fill="#E8E8F0"/>
<path opacity="0.1" d="M656.745 87.7588C656.745 87.7588 660.396 94.2204 665.133 95.9001C665.279 95.954 665.429 95.9996 665.574 96.0452C670.506 97.4511 656.396 89.7454 656.745 87.7588Z" fill="black"/>
<path d="M707.781 30.5836C707.781 30.5836 706.015 34.7807 704.607 36.2157C703.198 37.6507 692.726 52.0171 692.726 52.0171L691.843 53.7382L691.079 55.2189L684.382 54.547L683.909 52.0088L684.17 51.7143C684.841 50.9512 686.677 48.919 687.909 48.0273C689.437 46.9241 692.496 43.2786 692.496 43.2786C692.496 43.2786 702.019 34.001 702.726 31.4587C703.432 28.9163 712.96 13.6707 715.088 16.3208C717.216 18.971 707.781 30.5836 707.781 30.5836Z" fill="#714246"/>
<path d="M667.45 70.3567C667.45 70.3567 669.097 67.9263 670.038 68.5899C670.978 69.2535 671.362 66.5992 671.865 67.0388C672.369 67.4784 673.976 68.6977 674.625 66.989C675.137 65.6204 680.708 56.9607 682.969 53.4687L683.914 52.0171C683.914 52.0171 690.267 54.999 691.794 54.0037V56.1022L690.501 56.2142L683.56 68.366C683.56 68.366 681.384 71.6216 681.53 72.7539C681.675 73.8861 678.739 78.8629 678.267 79.1947C677.795 79.5265 672.74 85.0508 672.74 85.0508C672.74 85.0508 670.152 96.9827 672.386 100.296C673.569 101.965 675.009 103.459 676.66 104.73C678.031 105.797 678.997 107.252 679.415 108.877C679.495 109.1 679.523 109.336 679.499 109.57C679.327 109.902 680.854 111.337 680.152 111.78C679.45 112.224 678.505 115.314 678.505 115.314C678.505 115.314 675.212 110.337 673.446 109.57C671.68 108.803 669.384 98.6333 669.384 98.6333C669.384 98.6333 668.735 92.6363 668.682 88.7709C668.629 84.9056 668.859 70.3567 667.45 70.3567Z" fill="#F86D70"/>
<path opacity="0.1" d="M683.561 120.627C683.561 120.627 678.621 121.51 676.621 122.837C674.621 124.164 684.148 120.735 684.148 120.735L683.561 120.627Z" fill="black"/>
<path opacity="0.1" d="M671.685 132.393C671.685 132.393 666.506 136.424 667.451 140.069L670.758 152.889L671.685 132.393Z" fill="black"/>
<path opacity="0.1" d="M660.983 158.189C660.983 158.189 660.515 158.741 663.221 158.189C665.928 157.637 663.923 155.937 663.923 155.937L660.983 158.189Z" fill="black"/>
<path opacity="0.1" d="M661.923 165.812C661.923 165.812 665.627 166.364 667.596 165.812C669.565 165.261 661.923 165.812 661.923 165.812Z" fill="black"/>
<path opacity="0.1" d="M669.508 195.644C669.508 195.644 670.153 194.98 673.389 196.196C676.625 197.411 677.914 197.465 678.859 197.079C679.804 196.693 669.508 195.644 669.508 195.644Z" fill="black"/>
<path opacity="0.1" d="M665.919 123.691L670.506 129.684C670.506 129.684 668.047 124.438 665.919 123.691Z" fill="black"/>
<path opacity="0.1" d="M674.859 68.5898C674.859 68.5898 675.053 70.5764 678.016 71.352C680.978 72.1275 681.547 72.7538 681.547 72.7538" fill="black"/>
<path opacity="0.1" d="M651.129 78.6886C651.018 78.1536 651.416 77.6517 651.791 77.2329L652.559 76.3744C652.706 76.1958 652.873 76.0331 653.058 75.8891C653.499 75.5573 654.113 75.4744 654.59 75.155" fill="black"/>
<path opacity="0.1" d="M679.526 109.852C679.526 109.852 678.386 110.524 675.649 107.583L679.526 109.852Z" fill="black"/>
<path opacity="0.1" d="M682.519 54.1653C682.519 54.1653 686.421 56.7698 690.501 56.2141L682.519 54.1653Z" fill="black"/>
<path opacity="0.1" d="M716.756 124.637C716.756 124.637 724.019 125.384 723.551 126.267C723.083 127.15 716.756 125.438 716.756 125.438V124.637Z" fill="black"/>
<path opacity="0.1" d="M667.098 70.3567C667.098 70.3567 668.744 67.9263 669.685 68.5899C670.625 69.2535 671.009 66.5992 671.512 67.0388C672.016 67.4784 673.623 68.6977 674.272 66.989C674.784 65.6204 680.356 56.9607 682.616 53.4687L683.561 52.0171C683.561 52.0171 689.914 54.999 691.441 54.0037V56.1022L690.148 56.2142L683.208 68.366C683.208 68.366 681.031 71.6216 681.177 72.7539C681.322 73.8861 678.386 78.8629 677.914 79.1947C677.442 79.5265 672.387 85.0508 672.387 85.0508C672.387 85.0508 669.799 96.9827 672.038 100.296C674.276 103.61 678.152 106.041 678.152 106.041C678.152 106.041 679.318 109.246 679.146 109.578C678.974 109.91 680.506 111.345 679.799 111.789C679.093 112.233 678.152 115.322 678.152 115.322C678.152 115.322 674.859 110.345 673.093 109.578C671.327 108.811 669.031 98.6416 669.031 98.6416C669.031 98.6416 668.387 92.6446 668.329 88.7792C668.272 84.9139 668.488 70.3567 667.098 70.3567Z" fill="black"/>
<path d="M640.096 76.0053C641.195 75.6694 647.654 70.9622 648.14 68.8346C648.625 66.707 644.727 46.8826 644.727 46.8826C644.727 46.8826 645.089 46.8826 645.659 46.8163V46.4969L644.859 20.4474C644.859 20.4474 641.57 2.9746 647.787 3.98241C654.003 4.99022 650.1 20.4474 650.1 20.4474C650.1 20.4474 650.811 28.29 651.31 30.6416C651.791 32.906 653.959 42.1464 652.475 45.0163C652.424 45.1204 652.363 45.2203 652.294 45.3149C652.294 45.3149 652.051 55.169 654.731 56.5128C657.292 57.7985 658.356 64.2393 658.449 64.8075L658.581 64.7536C659.344 64.3173 660.017 63.7554 660.568 63.0946C660.621 63.0283 660.665 62.9578 660.713 62.8873C658.97 61.0928 658.027 58.7375 658.079 56.3084C658.132 53.8792 659.176 51.5619 660.996 49.8356C661.08 49.7568 661.164 49.6779 661.252 49.6033C661.045 49.4077 660.893 49.1669 660.811 48.9024C660.334 47.5628 661.972 46.4886 662.815 45.6467C664.788 43.6892 666.554 41.2796 669.292 40.1764C668.505 40.596 667.775 41.1044 667.12 41.6901C667.944 41.0212 668.889 40.4959 669.91 40.139C672.775 39.1769 676.069 39.9731 678.572 41.574C681.075 43.1749 682.916 45.4933 684.603 47.8282L685.424 48.9687C686.139 48.2204 686.917 47.5269 687.751 46.8951C689.335 45.7753 692.505 42.0758 692.505 42.0758C692.505 42.0758 702.377 32.6697 703.101 30.0942C703.825 27.5186 713.697 12.0573 715.905 14.7489C718.112 17.4406 708.351 29.1983 708.351 29.1983C708.351 29.1983 706.518 33.4577 705.057 34.9134C703.596 36.3691 692.748 50.9304 692.748 50.9304L691.83 52.6765L691.658 53.0041C691.698 52.9889 691.737 52.9695 691.773 52.9461V55.0737L690.761 55.1608C691.212 55.5392 691.624 55.9557 691.993 56.405C692.542 57.1569 692.95 57.9915 693.199 58.8726C694.797 63.8494 694.143 69.241 692.086 74.0685C691.598 75.033 691.248 76.0538 691.044 77.1044C690.863 78.585 691.388 80.0449 691.697 81.5047C692.139 83.5784 692.139 85.7972 691.018 87.6262C689.552 90.0566 686.254 91.3215 683.274 90.8695C681.911 90.6529 680.621 90.1386 679.508 89.3681C678.11 88.4556 676.983 87.2239 676.232 85.7889C675.671 84.7189 675.349 83.566 674.771 82.4918C674.665 82.2886 674.545 82.0771 674.426 81.8904C673.164 83.1927 672.02 84.4079 672.02 84.4079C672.02 84.4079 669.34 96.5057 671.654 99.8651C672.882 101.555 674.37 103.064 676.069 104.344C676.498 104.679 676.893 105.051 677.247 105.456C677.477 105.609 677.614 105.692 677.614 105.692C677.614 105.692 677.671 105.854 677.764 106.107C678.305 106.865 678.698 107.708 678.925 108.595C679.007 108.82 679.036 109.06 679.009 109.296C678.846 109.607 680.201 110.889 679.804 111.428C683.19 115.073 683.83 120.61 683.83 120.61L690.007 129.199C693.176 136.868 697.927 137.656 697.927 137.656C697.927 137.656 709.079 130.779 709.384 130.444C709.688 130.108 713.962 128.424 713.962 128.424C714.473 127.606 715.245 126.96 716.169 126.578C717.635 126.018 717.754 123.945 717.754 123.945C717.935 119.071 721.043 118.682 721.043 118.682C723.551 118.487 725.458 118.893 726.942 119.648L727.383 119.681C729.542 119.839 732.147 120.021 734.999 120.191C742.946 120.676 744.809 125.4 744.809 125.4C744.809 125.4 745.785 126.408 744.509 127.499C743.233 128.59 735.052 127.52 734.708 127.474C735.33 127.541 735.96 127.501 736.566 127.354C735.277 127.312 733.507 127.271 732.001 127.267H731.622C731.716 128.003 731.762 128.744 731.759 129.485C731.759 130.887 727.551 131.783 727.551 131.783L714.748 142.255C714.748 142.255 706.704 145.573 701.582 150.318C696.461 155.062 691.954 150.989 691.954 150.989C686.536 149.745 670.947 132.413 670.934 132.397C670.934 132.928 670.607 149.774 669.976 153.159C669.943 153.334 669.888 153.505 669.813 153.669C669.08 155.124 670.06 159.102 670.484 160.781C670.753 162.185 670.855 163.612 670.788 165.037C670.788 165.037 676.66 185.603 676.175 187.399C675.689 189.195 679.34 197.593 679.34 197.593V204.59C679.34 204.59 679.11 204.59 678.704 204.565C678.789 204.674 678.866 204.789 678.934 204.909C678.95 204.933 678.963 204.958 678.974 204.984C678.974 204.984 675.075 205.768 672.457 205.544C669.839 205.32 665.327 207.406 665.327 207.406C665.327 207.406 663.804 208.065 659.111 208.347C654.418 208.629 654.418 206.44 654.418 206.44C654.956 203.462 662.365 202.466 662.599 202.442C663.195 202.093 663.76 201.716 664.215 201.392L664.316 201.322C664.281 201.258 664.252 201.192 664.232 201.123C663.437 198.153 667.826 196.863 667.826 196.863V196.138C664.961 194.79 664.413 185.549 664.413 185.549C664.413 185.549 660.144 174.128 659.557 172.224C658.97 170.32 659.557 167.459 659.557 167.459L659.115 164.999C659.115 164.999 658.201 163.315 658.201 162.979C658.081 162.124 657.723 161.313 657.164 160.628C656.493 159.898 657.897 158.164 657.897 158.164L656.678 155.261V152.068L653.813 140.455C653.813 140.455 650.828 126.968 651.857 122.564C652.886 118.159 650.639 115.895 650.639 115.895C650.855 115.998 651.08 116.085 651.266 116.16C650.98 115.552 650.734 114.929 650.528 114.294L644.122 115.028V115.111H641.809C641.809 115.111 642.542 106.816 642.542 103.465C642.542 100.114 640.1 88.1198 640.1 88.1198C640.1 88.1198 639.001 76.3413 640.096 76.0053ZM668.554 66.1595C668.554 66.2051 668.554 66.2508 668.554 66.2964C668.554 66.624 668.59 66.9641 668.612 67.3083L668.74 67.4908L668.974 67.3083L669.27 67.7231C669.321 67.46 669.302 67.189 669.215 66.9343C669.128 66.6795 668.976 66.449 668.771 66.2632C668.702 66.2235 668.629 66.1889 668.554 66.1595ZM647.235 104.966H647.093L647.323 105.514C647.297 105.348 647.266 105.165 647.235 104.983V104.966ZM670.634 204.088L671.517 203.885L671.031 203.81L670.59 204.08L670.532 204.113L670.634 204.088ZM661.707 202.91C661.998 202.769 662.29 202.612 662.59 202.446C662.488 202.495 662.113 202.674 661.716 202.914L661.707 202.91Z" fill="url(#paint0_linear)"/>
<path d="M645.102 96.5967L650.691 110.275H649.336L654.59 114.21L645.102 115.322V96.5967Z" fill="#F86D70"/>
<path d="M653.866 105.348H645.102L641.888 80.4885H653.866V105.348Z" fill="#F86D70"/>
<path opacity="0.1" d="M669.371 67.3703H669.186C668.855 67.3703 668.585 66.7108 668.263 66.6776C665.667 66.4454 663.296 65.9311 661.641 64.1892C662.073 63.6452 662.355 63.0083 662.46 62.3363C662.565 61.6643 662.49 60.9783 662.241 60.3405C661.054 56.8692 669.354 63.6584 669.354 63.6584C669.354 63.6584 669.305 65.2966 669.371 67.3703Z" fill="black"/>
<path opacity="0.1" d="M679.499 57.5371C679.499 58.7859 679.237 60.0224 678.728 61.176C678.219 62.3296 677.472 63.3776 676.532 64.2601C675.591 65.1426 674.475 65.8422 673.246 66.319C672.017 66.7957 670.701 67.0403 669.371 67.0386C669.042 67.0402 668.714 67.025 668.387 66.993C668.207 66.9256 668.046 66.819 667.919 66.682C667.801 66.5131 667.724 66.322 667.692 66.1222C667.661 65.9223 667.676 65.7185 667.738 65.5249C668.135 63.6669 669.945 62.3356 670.572 60.548C671.137 58.9513 670.718 57.1638 669.844 55.6998C668.969 54.2358 667.685 53.0247 666.418 51.8345C666.202 51.6035 665.933 51.4219 665.632 51.3036C664.55 50.9842 662.925 51.8759 662.073 50.9677C663.471 49.5998 665.272 48.6559 667.245 48.2573C669.218 47.8587 671.272 48.0237 673.145 48.731C675.017 49.4383 676.622 50.6556 677.752 52.2264C678.882 53.7972 679.486 55.6496 679.486 57.5454L679.499 57.5371Z" fill="black"/>
<path opacity="0.1" d="M684.121 90.9444C681.243 90.4965 678.762 88.5265 677.499 86.0547C676.96 85.0013 676.616 83.8608 676.086 82.8032C675.552 81.7923 674.893 80.8443 674.122 79.9788C673.225 78.9376 672.241 77.9667 671.177 77.0757C670.533 76.5997 669.964 76.0413 669.486 75.4168C668.466 73.8905 668.859 71.85 669.804 70.2782C670.194 69.7398 670.507 69.1556 670.735 68.5404C670.846 68.2305 670.857 67.8966 670.767 67.5808C670.677 67.265 670.489 66.9813 670.228 66.7654C669.786 66.4668 669.15 66.4419 668.81 66.0479C668.693 65.8797 668.615 65.6895 668.583 65.4905C668.551 65.2915 668.565 65.0883 668.625 64.8949C669.027 63.0328 670.832 61.7056 671.459 59.9181C672.029 58.3255 671.605 56.538 670.735 55.0698C669.866 53.6017 668.576 52.3948 667.309 51.2087C667.095 50.9764 666.826 50.7946 666.523 50.6778C665.256 50.3004 663.252 51.5819 662.603 49.7073C662.161 48.3843 663.724 47.3267 664.541 46.4973C666.267 44.7429 667.835 42.6236 670.082 41.4333C667.433 42.52 665.733 44.8964 663.835 46.8249C663.018 47.6544 661.437 48.7119 661.897 50.035C662.546 51.9096 664.546 50.628 665.817 51.0054C666.12 51.1212 666.39 51.3031 666.603 51.5363C667.87 52.7224 669.155 53.9293 670.029 55.3975C670.903 56.8656 671.322 58.6532 670.757 60.2457C670.113 62.0415 668.32 63.3728 667.923 65.2226C667.861 65.4162 667.846 65.6201 667.877 65.8199C667.908 66.0198 667.986 66.2109 668.104 66.3797C668.448 66.7737 669.084 66.7944 669.521 67.0972C669.783 67.3131 669.97 67.5968 670.061 67.9126C670.151 68.2284 670.14 68.5623 670.029 68.8722C669.801 69.4865 669.489 70.0705 669.102 70.61C668.157 72.1777 667.777 74.2223 668.779 75.7485C669.258 76.3731 669.827 76.9315 670.47 77.4075C671.535 78.2974 672.52 79.2684 673.415 80.3106C674.187 81.1763 674.848 82.1243 675.384 83.135C675.918 84.1926 676.267 85.3331 676.793 86.3865C678.051 88.8749 680.532 90.8283 683.415 91.2762C685.114 91.5324 686.856 91.24 688.355 90.4468C687.023 90.9885 685.554 91.1612 684.121 90.9444Z" fill="black"/>
<path opacity="0.1" d="M671.623 202.927L671.353 203.097L671.3 203.13L669.212 204.428L664.334 205.2L660.038 204.922C660.038 204.922 658.806 202.496 660.744 202.549C661.364 202.518 661.968 202.355 662.51 202.073C662.206 202.246 661.974 202.513 661.852 202.827C661.777 203.445 665.031 204.569 665.031 204.569L669.627 203.437C669.627 203.437 670.404 203.225 671.477 202.968L671.579 202.943L671.623 202.927Z" fill="black"/>
<path opacity="0.1" d="M738.721 126.039L736.721 127.474C736.721 127.474 736.143 127.449 735.277 127.424C735.671 127.277 735.996 127.002 736.191 126.649C737.485 123.277 731.079 121.842 731.079 121.842L728.09 121.734L727.511 121.713H727.026L727.688 121.568L728.13 121.464L729.763 121.104L734.712 121.593L738.182 123.691L738.721 126.039Z" fill="black"/>
<path opacity="0.1" d="M664.157 110.022L662.832 112.12C662.751 112.052 662.675 111.977 662.607 111.897C661.133 110.126 654.634 111.523 651.128 111.631C650.687 109.831 650.36 108.313 650.36 108.313L664.157 110.022Z" fill="black"/>
<path opacity="0.1" d="M730.593 127.329C729.653 127.291 728.711 127.34 727.78 127.474C726.783 127.806 725.021 122.12 725.021 122.12L727.67 121.531L720.416 121.232L720.063 119.354C720.063 119.354 722.421 119.569 726.12 119.843C726.885 120.256 727.567 120.792 728.134 121.427L728.248 121.552C729.803 123.335 730.376 125.633 730.593 127.329Z" fill="black"/>
<path opacity="0.1" d="M673.389 201.832L671.353 203.076C668.316 202.562 665.543 201.749 665.216 200.484C665.214 200.463 665.214 200.442 665.216 200.422C665.861 199.957 666.289 199.592 666.289 199.592L673.389 201.832Z" fill="black"/>
<path opacity="0.1" d="M679.406 203.91C676.724 203.787 674.052 203.518 671.402 203.105C672.982 202.697 674.588 202.383 676.21 202.164C678.201 201.965 679.199 203.545 679.406 203.91Z" fill="black"/>
<path d="M670.51 102.507H664.157V84.0013H670.51V102.507Z" fill="#F86D70"/>
<path opacity="0.1" d="M653.866 46.1609C653.867 46.1733 653.867 46.1858 653.866 46.1982C653.815 46.2999 653.758 46.3983 653.694 46.4927L651.928 48.923L647.341 49.3668L647.292 47.6581C648.718 47.542 651.981 47.1728 653.866 46.1609Z" fill="black"/>
<path opacity="0.1" d="M670.625 82.2884C670.412 83.6398 669.889 84.9316 669.093 86.0749L664.744 85.3823C664.744 85.3823 651.689 82.6202 648.983 82.4004C647.351 82.1992 645.759 81.773 644.259 81.1354C645.293 77.6911 647.313 74.5795 650.1 72.1398L651.755 70.6965C654.198 68.5726 657.024 66.8734 660.1 65.6782C659.905 65.8358 646.21 76.818 649.212 78.9746C652.215 81.1313 660.272 75.8807 660.272 75.8807L669.455 68.4694L669.79 68.1998L670.32 68.9754C670.32 68.9754 670.02 69.0873 669.53 69.332C666.408 70.9502 664.093 73.6618 663.089 76.8761C661.208 82.8358 670.625 82.2884 670.625 82.2884Z" fill="black"/>
<path d="M673.446 109.91C673.446 109.91 664.744 114.439 662.625 111.896C662.161 111.337 661.194 111.092 659.976 111.025C660.175 110.453 660.272 110.076 660.272 110.076C660.272 110.076 666.753 107.828 672.788 108.363C673.194 109.292 673.446 109.91 673.446 109.91Z" fill="#444053"/>
<path opacity="0.1" d="M691.852 53.738L691.088 55.2186L684.382 54.5467L683.909 52.0086L684.17 51.7141C684.894 52.0583 690.254 54.4721 691.852 53.738Z" fill="black"/>
<path d="M166.854 53.5986L167.665 48.8968L168.501 53.6465L170.939 53.7175C169.27 48.0258 169.179 42.4853 170.774 37.1343C171.938 33.2316 170.88 28.9119 167.872 26.4598C166.392 25.2256 164.501 24.5134 162.524 24.4452L155.698 24.2464C151.673 24.1292 148.149 26.7741 146.695 30.589C146.147 32.103 145.945 33.7087 146.103 35.3011C146.616 41.1979 146.37 47.1315 145.37 52.973L166.854 53.5986Z" fill="#2F2E41"/>
<path opacity="0.1" d="M152.881 39.9365C152.881 39.9365 157.085 49.9756 145.172 51.2922C133.259 52.6088 155.509 63.9644 155.509 63.9644L170.75 56.394C170.75 56.394 158.487 48.1653 162.341 40.7594L152.881 39.9365Z" fill="black"/>
<path d="M125.551 180.483L122.047 190.193H130.982L132.558 182.623L125.551 180.483Z" fill="#9F616A"/>
<path d="M159.188 180.484V187.725H164.619L165.319 178.838L159.188 180.484Z" fill="#9F616A"/>
<path d="M125.932 186.832C125.932 186.832 121.377 183.869 121.027 185.351C120.676 186.832 117.348 195.39 112.092 196.048C106.836 196.706 101.405 199.504 107.537 200.491C113.669 201.479 122.954 200.162 124.355 199.175C125.757 198.187 125.932 199.504 125.932 199.504C125.932 199.504 133.115 199.01 133.115 198.681C133.115 198.352 132.765 196.048 133.115 195.39C133.465 194.731 132.414 191.275 132.414 191.275L133.115 185.351C133.115 185.351 129.961 185.844 129.961 186.173C129.961 186.503 125.932 186.832 125.932 186.832Z" fill="#2F2E41"/>
<path d="M161.115 184.762C161.115 184.762 157.961 183.775 157.961 184.762C157.961 185.75 155.158 199.649 156.384 200.308C157.611 200.966 164.969 201.713 166.02 199.574C167.071 197.434 165.319 192.826 165.319 192.826C165.319 192.826 164.268 188.876 165.319 188.383C166.37 187.889 166.896 184.104 161.115 184.762Z" fill="#2F2E41"/>
<path d="M139.422 98.455L130.838 150.625C130.838 150.625 118.925 181.401 124.531 182.717C130.137 184.034 130.137 186.338 133.466 184.528C136.794 182.717 142.4 152.765 142.4 152.765L155.014 118.698L158.693 153.588C158.693 153.588 155.014 182.717 157.992 182.717C160.971 182.717 168.154 183.705 168.854 182.224C169.555 180.742 172.183 147.827 172.183 147.827C172.183 147.827 179.143 102.94 171.02 99.4629C162.898 95.9864 139.422 98.455 139.422 98.455Z" fill="#2F2E41"/>
<path d="M158.487 45.3676C163.809 45.3676 168.123 41.3151 168.123 36.316C168.123 31.3169 163.809 27.2644 158.487 27.2644C153.165 27.2644 148.851 31.3169 148.851 36.316C148.851 41.3151 153.165 45.3676 158.487 45.3676Z" fill="#9F616A"/>
<path d="M147.027 53.9156C147.504 54.1397 147.955 54.409 148.373 54.7195C149.885 55.883 153.585 58.2086 158.487 57.7108C164.969 57.0525 168.972 55.0556 168.972 55.0556C168.972 55.0556 176.181 56.8879 177.057 59.5211C177.933 62.1543 170.75 75.814 170.75 75.814C170.75 75.814 168.122 81.0804 170.05 84.5365C171.977 87.9926 173.904 97.0442 174.955 98.8545C176.006 100.665 177.057 106.754 174.079 104.45C171.101 102.146 164.969 96.5504 155.333 98.8545C145.698 101.159 135.186 102.146 135.887 101.323C136.588 100.5 138.515 77.7889 138.515 77.7889L134.661 55.9005C134.661 55.9005 138.678 49.33 146.743 51.0518C146.743 51.0518 145.623 53.226 147.027 53.9156Z" fill="#3F3D56"/>
<path d="M132.909 98.196L138.69 105.931C138.69 105.931 143.42 105.602 143.245 103.627C143.245 103.627 145.698 105.437 146.399 104.45C147.099 103.462 143.42 99.5126 142.194 99.0189C140.968 98.5251 138.515 98.0314 137.989 97.5377C137.464 97.044 135.712 95.2336 135.712 95.2336L132.909 98.196Z" fill="#9F616A"/>
<path d="M168.823 94.5754C168.823 94.5754 163.769 96.3887 162.004 98.4444C160.239 100.5 157.786 102.31 159.012 102.31C160.239 102.31 163.042 101.158 163.042 101.158C163.042 101.158 166.02 106.589 170.049 103.298L172.853 99.348C172.853 99.348 172.152 93.9171 168.823 94.5754Z" fill="#9F616A"/>
<path d="M137.113 55.5713H134.661C134.661 55.5713 125.901 74.1682 128.178 83.549C130.456 92.9298 132.383 99.019 133.259 99.3482C134.135 99.6773 135.011 95.9219 137.113 96.483C137.113 96.483 135.361 85.6885 136.237 85.0302C137.113 84.3719 136.938 83.0553 137.113 81.4095C137.288 79.7638 139.566 74.8265 139.566 74.8265L137.113 55.5713Z" fill="#3F3D56"/>
<path d="M173.028 59.0273L177.057 59.5211C177.057 59.5211 179.16 65.2812 179.335 69.5601C179.51 73.8391 179.86 75.4848 180.386 76.966C180.912 78.4472 178.809 83.8781 179.16 86.0176C179.51 88.1571 171.977 101.488 171.977 100.829C171.977 100.171 169.699 94.4109 168.122 95.0692C168.122 95.0692 169.349 91.7777 170.75 90.9549C172.152 90.132 170.75 83.7136 170.75 83.7136L169.524 73.1808L173.028 59.0273Z" fill="#3F3D56"/>
<path d="M167.992 26.6836H150.209V34.3033H167.992V26.6836Z" fill="#2F2E41"/>
<path d="M152.881 39.9365C152.881 39.9365 157.085 49.9756 145.172 51.2922C133.259 52.6088 155.509 63.9644 155.509 63.9644L170.75 56.394C170.75 56.394 158.487 48.1653 162.341 40.7594L152.881 39.9365Z" fill="#9F616A"/>
<path d="M149.343 39.2406C149.677 39.1614 149.777 38.461 149.566 37.6764C149.355 36.8918 148.913 36.3199 148.579 36.3992C148.245 36.4785 148.145 37.1788 148.356 37.9634C148.567 38.7481 149.009 39.3199 149.343 39.2406Z" fill="#9F616A"/>
<defs>
<linearGradient id="paint0_linear" x1="-19615.4" y1="163323" x2="-19615.4" y2="62556.1" gradientUnits="userSpaceOnUse">
<stop stop-color="#808080" stop-opacity="0.25"/>
<stop offset="0.54" stop-color="#808080" stop-opacity="0.12"/>
<stop offset="1" stop-color="#808080" stop-opacity="0.1"/>
</linearGradient>
</defs>
</svg>
