<svg width="200" height="200" viewBox="0 0 200 200" fill="none" xmlns="http://www.w3.org/2000/svg">
<rect width="200" height="200" rx="100" fill="#4E54C8"/>
<path opacity="0.5" d="M184.667 15.3334H101.873V121.338H184.667V15.3334Z" fill="url(#paint0_linear)"/>
<path d="M184.251 16.149H102.288V120.522H184.251V16.149Z" fill="white"/>
<g opacity="0.5">
<path opacity="0.5" d="M175.93 24.8154H110.61V91.0716H175.93V24.8154Z" fill="#F25F5C"/>
</g>
<g opacity="0.5">
<path opacity="0.5" d="M155.642 70.4415C155.606 67.828 154.789 65.3365 153.365 63.5003C152.083 61.8543 150.358 59.9653 148.489 58.8225H148.478C147.686 58.319 146.838 57.9842 145.966 57.8309V53.7752C146.603 53.0291 147.13 52.1357 147.52 51.14V51.4648C147.52 51.4648 150.496 47.5356 150.428 42.9246C150.472 40.1556 149.453 37.1089 146.036 34.496C138.101 28.4473 135.062 37.2428 134.483 39.278C134.446 39.3765 134.418 39.4806 134.4 39.5879L134.377 39.6821C134.367 39.7775 134.367 39.8742 134.377 39.9697V39.9994C134.375 40.0506 134.375 40.1019 134.377 40.1531C134.377 40.8324 134.819 41.4571 135.569 41.9677C134.979 43.1169 134.599 44.4268 134.457 45.7974C134.315 47.168 134.415 48.5629 134.749 49.8754C135.083 51.1878 135.642 52.3831 136.384 53.3697C137.126 54.3563 138.031 55.1081 139.029 55.5675V58.1705L138.876 57.7912C138.876 57.7912 137.815 58.6217 136.447 59.8959C134.155 62.0303 130.998 65.4116 130.524 68.2055C129.765 72.6677 130.524 91.5527 130.524 91.5527L155.959 92.0485L155.642 70.4415ZM147.558 51.1078L147.567 51.0954L147.558 51.1078ZM134.443 40.2944V40.3093V40.2944ZM134.491 40.4407V40.4605V40.4407ZM134.552 40.5845L134.563 40.6092L134.552 40.5845ZM134.626 40.7258L134.641 40.753L134.626 40.7258ZM134.713 40.8646L134.734 40.8943L134.713 40.8646ZM134.813 41.0009L134.838 41.0332L134.813 41.0009ZM135.675 41.7446L135.701 41.762L135.675 41.7446ZM134.927 41.1274L134.958 41.1621L134.927 41.1274ZM135.053 41.2587L135.089 41.2935L135.053 41.2587ZM135.191 41.3852L135.233 41.4224L135.191 41.3852ZM135.341 41.5091L135.39 41.5463L135.341 41.5091ZM135.502 41.6281L135.557 41.6678L135.502 41.6281Z" fill="url(#paint1_linear)"/>
</g>
<path d="M145.892 53.8993H139.139V66.8397H145.892V53.8993Z" fill="#FDA57D"/>
<path opacity="0.05" d="M139.363 55.9568C140.069 56.284 140.373 56.5443 141.164 56.5443C142.827 56.5446 144.431 55.7391 145.666 54.2835V54.1918H139.363V55.9568Z" fill="black"/>
<path d="M141.39 56.2517C145.119 56.2517 148.142 52.3016 148.142 47.429C148.142 42.5563 145.119 38.6062 141.39 38.6062C137.66 38.6062 134.637 42.5563 134.637 47.429C134.637 52.3016 137.66 56.2517 141.39 56.2517Z" fill="#FDA57D"/>
<path d="M140.646 43.4526C143.979 43.4526 146.681 42.1107 146.681 40.4555C146.681 38.8002 143.979 37.4584 140.646 37.4584C137.313 37.4584 134.61 38.8002 134.61 40.4555C134.61 42.1107 137.313 43.4526 140.646 43.4526Z" fill="black"/>
<path d="M141.852 41.5612L147.404 45.9763V51.4301C147.404 51.4301 154.646 41.8662 145.956 35.2448C137.267 28.6233 134.61 40.292 134.61 40.292C134.61 40.292 137.024 42.8231 141.852 41.5612Z" fill="black"/>
<path d="M147.66 48.899C148.033 48.899 148.335 48.2408 148.335 47.4289C148.335 46.617 148.033 45.9589 147.66 45.9589C147.287 45.9589 146.985 46.617 146.985 47.4289C146.985 48.2408 147.287 48.899 147.66 48.899Z" fill="#FDA57D"/>
<g opacity="0.05">
<path opacity="0.05" d="M147.404 45.9765L143.708 43.0389C142.704 43.321 141.68 43.4598 140.653 43.4529C137.409 43.4529 134.772 42.1812 134.626 40.5872V40.6144C134.623 40.664 134.623 40.7136 134.626 40.7632C134.626 42.4191 137.327 43.7603 140.661 43.7603C141.691 43.7681 142.718 43.6293 143.725 43.3463L147.419 46.2839L147.404 45.9765Z" fill="black"/>
<path opacity="0.05" d="M147.404 51.4402V51.755C147.404 51.755 150.297 47.9324 150.231 43.4454C150.163 47.7936 147.404 51.4402 147.404 51.4402Z" fill="black"/>
</g>
<path d="M138.988 57.9103C138.988 57.9103 131.6 63.7012 130.861 68.0444C130.123 72.3876 130.861 90.762 130.861 90.762L155.61 91.2454L155.295 70.2185C155.259 67.6742 154.462 65.2494 153.075 63.4632C151.227 61.0908 148.432 58.1929 145.636 57.9103L142.312 66.1158L138.988 57.9103Z" fill="#4D8AF0"/>
<path opacity="0.05" d="M135.576 67.7394C135.576 67.7394 133.645 80.9847 135.335 85.0924L135.576 67.7394Z" fill="black"/>
<path opacity="0.05" d="M149.571 67.7394C149.571 67.7394 151.502 80.9847 149.812 85.0924L149.571 67.7394Z" fill="black"/>
<path d="M138.955 57.9597L145.969 57.8308L141.37 73.099L138.955 57.9597Z" fill="white"/>
<path d="M138.955 57.0154V57.9599H145.956L145.969 57.0154H138.955Z" fill="white"/>
<path d="M142.818 57.0154H141.852V58.2772H142.818V57.0154Z" fill="black"/>
<path d="M138.955 57.96L137.508 59.8539L140.646 66.8397L138.955 57.96Z" fill="#4D8AF0"/>
<path d="M145.713 58.5919L146.922 60.1686L143.3 66.4751L145.713 58.5919Z" fill="#4D8AF0"/>
<path opacity="0.1" d="M138.955 57.96L137.508 59.8539L140.646 66.8397L138.955 57.96Z" fill="white"/>
<path opacity="0.1" d="M145.713 58.5919L146.922 60.1686L143.3 66.4751L145.713 58.5919Z" fill="white"/>
<path d="M142.334 57.645L138.473 78.9148L140.887 83.6448L144.025 78.9148L142.334 57.645Z" fill="black"/>
<path d="M172.903 100.378H115.226V103.849H172.903V100.378Z" fill="#E0E0E0"/>
<path d="M163.702 107.319H124.428V110.79H163.702V107.319Z" fill="#E0E0E0"/>
<g opacity="0.5">
<path opacity="0.5" d="M98.1273 37.9023H15.3334V143.907H98.1273V37.9023Z" fill="url(#paint2_linear)"/>
</g>
<path d="M97.7118 38.718H15.7489V143.091H97.7118V38.718Z" fill="white"/>
<g opacity="0.5">
<path opacity="0.5" d="M89.3902 47.3848H24.0703V113.641H89.3902V47.3848Z" fill="#F25F5C"/>
</g>
<path opacity="0.05" d="M55.6318 75.9079C56.3376 76.2351 56.6412 76.4954 57.4324 76.4954C59.0956 76.4959 60.6998 75.6903 61.9346 74.2345V74.1428H55.6318V75.9079Z" fill="black"/>
<path d="M62.1586 73.8503H55.4061V86.7907H62.1586V73.8503Z" fill="#A0616A"/>
<path d="M57.6581 76.2028C61.3874 76.2028 64.4105 72.2527 64.4105 67.38C64.4105 62.5073 61.3874 58.5573 57.6581 58.5573C53.9288 58.5573 50.9056 62.5073 50.9056 67.38C50.9056 72.2527 53.9288 76.2028 57.6581 76.2028Z" fill="#A0616A"/>
<path d="M71.3491 100.524H67.3705V113.477H71.3491V100.524Z" fill="#A0616A"/>
<path d="M45.2499 100.524V113.742H48.4866L48.8623 101.494L45.2499 100.524Z" fill="#A0616A"/>
<path d="M58.1193 63.089L63.6707 65.9274V71.3812C63.6707 71.3812 70.3226 64.7908 61.6273 58.162C53.8143 52.2124 51.6651 59.3407 52.8276 60.5802C52.8047 60.6122 53.9901 62.5097 52.8276 59.8364C52.8159 59.8775 52.9935 60.8303 52.9947 60.8741C52.9959 60.9179 54.1402 62.6265 52.8276 59.8364C52.8416 59.8762 52.9701 60.8444 52.9947 60.8741C53.9604 62.0615 53.8162 64.2144 58.1193 63.089Z" fill="#4D4545"/>
<path d="M63.9269 68.8504C64.2999 68.8504 64.6023 68.1922 64.6023 67.3803C64.6023 66.5684 64.2999 65.9103 63.9269 65.9103C63.5539 65.9103 63.2515 66.5684 63.2515 67.3803C63.2515 68.1922 63.5539 68.8504 63.9269 68.8504Z" fill="#A0616A"/>
<path d="M67.101 96.8232V100.524H72.3602L72.0396 96.2952L67.101 96.8232Z" fill="white"/>
<path d="M57.7928 82.0211L55.4439 78.32C55.4439 78.32 46.0637 82.5491 46.0637 96.2952L48.8964 100.524L48.4923 113.742H65.0821C65.0821 113.742 66.2964 99.9964 65.8923 95.7672L67.1066 96.8257H71.9617C71.9617 96.8257 73.8286 82.0211 62.0958 77.2639L57.7928 82.0211Z" fill="#235067"/>
<path d="M46.0581 96.2952L44.8457 100.524L48.8186 102.904L48.8907 100.524L46.0581 96.2952Z" fill="white"/>
<path opacity="0.05" d="M53.7762 79.8025L55.3662 84.4506L57.6372 82.0113L55.444 78.6349L53.7762 79.8025Z" fill="black"/>
<path d="M53.7762 79.4876L55.3662 84.1332L57.6372 81.6963L55.444 78.3199L53.7762 79.4876Z" fill="white"/>
<path opacity="0.05" d="M62.223 77.2811L63.6706 78.5429L59.5687 83.5877L58.1324 81.959L62.223 77.2811Z" fill="black"/>
<path d="M62.223 76.9666L63.6706 78.2259L59.5687 83.2731L58.1324 81.6444L62.223 76.9666Z" fill="white"/>
<path opacity="0.05" d="M49.1886 99.3568C49.1842 95.2613 50.2013 91.2755 52.0858 88.0029L49.1886 99.3568Z" fill="black"/>
<path opacity="0.05" d="M65.3611 96.2034V94.3094L66.8087 95.5713L65.843 95.2564L65.3611 96.2034Z" fill="black"/>
<path opacity="0.05" d="M67.2925 100.619L67.3703 100.958H71.3489L71.3944 100.619H67.2925Z" fill="black"/>
<path opacity="0.05" d="M45.2499 100.767V101.129L48.7978 103.12L48.7067 102.825L45.2499 100.767Z" fill="black"/>
<path d="M84.1955 121.578H26.5179V125.049H84.1955V121.578Z" fill="#E0E0E0"/>
<path d="M74.9936 128.52H35.7197V131.99H74.9936V128.52Z" fill="#E0E0E0"/>
<g opacity="0.5">
<path opacity="0.5" d="M149.78 78.6621H66.9857V184.667H149.78V78.6621Z" fill="url(#paint3_linear)"/>
</g>
<path d="M149.364 79.4778H67.4012V183.851H149.364V79.4778Z" fill="white"/>
<g opacity="0.5">
<path opacity="0.5" d="M141.043 88.1466H75.7227V154.403H141.043V88.1466Z" fill="#F25F5C"/>
</g>
<g opacity="0.5">
<path opacity="0.5" d="M114.139 129.506L114.329 129.32L114.6 129.058L127.266 116.764L122.912 94.0095C122.912 94.0095 122.912 93.9822 122.912 93.9351C122.948 93.241 123.151 87.869 120.929 88.8383C118.759 89.7828 119.563 93.7517 119.719 94.4259L119.744 94.5251L122.514 113.66L113.71 120.369L112.488 120.19C113.881 117.695 114.62 114.679 114.596 111.591C114.596 104.451 110.876 98.6626 106.284 98.6626C101.693 98.6626 97.9722 104.451 97.9722 111.591C97.9722 116.938 100.059 121.529 103.036 123.49L99.8847 125.55V125.572C98.9816 125.324 95.555 125.399 96.9439 141.829C97.2847 145.81 96.56 149.822 94.8929 153.183L94.0239 154.762L115.719 154.936H115.786C115.786 154.936 112.714 148.503 114.139 129.506Z" fill="url(#paint4_linear)"/>
</g>
<path d="M100.268 125.686C100.268 125.686 95.7904 123.16 97.0957 140.521C97.4502 145.149 96.5891 149.797 94.6539 153.701L94.3788 154.254H98.5415L101.676 149.916L100.268 125.686Z" fill="#3AD29F"/>
<path d="M122.627 94.6615C122.627 94.6615 122.627 94.6367 122.627 94.5896L119.497 95.0705L119.52 95.1697L122.235 113.926L112.923 121.023L113.302 130.148L126.881 116.968L122.627 94.6615Z" fill="#3AD29F"/>
<path d="M106.334 124.568C110.833 124.568 114.481 118.894 114.481 111.895C114.481 104.897 110.833 99.2228 106.334 99.2228C101.834 99.2228 98.1866 104.897 98.1866 111.895C98.1866 118.894 101.834 124.568 106.334 124.568Z" fill="#FFFF00"/>
<path d="M110.407 116.204H104.588V127.357H110.407V116.204Z" fill="#FDA57D"/>
<path d="M106.334 125.595L104.782 122.553L100.126 125.595V130.627C100.126 130.627 98.4353 134.519 99.8127 139.001C99.4332 145.59 98.4049 154.227 98.4049 154.227L115.653 154.393C115.653 154.393 112.549 147.891 114.101 128.629L113.722 120.518L110.231 120.022L106.334 125.595Z" fill="#3AD29F"/>
<path opacity="0.05" d="M113.705 120.515L114.094 121.021L114.481 129.016L114.029 129.454L113.705 120.515Z" fill="black"/>
<path opacity="0.05" d="M104.782 117.979C105.389 118.259 105.652 118.475 106.334 118.475C107.767 118.475 109.149 117.781 110.214 116.526V116.447H104.782V117.979Z" fill="black"/>
<path d="M106.527 118.232C109.741 118.232 112.346 114.828 112.346 110.629C112.346 106.43 109.741 103.026 106.527 103.026C103.313 103.026 100.708 106.43 100.708 110.629C100.708 114.828 103.313 118.232 106.527 118.232Z" fill="#FDA57D"/>
<path d="M112.348 111.896C112.67 111.896 112.93 111.329 112.93 110.629C112.93 109.929 112.67 109.362 112.348 109.362C112.026 109.362 111.766 109.929 111.766 110.629C111.766 111.329 112.026 111.896 112.348 111.896Z" fill="#FDA57D"/>
<path opacity="0.05" d="M101.446 108.249V108.606H111.435V108.963H101.31L101.446 108.249Z" fill="black"/>
<path d="M111.378 102.265H101.291V108.854H111.378V102.265Z" fill="#FFFF00"/>
<path d="M120.683 89.5921C118.556 90.5192 119.343 94.4088 119.495 95.0706L122.626 94.5897C122.667 93.908 122.867 88.6426 120.683 89.5921Z" fill="#FDA57D"/>
<g opacity="0.05">
<path opacity="0.05" d="M98.7483 154.227C98.7483 154.227 99.769 145.59 100.156 139.001C98.7881 134.539 100.477 130.627 100.477 130.627V125.595L104.82 122.756L104.715 122.553L100.061 125.595V130.627C100.061 130.627 98.3726 134.531 99.7405 139.001C99.3611 145.59 98.3328 154.227 98.3328 154.227L115.581 154.393L98.7483 154.227Z" fill="black"/>
<path opacity="0.05" d="M106.685 125.582L110.527 120.061L110.149 120.007L106.508 125.238L106.685 125.582Z" fill="black"/>
</g>
<path opacity="0.05" d="M103.321 123.782L106.301 132.751L111.766 120.503L110.255 120.25L106.51 125.141L104.846 122.697L103.321 123.782Z" fill="black"/>
<path d="M103.321 123.51L106.301 132.481L111.766 120.232L110.255 119.977L106.51 124.871L104.846 122.424L103.321 123.51Z" fill="white"/>
<path d="M137.375 161.481H79.6975V164.951H137.375V161.481Z" fill="#E0E0E0"/>
<path d="M128.173 168.422H88.8994V171.892H128.173V168.422Z" fill="#E0E0E0"/>
<defs>
<linearGradient id="paint0_linear" x1="143.27" y1="121.338" x2="143.27" y2="15.3334" gradientUnits="userSpaceOnUse">
<stop stop-color="#808080" stop-opacity="0.25"/>
<stop offset="0.54" stop-color="#808080" stop-opacity="0.12"/>
<stop offset="1" stop-color="#808080" stop-opacity="0.1"/>
</linearGradient>
<linearGradient id="paint1_linear" x1="22135.4" y1="18395.4" x2="25636.3" y2="18395.4" gradientUnits="userSpaceOnUse">
<stop stop-color="#808080" stop-opacity="0.25"/>
<stop offset="0.54" stop-color="#808080" stop-opacity="0.12"/>
<stop offset="1" stop-color="#808080" stop-opacity="0.1"/>
</linearGradient>
<linearGradient id="paint2_linear" x1="18080.1" y1="57506.1" x2="18080.1" y2="12177.5" gradientUnits="userSpaceOnUse">
<stop stop-color="#808080" stop-opacity="0.25"/>
<stop offset="0.54" stop-color="#808080" stop-opacity="0.12"/>
<stop offset="1" stop-color="#808080" stop-opacity="0.1"/>
</linearGradient>
<linearGradient id="paint3_linear" x1="45035.7" y1="70316.2" x2="45035.7" y2="24987.6" gradientUnits="userSpaceOnUse">
<stop stop-color="#808080" stop-opacity="0.25"/>
<stop offset="0.54" stop-color="#808080" stop-opacity="0.12"/>
<stop offset="1" stop-color="#808080" stop-opacity="0.1"/>
</linearGradient>
<linearGradient id="paint4_linear" x1="17596.5" y1="35037.9" x2="23420.3" y2="35037.9" gradientUnits="userSpaceOnUse">
<stop stop-color="#808080" stop-opacity="0.25"/>
<stop offset="0.54" stop-color="#808080" stop-opacity="0.12"/>
<stop offset="1" stop-color="#808080" stop-opacity="0.1"/>
</linearGradient>
</defs>
</svg>
