<svg width="200" height="200" viewBox="0 0 200 200" fill="none" xmlns="http://www.w3.org/2000/svg">
<rect width="200" height="200" rx="100" fill="#F25F5C"/>
<path opacity="0.1" d="M85.9102 16.2957C78.5934 12.2926 70.8615 8.94877 62.9685 9.36914C51.3632 9.98537 40.2227 19.3792 34.7671 33.1727C30.1382 44.8595 29.5671 58.5573 27.5731 71.5267C25.1192 87.5032 20.4106 102.692 15.3833 117.541C12.6837 125.518 9.83468 133.668 9.39138 142.412C8.77708 154.552 13.0888 166.65 19.8511 174.725C26.6134 182.801 35.5939 187.062 44.6075 187.991C49.4041 188.485 54.4164 188.027 58.6767 185.022C63.1844 181.843 66.4701 176.099 70.996 172.965C75.1898 170.061 80.0959 169.655 84.8045 170.032C90.9522 170.525 97.021 172.262 102.832 175.191C109.413 178.516 115.533 183.334 122.091 186.706C128.649 190.079 135.994 191.961 142.705 189.147C149.014 186.503 153.995 180.083 158.486 173.581C165.829 162.97 172.56 151.516 178.612 139.333C182.665 131.162 186.437 122.542 188.228 113.019C191.655 94.812 186.94 74.2711 176.482 61.8367C167.817 51.5352 156.188 47.064 144.805 44.3507C134.425 41.8763 122.423 41.7234 112.868 35.2745C103.757 29.117 95.4651 21.5265 85.9102 16.2957Z" fill="#6C63FF"/>
<path d="M117.514 156.941V165.618H119.229L118.897 156.303L117.514 156.941Z" fill="#AAABB0"/>
<path d="M91.751 155.19V163.867H93.4677L93.1357 154.552L91.751 155.19Z" fill="#AAABB0"/>
<path d="M121.719 142.452C121.719 141.572 121.224 140.859 120.613 140.859C120.001 140.859 119.506 141.572 119.506 142.452V154.712C119.506 155.592 120.001 156.305 120.613 156.305C121.224 156.305 121.719 155.592 121.719 154.712V142.452Z" fill="#AAABB0"/>
<path d="M93.3283 139.027C93.3283 138.148 92.8329 137.434 92.2218 137.434C91.6106 137.434 91.1152 138.148 91.1152 139.027V154.71C91.1152 155.59 91.6106 156.303 92.2218 156.303C92.8329 156.303 93.3283 155.59 93.3283 154.71V139.027Z" fill="#AAABB0"/>
<path d="M124.543 48.4255C124.543 48.4255 126.756 47.0712 127.088 48.4255C127.421 49.7798 127.587 61.4833 127.587 61.4833H125.483L124.543 48.4255Z" fill="#AAABB0"/>
<path d="M100.303 48.4255C100.303 48.4255 98.0884 47.0712 97.7563 48.4255C97.4243 49.7798 97.2582 61.4833 97.2582 61.4833H99.3618L100.303 48.4255Z" fill="#AAABB0"/>
<path d="M100.634 36.8007L100.302 46.5146H101.796V36.5619L100.634 36.8007Z" fill="#AAABB0"/>
<path d="M99.3618 61.4834L99.8051 47.4703C99.8051 47.4703 99.6391 44.3653 104.896 45.3206C110.152 46.276 125.539 48.1868 125.539 48.1868V61.4834H99.3618Z" fill="#33323D"/>
<path d="M120.393 135.287L119.562 156.702C119.562 156.702 107.386 166.416 92.6094 157.18L93.9377 134.649L120.393 135.287Z" fill="#33323D"/>
<path d="M108.825 50.9713L109.101 64.8244H126.258L125.262 46.5144L108.825 50.9713Z" fill="#535461"/>
<path d="M110.569 126.13H94.4076V155.587H110.569V126.13Z" fill="#4C4981"/>
<path d="M104.62 138.153C104.62 138.153 106.944 135.526 107.331 136.321C107.718 137.117 105.95 140.542 105.229 140.143C104.509 139.744 104.62 138.153 104.62 138.153Z" fill="#FFB9B9"/>
<path d="M169.132 60.6855L63.045 60.6855L63.045 137.117H169.132V60.6855Z" fill="#A8A8A8"/>
<path d="M99.4166 36.2444C99.4166 36.2444 98.5864 25.0974 99.4166 23.7455C100.247 22.3936 114.193 9.57232 127.088 24.6197C127.088 24.6197 128.305 24.7009 128.085 28.6801C127.954 31.1986 127.963 33.7279 128.111 36.2444C128.111 36.2444 100.358 39.1106 99.4166 36.2444Z" fill="#33323D"/>
<path opacity="0.1" d="M99.4166 36.2444C99.4166 36.2444 98.5864 25.0974 99.4166 23.7455C100.247 22.3936 114.193 9.57232 127.088 24.6197C127.088 24.6197 128.305 24.7009 128.085 28.6801C127.954 31.1986 127.963 33.7279 128.111 36.2444C128.111 36.2444 100.358 39.1106 99.4166 36.2444Z" fill="black"/>
<path d="M99.4166 37.6774C99.4166 37.6774 98.5864 26.5304 99.4166 25.1785C100.247 23.8266 114.193 11.0053 127.088 26.0527C127.088 26.0527 128.305 26.1339 128.085 30.1131C127.954 32.6316 127.963 35.1609 128.111 37.6774C128.111 37.6774 100.358 40.5435 99.4166 37.6774Z" fill="#33323D"/>
<path d="M128.583 32.5828C128.583 32.5828 129.468 37.3597 129.192 38.1551C128.916 38.9504 128.966 41.1813 128.966 41.1813C128.966 41.1813 129.026 42.6144 128.583 42.772C128.139 42.9296 127.753 43.0108 128.111 43.4885C128.47 43.9662 128.111 44.6828 128.111 44.6828C128.111 44.6828 127.917 45.7982 128.111 46.5147C128.305 47.2313 126.976 47.5298 127.088 48.4255C127.201 49.3212 127.573 51.8482 127.088 51.9294C126.604 52.0106 127.255 55.1132 126.818 55.1132C126.381 55.1132 126.071 60.6855 126.071 60.6855C126.071 60.6855 122.999 56.9452 120.952 57.9794C120.952 57.9794 121.118 54.8744 121.782 53.759C122.446 52.6435 122.245 49.7798 122.245 49.7798L125.539 35.5278L128.583 32.5828Z" fill="#8E8BDE"/>
<path d="M112.146 98.452C111.427 99.5961 110.652 93.4864 110.652 93.4864C110.652 93.4864 108.605 97.5468 107.276 94.8406C106.357 92.9657 107.082 87.6537 107.608 84.5702C107.844 83.1992 108.043 82.2677 108.043 82.2677L111.032 81.5511C111.032 81.5511 111.042 82.4874 111.108 83.6243C111.198 85.1601 111.392 87.0661 111.806 87.5223C112.534 88.3129 112.866 97.2984 112.146 98.452Z" fill="#AE6E79"/>
<path opacity="0.1" d="M110.597 26.9292C110.597 26.9292 105.394 26.8503 104.122 30.8295C102.85 34.8087 102.794 36.1654 102.296 36.8007C101.798 37.4361 107.718 40.7823 107.718 40.7823L107.995 54.4754C107.995 54.4754 109.158 52.782 111.039 53.5487C112.92 54.3154 115.301 53.5487 115.301 53.5487C115.301 53.5487 115.189 53.2597 116.74 53.5487C118.291 53.8377 123.215 50.0973 123.215 50.0973C123.215 50.0973 123.296 44.1071 123.187 42.8316C123.077 41.5562 126.7 32.1838 126.7 32.1838C126.7 32.1838 129.522 28.2834 126.59 26.9292C126.59 26.9292 125.553 24.6792 122.883 24.7007C120.213 24.7222 110.597 26.9292 110.597 26.9292Z" fill="black"/>
<path d="M110.597 26.6903C110.597 26.6903 105.394 26.6114 104.122 30.5906C102.85 34.5698 102.794 35.9265 102.296 36.5618C101.798 37.1972 107.718 40.5434 107.718 40.5434L107.995 54.2365C107.995 54.2365 109.158 52.5431 111.039 53.3098C112.92 54.0765 115.301 53.3098 115.301 53.3098C115.301 53.3098 115.189 53.0208 116.74 53.3098C118.291 53.5988 123.215 49.8585 123.215 49.8585C123.215 49.8585 125.151 45.3204 125.041 44.0473C124.932 42.7742 128.915 33.1391 128.915 33.1391C128.915 33.1391 129.524 28.0445 126.59 26.6903C126.59 26.6903 125.553 24.4403 122.883 24.4618C120.213 24.4833 110.597 26.6903 110.597 26.6903Z" fill="#8E8BDE"/>
<path opacity="0.1" d="M111.121 83.6171C109.981 83.106 108.191 84.2333 107.622 84.5725C107.857 83.2015 108.057 82.27 108.057 82.27L111.045 81.5535C111.045 81.5535 111.05 82.4898 111.121 83.6171Z" fill="black"/>
<path d="M103.899 36.5619H102.295C102.295 36.5619 101.963 41.42 102.295 42.8531C102.628 44.2862 102.794 44.0784 102.682 45.1389C102.571 46.1994 103.458 47.8235 103.458 47.8235C103.458 47.8235 103.567 51.8266 104.122 53.317C104.676 54.8074 103.512 61.4904 103.512 61.4904C103.83 62.644 104.3 63.6984 104.895 64.5954C105.837 65.9472 106.335 70.963 106.058 72.8738C105.78 74.7846 106.833 75.5011 106.833 75.5011C106.833 75.5011 107.276 84.4197 107.442 84.4197C107.608 84.4197 110.818 82.0312 111.814 84.0996L111.038 75.9L111.095 60.0573C111.095 60.0573 110.042 58.0653 110.597 56.3145C111.151 54.5638 110.154 50.4222 110.154 50.4222L108.714 41.1884L103.899 36.5619Z" fill="#8E8BDE"/>
<path d="M93.9376 162.434C93.9376 162.434 91.6132 161.718 91.5584 162.434C91.5036 163.151 88.7907 170.476 92.1677 172.626C95.5447 174.776 104.563 179.393 119.23 173.421C119.23 173.421 120.17 173.899 119.949 170.954C119.728 168.009 119.728 164.744 119.728 164.744C119.728 164.744 117.513 163.868 115.853 164.188C114.193 164.508 99.7485 168.726 93.9376 162.434Z" fill="#33323D"/>
<path opacity="0.1" d="M93.9376 162.434C93.9376 162.434 91.6132 161.718 91.5584 162.434C91.5036 163.151 88.7907 170.476 92.1677 172.626C95.5447 174.776 104.563 179.393 119.23 173.421C119.23 173.421 120.17 173.899 119.949 170.954C119.728 168.009 119.728 164.744 119.728 164.744C119.728 164.744 117.513 163.868 115.853 164.188C114.193 164.508 99.7485 168.726 93.9376 162.434Z" fill="black"/>
<path d="M93.9376 161.479C93.9376 161.479 91.6132 160.763 91.5584 161.479C91.5036 162.196 88.7907 169.521 92.1677 171.671C95.5447 173.821 104.563 178.438 119.23 172.466C119.23 172.466 120.17 172.944 119.949 169.999C119.728 167.054 119.728 163.789 119.728 163.789C119.728 163.789 117.513 162.912 115.853 163.232C114.193 163.553 99.7485 167.771 93.9376 161.479Z" fill="#33323D"/>
<path d="M107.492 39.4234C107.349 40.5913 107.026 41.7139 106.976 42.8962C106.926 44.0785 107.243 45.4232 108.002 45.8866C108.214 45.9776 108.419 46.0975 108.615 46.2448C108.907 46.5291 109.026 47.0641 109.088 47.5657C109.169 48.2132 109.189 48.8738 109.146 49.529C109.104 50.1882 109.006 50.8976 109.232 51.4732C109.629 52.4931 110.663 52.3426 111.45 52.056L111.18 55.0726C111.158 55.3115 111.145 55.5814 111.266 55.7438C111.323 55.8018 111.388 55.8427 111.457 55.8641C111.525 55.8854 111.596 55.8867 111.665 55.868C112.349 55.8059 113.053 55.6698 113.639 55.1515C114.225 54.6332 114.661 53.6682 114.55 52.6961C114.421 51.5688 113.61 50.6731 113.72 49.5409C113.805 48.6644 114.401 48.1079 114.792 47.4343C115.501 46.2019 115.54 44.3293 114.983 42.9344C114.427 41.5396 113.353 40.6749 112.247 40.5173C111.635 40.4289 110.997 40.5364 110.421 40.2307C110.221 40.1249 110.04 39.9539 109.893 39.731C109.746 39.508 109.637 39.2393 109.574 38.9457" fill="#2F2E41"/>
<path d="M88.1832 145.636L88.7626 143.821C88.7626 143.821 91.8906 139.629 92.6095 139.336C93.3284 139.042 96.2621 137.761 96.7054 137.761C97.1487 137.761 105.229 137.124 105.229 137.124L106.169 140.31L96.028 143.513L92.6095 147.096L88.1832 145.636Z" fill="#444176"/>
<path d="M112.548 96.7513L112.018 102.615L111.814 104.872L109.435 105.35C109.435 105.35 109.177 104.557 108.814 103.339C107.71 99.6414 105.631 92.0174 106.836 90.7013C108.439 88.9482 108.829 94.7617 108.829 94.7617L110.655 93.4863L112.548 96.7513Z" fill="#FFB9B9"/>
<path d="M117.551 109.073L105.665 106.545L103.01 132.378L114.897 134.906L117.551 109.073Z" fill="white"/>
<path d="M112.902 110.31L106.784 109.009L105.418 122.304L111.536 123.605L112.902 110.31Z" fill="#FF7863"/>
<path d="M112.174 127.664L104.762 126.088L104.465 128.975L111.877 130.552L112.174 127.664Z" fill="#FF7863"/>
<path opacity="0.1" d="M115.301 41.7759C119.136 41.7759 122.245 37.3028 122.245 31.7849C122.245 26.2671 119.136 21.7939 115.301 21.7939C111.465 21.7939 108.356 26.2671 108.356 31.7849C108.356 37.3028 111.465 41.7759 115.301 41.7759Z" fill="black"/>
<path d="M115.301 41.5374C119.136 41.5374 122.245 37.0643 122.245 31.5464C122.245 26.0285 119.136 21.5554 115.301 21.5554C111.465 21.5554 108.356 26.0285 108.356 31.5464C108.356 37.0643 111.465 41.5374 115.301 41.5374Z" fill="#AE6E79"/>
<path d="M109.574 38.9504C109.527 38.693 109.544 38.42 109.622 38.1789C109.886 37.3883 110.638 37.319 111.248 37.3596C112.681 37.4552 114.253 37.4671 115.374 36.1654C115.838 35.6304 116.358 34.2857 117.034 34.5413C117.635 34.7682 117.886 35.9409 118.511 36.2012C118.965 36.3899 119.435 36.089 119.896 35.9624C120.56 35.7737 121.241 35.9313 121.915 35.9385C122.589 35.9457 123.321 35.7618 123.781 35.0524C124.402 34.097 124.301 32.6042 124.246 31.2953C124.178 29.6046 124.258 27.9082 124.483 26.2461C124.709 24.5933 125.056 22.7446 124.422 21.3282C123.818 19.9787 122.566 19.6085 121.711 18.5743C120.911 17.6189 120.487 16.0879 119.642 15.2018C118.578 14.0864 117.132 14.2464 115.823 14.4399L112.984 14.8746C112.252 14.9868 111.49 15.1134 110.887 15.7416C109.8 16.8737 109.651 19.2264 108.621 20.466C108.163 21.0153 107.577 21.2876 107.054 21.6984C106.531 22.1093 106.026 22.7589 105.966 23.6092C105.917 24.3258 106.186 24.9874 106.317 25.6776C106.627 27.3257 106.142 29.0215 105.832 30.6815C105.521 32.3415 105.462 34.3573 106.363 35.4584C106.546 35.6829 106.758 35.8549 106.936 36.089C107.545 36.8891 107.628 38.2386 107.487 39.4042" fill="#2F2E41"/>
<path d="M115.867 44.0257C115.958 44.0257 116.033 43.7583 116.033 43.4285C116.033 43.0988 115.958 42.8314 115.867 42.8314C115.775 42.8314 115.701 43.0988 115.701 43.4285C115.701 43.7583 115.775 44.0257 115.867 44.0257Z" fill="#444053"/>
<path d="M115.867 46.5145C115.958 46.5145 116.033 46.2472 116.033 45.9174C116.033 45.5876 115.958 45.3203 115.867 45.3203C115.775 45.3203 115.701 45.5876 115.701 45.9174C115.701 46.2472 115.775 46.5145 115.867 46.5145Z" fill="#444053"/>
<path d="M112.184 98.4354C112.362 98.1416 112.48 97.3868 112.548 96.3908L110.569 92.8416C110.569 92.8416 111.407 99.7227 112.184 98.4354Z" fill="#AE6E79"/>
<path opacity="0.1" d="M114.416 157.101C114.416 157.101 111.168 164.324 101.022 163.55C91.464 162.833 86.7986 156.067 87.0211 153.678C87.2436 151.29 86.4118 145.476 88.4589 143.804C89.646 142.837 91.2083 143.41 92.3107 144.065C92.6916 144.287 93.1085 144.35 93.5132 144.245C93.9178 144.141 94.2936 143.874 94.5969 143.475C95.6047 142.168 97.4842 140.697 100.451 141.855C100.833 142.002 101.236 141.991 101.613 141.824C102.849 141.282 105.789 140.341 107.922 142.431C108.26 142.765 108.656 142.955 109.065 142.977C109.474 143 109.88 142.854 110.233 142.558L110.263 142.531C111.259 141.655 115.908 149.936 115.908 149.936C115.908 149.936 116.131 156.306 114.416 157.101Z" fill="black"/>
<path d="M114.416 157.34C114.416 157.34 111.168 164.562 101.022 163.789C91.464 163.072 86.7986 156.306 87.0211 153.917C87.2436 151.529 86.4118 145.715 88.4589 144.043C89.646 143.076 91.2083 143.649 92.3107 144.303C92.6916 144.526 93.1085 144.589 93.5132 144.484C93.9178 144.38 94.2936 144.113 94.5969 143.714C95.6047 142.407 97.4842 140.936 100.451 142.094C100.833 142.241 101.236 142.23 101.613 142.063C102.849 141.521 105.789 140.58 107.922 142.67C108.26 143.004 108.656 143.194 109.065 143.216C109.474 143.238 109.88 143.093 110.233 142.796L110.263 142.77C111.259 141.893 115.908 150.174 115.908 150.174C115.908 150.174 116.131 156.544 114.416 157.34Z" fill="#444176"/>
<path opacity="0.1" d="M101.022 160.168C104.675 160.168 107.637 155.907 107.637 150.652C107.637 145.397 104.675 141.136 101.022 141.136C97.369 141.136 94.4076 145.397 94.4076 150.652C94.4076 155.907 97.369 160.168 101.022 160.168Z" fill="black"/>
<path d="M101.022 160.406C104.675 160.406 107.637 156.146 107.637 150.891C107.637 145.635 104.675 141.375 101.022 141.375C97.369 141.375 94.4076 145.635 94.4076 150.891C94.4076 156.146 97.369 160.406 101.022 160.406Z" fill="#FFB9B9"/>
<path d="M99.126 142.665C98.432 142.935 97.748 143.451 97.4093 144.299C97.2051 144.81 97.1337 145.424 96.8381 145.849C96.4198 146.453 95.7141 146.465 95.148 146.804C94.5818 147.143 94.2083 148.338 94.7628 148.715C94.185 148.758 93.7567 149.525 93.6853 150.287C93.6139 151.048 93.8148 151.808 94.009 152.534C94.6433 154.884 95.3256 157.337 96.7236 159.009C99.0015 161.737 102.435 161.61 105.495 161.321C105.745 161.333 105.993 161.251 106.214 161.082C106.546 160.767 106.587 160.163 106.642 159.633C106.873 157.368 107.726 155.312 108.284 153.15C108.842 150.989 109.071 148.45 108.131 146.537C106.748 143.699 101.454 141.757 99.126 142.665Z" fill="#B96B6B"/>
<path opacity="0.1" d="M112.018 102.615L111.814 104.872L109.435 105.35C109.435 105.35 109.177 104.557 108.814 103.339L111.98 102.484L112.018 102.615Z" fill="black"/>
<path d="M114.525 152.484L115.91 150.174L115.633 137.437C115.769 136.518 115.862 135.586 115.91 134.649C115.965 133.295 115.217 130.271 115.217 130.271C115.333 129.666 115.491 129.079 115.687 128.518C116.019 127.563 115.219 125.413 115.219 125.413C115.219 125.413 114.027 119.841 114.525 117.053C115.023 114.266 114.404 112.675 114.404 112.675C114.404 112.675 113.917 109.57 113.972 108.297C114.027 107.024 112.865 105.828 112.865 105.828L111.98 102.723L108.439 103.678V114.426C108.439 114.426 108.659 124.697 108.439 126.689C108.218 128.681 108.88 130.589 108.88 130.589C108.88 130.589 108.493 133.534 108.825 134.649C109.157 135.765 109.822 138.471 109.822 138.471C109.698 139.438 109.736 140.433 109.933 141.375C110.265 142.77 109.933 143.566 109.933 143.566L114.525 152.484Z" fill="#444176"/>
<g opacity="0.1">
<path opacity="0.1" d="M124.488 25.4603C124.301 26.8584 124.217 28.2811 124.238 29.7046C124.252 28.5209 124.338 27.3413 124.495 26.1792C124.641 25.1187 124.827 23.977 124.787 22.9189C124.726 23.7745 124.626 24.6234 124.488 25.4603Z" fill="black"/>
<path opacity="0.1" d="M106.941 35.3198C106.763 35.0809 106.551 34.9137 106.368 34.6868C105.883 34.0921 105.679 33.2298 105.639 32.2983C105.591 33.4926 105.761 34.6486 106.368 35.4034C106.551 35.6303 106.763 35.8022 106.941 36.0363C107.312 36.565 107.528 37.2794 107.542 38.0307C107.59 37.0275 107.449 35.9838 106.941 35.3198Z" fill="black"/>
<path opacity="0.1" d="M106.411 26.4012C106.44 25.8967 106.41 25.3888 106.322 24.8988C106.225 24.3877 106.053 23.8885 105.99 23.375C105.99 23.4299 105.976 23.4873 105.971 23.547C105.923 24.2635 106.192 24.9251 106.322 25.6154C106.369 25.8725 106.399 26.1357 106.411 26.4012Z" fill="black"/>
<path opacity="0.1" d="M123.786 34.2665C123.326 34.9831 122.594 35.1598 121.92 35.1526C121.246 35.1455 120.564 34.9878 119.901 35.1789C119.44 35.3127 118.97 35.6112 118.516 35.4178C117.89 35.1574 117.64 33.9847 117.04 33.7578C116.358 33.4998 115.838 34.8445 115.38 35.3796C114.259 36.6693 112.687 36.6574 111.254 36.5738C110.645 36.5332 109.893 36.6025 109.631 37.3954C109.551 37.6359 109.533 37.9098 109.582 38.1669L107.554 38.6255C107.546 38.8658 107.528 39.1051 107.499 39.342L109.582 38.8643C109.533 38.6072 109.551 38.3333 109.631 38.0929C109.893 37.2999 110.645 37.2306 111.254 37.2712C112.687 37.3668 114.259 37.3787 115.38 36.077C115.845 35.542 116.365 34.1973 117.04 34.4552C117.64 34.6797 117.89 35.8549 118.516 36.1152C118.97 36.3015 119.44 36.0029 119.901 35.8764C120.565 35.6853 121.246 35.8429 121.92 35.8501C122.594 35.8572 123.326 35.6733 123.786 34.964C124.246 34.2546 124.312 33.1965 124.284 32.1647C124.264 32.9648 124.15 33.7052 123.786 34.2665Z" fill="black"/>
</g>
<g opacity="0.1">
<path opacity="0.1" d="M108.417 45.7383C108.221 45.5901 108.016 45.4701 107.804 45.38C107.444 45.1444 107.158 44.7236 107.002 44.2001C107.127 45.0241 107.442 45.7741 107.97 46.0965C108.182 46.1867 108.387 46.3067 108.583 46.4548C108.708 46.5819 108.809 46.7518 108.877 46.9492C108.81 46.4811 108.689 46.0034 108.417 45.7383Z" fill="black"/>
<path opacity="0.1" d="M111.253 51.5494C110.487 51.8288 109.488 51.9745 109.068 51.0406C109.081 51.2657 109.126 51.4844 109.201 51.6831C109.559 52.6027 110.436 52.5717 111.181 52.3447L111.253 51.5494Z" fill="black"/>
<path opacity="0.1" d="M114.354 52.2041C114.46 53.1738 114.022 54.1412 113.441 54.6499C112.86 55.1586 112.151 55.2996 111.467 55.3664C111.358 55.3867 111.248 55.3687 111.145 55.3139C111.114 55.4149 111.103 55.5267 111.116 55.6358C111.128 55.7448 111.162 55.8464 111.214 55.928C111.266 56.0096 111.333 56.0677 111.407 56.0952C111.482 56.1227 111.56 56.1185 111.633 56.083C112.317 56.0209 113.021 55.8847 113.607 55.3664C114.193 54.8481 114.631 53.8832 114.518 52.9111C114.486 52.6657 114.431 52.4277 114.354 52.2041Z" fill="black"/>
<path opacity="0.1" d="M115.091 43.5576C115.193 44.1383 115.201 44.7447 115.114 45.3304C115.028 45.9161 114.85 46.4657 114.593 46.9373C114.201 47.6204 113.605 48.1674 113.521 49.0439C113.493 49.4469 113.55 49.8527 113.687 50.2071C113.672 50.059 113.672 49.9086 113.687 49.7605C113.771 48.8839 114.368 48.3274 114.759 47.6538C115.404 46.5337 115.493 44.8832 115.091 43.5576Z" fill="black"/>
</g>
<g opacity="0.1">
<path opacity="0.1" d="M95.1497 147.172C95.7142 146.835 96.4198 146.823 96.8399 146.216C97.1354 145.791 97.2068 145.178 97.411 144.669C97.7431 143.818 98.4321 143.305 99.1261 143.035C101.45 142.127 106.75 144.067 108.131 146.878C108.536 147.729 108.757 148.733 108.766 149.763C108.819 148.573 108.596 147.392 108.133 146.403C106.752 143.592 101.457 141.652 99.1278 142.56C98.4338 142.83 97.7497 143.343 97.4127 144.193C97.2085 144.702 97.1371 145.316 96.8415 145.741C96.4215 146.345 95.7159 146.357 95.1514 146.697C94.7214 146.952 94.4026 147.707 94.5188 148.213C94.5651 147.984 94.6456 147.772 94.7545 147.593C94.8635 147.413 94.9983 147.269 95.1497 147.172Z" fill="black"/>
<path opacity="0.1" d="M93.6887 150.642C93.7584 149.878 94.1868 149.114 94.7662 149.071C94.7054 149.034 94.651 148.978 94.607 148.908C94.5631 148.837 94.5307 148.753 94.5122 148.662C94.2918 148.78 94.098 148.982 93.9516 149.247C93.8053 149.512 93.7121 149.829 93.6821 150.164C93.6663 150.359 93.6663 150.555 93.6821 150.75C93.6887 150.714 93.6887 150.678 93.6887 150.642Z" fill="black"/>
</g>
<path d="M134.631 65.7494L119.741 69.434L123.081 97.3677L137.971 93.6832L134.631 65.7494Z" fill="white"/>
<path d="M126.848 87.6106L123.35 88.4763L124.135 95.039L127.633 94.1733L126.848 87.6106Z" fill="#FF7863"/>
<path d="M131.689 86.4117L128.191 87.2773L128.975 93.8401L132.474 92.9744L131.689 86.4117Z" fill="#FF7863"/>
<path d="M135.11 76.7972L122.841 79.8279L123.628 86.4204L135.897 83.3897L135.11 76.7972Z" fill="#FF7863"/>
<path d="M134.087 68.9287L121.819 71.9594L121.994 73.4301L134.263 70.3994L134.087 68.9287Z" fill="#FF7863"/>
<path d="M134.49 71.6343L122.221 74.665L122.397 76.1358L134.665 73.1051L134.49 71.6343Z" fill="#FF7863"/>
<path d="M122.245 56.3865C122.245 56.3865 115.3 66.4181 118.787 68.9666C122.274 71.5151 124.543 60.4875 124.543 60.4875L125.094 57.9796L122.245 56.3865Z" fill="#AE6E79"/>
<path opacity="0.1" d="M121.638 55.5003L120.779 58.2279C120.779 58.2279 125.013 59.083 125.898 60.9245L125.373 56.1117L124.751 54.0576L121.638 55.5003Z" fill="black"/>
<path d="M121.804 55.261L120.945 57.9886C120.945 57.9886 125.179 58.8437 126.064 60.6852L125.539 55.8724L124.917 53.8184L121.804 55.261Z" fill="#8E8BDE"/>
<path d="M147.432 105.412L147.341 105.503L147.467 105.584L147.603 105.567L147.62 105.431L147.432 105.412Z" fill="#464A5F"/>
<path opacity="0.1" d="M147.432 105.412L147.341 105.503L147.467 105.584L147.603 105.567L147.62 105.431L147.432 105.412Z" fill="black"/>
<path d="M147.432 105.412L147.339 105.498L147.266 105.369L147.311 105.264L147.352 105.245L147.432 105.412Z" fill="#9C9CA1"/>
<path opacity="0.1" d="M147.432 105.412L147.339 105.498L147.266 105.369L147.311 105.264L147.352 105.245L147.432 105.412Z" fill="black"/>
<path d="M163.774 88.9055L156.977 74.7825C156.917 74.6564 156.84 74.5487 156.751 74.4655C156.661 74.3822 156.562 74.3251 156.457 74.2974C156.352 74.2696 156.245 74.2718 156.141 74.3038C156.037 74.3359 155.939 74.3971 155.851 74.4839L140.699 89.4453C140.522 89.6204 140.4 89.8895 140.361 90.1935C140.321 90.4975 140.367 90.8117 140.489 91.0671L147.268 105.369L163.774 88.9055Z" fill="#9C9CA1"/>
<path opacity="0.1" d="M163.774 88.9055L156.977 74.7825C156.917 74.6564 156.84 74.5487 156.751 74.4655C156.661 74.3822 156.562 74.3251 156.457 74.2974C156.352 74.2696 156.245 74.2718 156.141 74.3038C156.037 74.3359 155.939 74.3971 155.851 74.4839L140.699 89.4453C140.522 89.6204 140.4 89.8895 140.361 90.1935C140.321 90.4975 140.367 90.8117 140.489 91.0671L147.268 105.369L163.774 88.9055Z" fill="black"/>
<path d="M163.94 88.9386L157.143 74.8155C157.082 74.6894 157.005 74.5816 156.916 74.4983C156.827 74.415 156.727 74.3579 156.622 74.3302C156.517 74.3024 156.41 74.3047 156.306 74.3367C156.202 74.3688 156.103 74.43 156.015 74.517L140.865 89.4879C140.688 89.663 140.566 89.9319 140.527 90.2357C140.487 90.5396 140.532 90.8538 140.653 91.1097L147.432 105.419L163.94 88.9386Z" fill="#9C9CA1"/>
<path d="M169.621 91.731L163.976 89.1228L147.467 105.587L153.201 108.285C153.33 108.345 153.466 108.362 153.599 108.333C153.733 108.304 153.86 108.23 153.97 108.118L169.668 92.1729C169.697 92.1491 169.721 92.1131 169.736 92.0695C169.751 92.0259 169.756 91.9768 169.751 91.9288C169.746 91.8808 169.731 91.8362 169.708 91.8009C169.684 91.7655 169.654 91.7412 169.621 91.731Z" fill="#464A5F"/>
<path opacity="0.1" d="M169.621 91.731L163.976 89.1228L147.467 105.587L153.201 108.285C153.33 108.345 153.466 108.362 153.599 108.333C153.733 108.304 153.86 108.23 153.97 108.118L169.668 92.1729C169.697 92.1491 169.721 92.1131 169.736 92.0695C169.751 92.0259 169.756 91.9768 169.751 91.9288C169.746 91.8808 169.731 91.8362 169.708 91.8009C169.684 91.7655 169.654 91.7412 169.621 91.731Z" fill="black"/>
<path d="M169.587 91.566L163.942 88.9554L147.432 105.419L153.167 108.113C153.295 108.174 153.431 108.191 153.565 108.163C153.698 108.134 153.825 108.061 153.935 107.949L169.633 92.0031C169.661 91.9788 169.684 91.9428 169.698 91.8999C169.712 91.857 169.717 91.809 169.712 91.7621C169.707 91.7153 169.692 91.6716 169.67 91.6366C169.648 91.6017 169.619 91.5771 169.587 91.566Z" fill="#464A5F"/>
<g opacity="0.1">
<path opacity="0.1" d="M161.274 88.3082L160.857 87.4484C160.832 87.3985 160.794 87.3644 160.752 87.3533C160.71 87.3422 160.667 87.3548 160.631 87.3886L160.012 87.9834C159.977 88.0186 159.953 88.0717 159.945 88.1317C159.936 88.1917 159.944 88.254 159.967 88.3058L160.351 89.1537C160.375 89.2045 160.411 89.24 160.453 89.2529C160.495 89.2658 160.538 89.2551 160.575 89.223L161.227 88.633C161.263 88.5981 161.287 88.5447 161.296 88.4841C161.305 88.4235 161.297 88.3605 161.274 88.3082Z" fill="black"/>
<path opacity="0.1" d="M160.161 89.4164L159.743 88.5589C159.718 88.5091 159.68 88.475 159.638 88.4639C159.596 88.4528 159.553 88.4654 159.517 88.4992L158.899 89.0987C158.864 89.1336 158.84 89.1866 158.831 89.2466C158.823 89.3066 158.83 89.3691 158.853 89.4212L159.236 90.2691C159.26 90.3203 159.297 90.3563 159.338 90.3696C159.38 90.383 159.424 90.3726 159.461 90.3408L160.115 89.7508C160.133 89.7334 160.149 89.711 160.161 89.6847C160.174 89.6584 160.182 89.6288 160.187 89.5976C160.191 89.5665 160.191 89.5344 160.187 89.5033C160.182 89.4722 160.174 89.4427 160.161 89.4164Z" fill="black"/>
<path opacity="0.1" d="M158.993 90.5795L158.574 89.722C158.549 89.6722 158.512 89.6381 158.47 89.627C158.427 89.6159 158.384 89.6285 158.348 89.6623L157.729 90.2618C157.694 90.2971 157.669 90.3507 157.661 90.4113C157.653 90.4718 157.661 90.5347 157.684 90.5867L158.068 91.4346C158.092 91.4854 158.128 91.5209 158.17 91.5338C158.212 91.5467 158.255 91.536 158.292 91.5038L158.944 90.9139C158.963 90.8967 158.979 90.8744 158.992 90.8482C159.004 90.822 159.013 90.7924 159.017 90.7613C159.022 90.7301 159.022 90.698 159.018 90.6668C159.013 90.6356 159.005 90.6059 158.993 90.5795Z" fill="black"/>
<path opacity="0.1" d="M157.809 91.7593L157.39 90.8994C157.365 90.8502 157.328 90.8166 157.286 90.8055C157.245 90.7944 157.202 90.8066 157.166 90.8397L156.547 91.4416C156.512 91.4769 156.488 91.53 156.48 91.59C156.471 91.65 156.479 91.7123 156.502 91.7641L156.886 92.612C156.909 92.6625 156.946 92.6981 156.987 92.7114C157.028 92.7247 157.072 92.7148 157.108 92.6836L157.762 92.0913C157.78 92.0739 157.796 92.0516 157.808 92.0255C157.821 91.9994 157.829 91.97 157.833 91.9392C157.838 91.9083 157.838 91.8766 157.834 91.8457C157.829 91.8148 157.821 91.7855 157.809 91.7593Z" fill="black"/>
<path opacity="0.1" d="M156.627 92.9369L156.208 92.0795C156.183 92.0296 156.146 91.9955 156.104 91.9844C156.062 91.9733 156.018 91.9859 155.982 92.0197L155.365 92.6193C155.33 92.6542 155.305 92.7071 155.297 92.7671C155.288 92.8271 155.296 92.8896 155.318 92.9417L155.702 93.7896C155.726 93.8408 155.762 93.8768 155.804 93.8902C155.846 93.9035 155.889 93.8931 155.926 93.8613L156.58 93.2689C156.598 93.2516 156.614 93.2292 156.626 93.2031C156.638 93.177 156.647 93.1477 156.651 93.1168C156.656 93.086 156.656 93.0542 156.651 93.0233C156.647 92.9924 156.639 92.9631 156.627 92.9369Z" fill="black"/>
<path opacity="0.1" d="M155.496 94.2221L154.976 93.1569C154.971 93.145 154.964 93.1349 154.955 93.127C154.947 93.1191 154.938 93.1137 154.928 93.111C154.918 93.1084 154.908 93.1085 154.899 93.1115C154.889 93.1144 154.88 93.1201 154.872 93.1282L154.111 93.8662C154.103 93.874 154.096 93.884 154.09 93.8958C154.084 93.9076 154.08 93.9209 154.078 93.935C154.076 93.949 154.076 93.9634 154.078 93.9775C154.08 93.9915 154.084 94.0049 154.09 94.0167L154.566 95.07C154.577 95.0942 154.594 95.1113 154.614 95.1176C154.633 95.1238 154.654 95.1188 154.671 95.1035L155.474 94.3869C155.484 94.3791 155.492 94.3682 155.499 94.3553C155.505 94.3423 155.51 94.3274 155.512 94.3117C155.514 94.296 155.513 94.2799 155.511 94.2644C155.508 94.2489 155.503 94.2345 155.496 94.2221Z" fill="black"/>
<path opacity="0.1" d="M154.314 95.3997L153.791 94.3344C153.785 94.3225 153.778 94.3123 153.769 94.3044C153.761 94.2965 153.752 94.291 153.742 94.2884C153.732 94.2857 153.722 94.2859 153.712 94.2889C153.702 94.2918 153.693 94.2976 153.684 94.3058L152.924 95.0438C152.908 95.0602 152.897 95.0851 152.893 95.1132C152.889 95.1413 152.893 95.1704 152.904 95.1943L153.381 96.2476C153.386 96.2601 153.393 96.2709 153.401 96.2794C153.409 96.288 153.418 96.294 153.428 96.2971C153.438 96.3003 153.448 96.3005 153.458 96.2977C153.468 96.2949 153.477 96.2892 153.485 96.281L154.287 95.5645C154.297 95.5576 154.306 95.5474 154.314 95.5347C154.321 95.5221 154.326 95.5072 154.328 95.4914C154.331 95.4755 154.331 95.459 154.328 95.4431C154.326 95.4272 154.321 95.4123 154.314 95.3997Z" fill="black"/>
<path opacity="0.1" d="M153.266 96.4434L152.747 95.3877C152.735 95.3647 152.717 95.3491 152.698 95.3442C152.678 95.3393 152.658 95.3455 152.642 95.3615L151.882 96.0971C151.865 96.1136 151.853 96.1387 151.849 96.1673C151.845 96.1958 151.849 96.2254 151.86 96.25L152.336 97.3033C152.348 97.327 152.365 97.3437 152.384 97.3499C152.404 97.3561 152.424 97.3514 152.441 97.3367L153.245 96.6202C153.256 96.6127 153.265 96.6015 153.273 96.5875C153.28 96.5735 153.285 96.5572 153.287 96.5398C153.289 96.5225 153.289 96.5047 153.285 96.488C153.281 96.4712 153.275 96.4559 153.266 96.4434Z" fill="black"/>
<path opacity="0.1" d="M152.094 97.6089L151.574 96.5436C151.563 96.5206 151.545 96.505 151.526 96.5001C151.506 96.4951 151.486 96.5013 151.47 96.5173L150.709 97.253C150.701 97.2609 150.694 97.2712 150.688 97.2832C150.682 97.2952 150.678 97.3087 150.676 97.323C150.674 97.3372 150.674 97.3518 150.676 97.366C150.678 97.3803 150.682 97.3938 150.688 97.4058L151.164 98.4592C151.175 98.4829 151.192 98.4996 151.212 98.5058C151.231 98.512 151.252 98.5073 151.269 98.4926L152.072 97.7761C152.082 97.7679 152.09 97.7569 152.097 97.7437C152.103 97.7305 152.108 97.7154 152.11 97.6996C152.112 97.6837 152.111 97.6674 152.109 97.6517C152.106 97.6361 152.101 97.6215 152.094 97.6089Z" fill="black"/>
<path opacity="0.1" d="M150.958 98.7315L150.439 97.6663C150.433 97.6544 150.426 97.6443 150.418 97.6364C150.41 97.6285 150.4 97.6231 150.391 97.6204C150.381 97.6178 150.371 97.6179 150.361 97.6209C150.351 97.6238 150.342 97.6295 150.334 97.6376L149.574 98.3756C149.565 98.3834 149.558 98.3934 149.553 98.4052C149.547 98.417 149.543 98.4303 149.541 98.4444C149.539 98.4584 149.539 98.4728 149.541 98.4869C149.543 98.5009 149.547 98.5143 149.552 98.5261L150.029 99.5794C150.04 99.6036 150.057 99.6207 150.076 99.627C150.096 99.6332 150.116 99.6282 150.133 99.6129L150.937 98.8963C150.946 98.8885 150.955 98.8776 150.961 98.8647C150.968 98.8517 150.972 98.8368 150.974 98.8211C150.976 98.8054 150.976 98.7893 150.973 98.7738C150.97 98.7584 150.965 98.7439 150.958 98.7315Z" fill="black"/>
<path opacity="0.1" d="M149.823 99.8733L149.308 98.8057C149.296 98.7827 149.279 98.767 149.259 98.7621C149.24 98.7572 149.22 98.7634 149.203 98.7794L148.443 99.5151C148.435 99.523 148.427 99.5333 148.422 99.5453C148.416 99.5573 148.412 99.5708 148.41 99.585C148.408 99.5993 148.408 99.6139 148.41 99.6281C148.412 99.6424 148.416 99.6559 148.421 99.6679L148.898 100.721C148.909 100.745 148.926 100.762 148.946 100.768C148.965 100.774 148.985 100.769 149.002 100.755L149.806 100.038C149.815 100.03 149.823 100.018 149.829 100.005C149.835 99.9918 149.839 99.9769 149.841 99.9612C149.842 99.9456 149.841 99.9296 149.838 99.9145C149.835 99.8993 149.83 99.8853 149.823 99.8733Z" fill="black"/>
<path opacity="0.1" d="M148.687 101.003L148.168 99.9377C148.162 99.9259 148.155 99.9157 148.147 99.9079C148.138 99.9 148.129 99.8946 148.119 99.8919C148.11 99.8892 148.1 99.8894 148.09 99.8923C148.08 99.8953 148.071 99.901 148.063 99.9091L147.303 100.642C147.294 100.65 147.287 100.66 147.281 100.672C147.276 100.684 147.272 100.697 147.27 100.711C147.268 100.725 147.268 100.74 147.27 100.754C147.272 100.768 147.275 100.781 147.281 100.793L147.757 101.846C147.768 101.87 147.785 101.887 147.805 101.894C147.825 101.9 147.845 101.895 147.862 101.88L148.666 101.163C148.675 101.155 148.683 101.144 148.689 101.132C148.695 101.119 148.699 101.105 148.701 101.09C148.703 101.075 148.703 101.059 148.701 101.044C148.698 101.029 148.694 101.015 148.687 101.003Z" fill="black"/>
<path opacity="0.1" d="M160.527 86.7532L160.108 85.8933C160.083 85.8434 160.046 85.8094 160.004 85.7982C159.962 85.7871 159.918 85.7998 159.882 85.8336L159.27 86.4355C159.235 86.4704 159.21 86.5233 159.202 86.5833C159.193 86.6434 159.201 86.7059 159.223 86.7579L159.607 87.6058C159.631 87.6566 159.667 87.6922 159.709 87.7051C159.751 87.718 159.795 87.7072 159.831 87.6751L160.485 87.0851C160.521 87.049 160.546 86.9937 160.553 86.9315C160.561 86.8693 160.552 86.8051 160.527 86.7532Z" fill="black"/>
<path opacity="0.1" d="M158.891 83.3545L158.473 82.4899C158.448 82.4407 158.411 82.4071 158.369 82.396C158.327 82.3849 158.284 82.3971 158.249 82.4302L157.629 83.0297C157.594 83.0646 157.57 83.1175 157.561 83.1775C157.553 83.2376 157.56 83.3001 157.583 83.3521L157.966 84.2C157.99 84.2512 158.027 84.2872 158.068 84.3006C158.11 84.3139 158.154 84.3036 158.191 84.2717L158.845 83.6817C158.881 83.6467 158.906 83.5929 158.914 83.5318C158.923 83.4706 158.915 83.407 158.891 83.3545Z" fill="black"/>
<path opacity="0.1" d="M159.413 87.8616L158.994 87.0042C158.969 86.955 158.932 86.9213 158.89 86.9102C158.849 86.8991 158.806 86.9114 158.77 86.9445L158.151 87.544C158.116 87.5792 158.092 87.6323 158.084 87.6923C158.075 87.7523 158.083 87.8146 158.106 87.8664L158.488 88.7143C158.512 88.7655 158.548 88.8015 158.59 88.8149C158.632 88.8282 158.675 88.8179 158.712 88.786L159.366 88.196C159.385 88.1787 159.4 88.1562 159.413 88.1299C159.425 88.1036 159.434 88.074 159.438 88.0429C159.442 88.0117 159.442 87.9797 159.438 87.9486C159.434 87.9174 159.425 87.8879 159.413 87.8616Z" fill="black"/>
<path opacity="0.1" d="M158.244 89.0248L157.825 88.1673C157.8 88.1175 157.763 88.0834 157.721 88.0723C157.679 88.0612 157.635 88.0738 157.599 88.1076L156.982 88.7C156.946 88.7349 156.922 88.7883 156.913 88.8489C156.904 88.9095 156.912 88.9725 156.935 89.0248L157.319 89.8727C157.343 89.9235 157.38 89.959 157.421 89.9719C157.463 89.9848 157.507 89.9741 157.543 89.942L158.197 89.352C158.233 89.317 158.258 89.2632 158.267 89.2021C158.275 89.1409 158.267 89.0773 158.244 89.0248Z" fill="black"/>
<path opacity="0.1" d="M157.06 90.2046L156.643 89.3447C156.618 89.2948 156.581 89.2608 156.539 89.2497C156.497 89.2385 156.453 89.2512 156.417 89.285L155.798 89.8941C155.763 89.9293 155.739 89.9824 155.731 90.0424C155.723 90.1024 155.731 90.1647 155.753 90.2165L156.137 91.0644C156.161 91.1152 156.198 91.1508 156.239 91.1637C156.281 91.1766 156.325 91.1658 156.361 91.1337L157.014 90.5437C157.032 90.5264 157.049 90.5037 157.061 90.477C157.074 90.4503 157.083 90.4202 157.087 90.3885C157.092 90.3568 157.091 90.3241 157.087 90.2925C157.082 90.2609 157.073 90.231 157.06 90.2046Z" fill="black"/>
<path opacity="0.1" d="M157.804 84.5179L157.385 83.6604C157.36 83.6112 157.323 83.5776 157.281 83.5665C157.24 83.5554 157.197 83.5676 157.161 83.6007L156.542 84.2002C156.507 84.2351 156.482 84.2881 156.474 84.3481C156.465 84.4081 156.473 84.4706 156.495 84.5227L156.879 85.3706C156.903 85.4218 156.939 85.4578 156.981 85.4711C157.023 85.4845 157.066 85.4741 157.103 85.4422L157.757 84.8523C157.776 84.8349 157.792 84.8124 157.804 84.7861C157.816 84.7598 157.825 84.7303 157.829 84.6991C157.834 84.668 157.834 84.6359 157.829 84.6048C157.825 84.5737 157.816 84.5441 157.804 84.5179Z" fill="black"/>
<path opacity="0.1" d="M156.635 85.6832L156.217 84.8234C156.191 84.7735 156.154 84.7394 156.112 84.7283C156.07 84.7172 156.026 84.7298 155.991 84.7636L155.373 85.356C155.338 85.3909 155.314 85.4438 155.305 85.5038C155.296 85.5639 155.304 85.6264 155.327 85.6784L155.71 86.5263C155.734 86.5771 155.771 86.6126 155.813 86.6255C155.854 86.6384 155.898 86.6277 155.934 86.5956L156.588 86.0056C156.623 85.9707 156.648 85.9178 156.656 85.8578C156.665 85.7978 156.657 85.7353 156.635 85.6832Z" fill="black"/>
<path opacity="0.1" d="M155.451 86.8611L155.033 86.0036C155.008 85.954 154.971 85.9199 154.929 85.9084C154.888 85.8968 154.844 85.9087 154.809 85.9415L154.189 86.5506C154.155 86.5858 154.131 86.6389 154.122 86.6989C154.114 86.7589 154.122 86.8212 154.145 86.873L154.528 87.7209C154.552 87.7721 154.588 87.8081 154.63 87.8215C154.672 87.8348 154.716 87.8245 154.752 87.7926L155.405 87.2002C155.424 87.1829 155.44 87.1602 155.453 87.1335C155.465 87.1068 155.474 87.0767 155.478 87.045C155.483 87.0133 155.483 86.9806 155.478 86.949C155.473 86.9174 155.464 86.8875 155.451 86.8611Z" fill="black"/>
<path opacity="0.1" d="M155.878 91.3822L155.459 90.5247C155.435 90.4751 155.398 90.441 155.356 90.4295C155.314 90.4179 155.271 90.4298 155.235 90.4626L154.621 91.0645C154.586 91.0998 154.562 91.1529 154.554 91.2129C154.545 91.2729 154.553 91.3352 154.576 91.387L154.953 92.2349C154.977 92.2854 155.013 92.321 155.054 92.3343C155.096 92.3476 155.139 92.3377 155.175 92.3065L155.83 91.7142C155.848 91.697 155.864 91.6748 155.876 91.6488C155.889 91.6228 155.897 91.5935 155.902 91.5626C155.906 91.5318 155.906 91.4999 155.902 91.469C155.898 91.438 155.89 91.4085 155.878 91.3822Z" fill="black"/>
<path opacity="0.1" d="M154.696 92.5597L154.277 91.7023C154.252 91.6524 154.215 91.6183 154.173 91.6072C154.131 91.5961 154.087 91.6087 154.052 91.6425L153.434 92.242C153.399 92.2769 153.375 92.3299 153.366 92.3899C153.357 92.4499 153.365 92.5124 153.387 92.5645L153.771 93.4124C153.795 93.4636 153.831 93.4996 153.873 93.5129C153.915 93.5263 153.959 93.5159 153.995 93.484L154.649 92.8941C154.668 92.8767 154.684 92.8543 154.696 92.828C154.708 92.8017 154.717 92.7721 154.721 92.7409C154.726 92.7098 154.726 92.6777 154.721 92.6466C154.717 92.6155 154.708 92.586 154.696 92.5597Z" fill="black"/>
<path opacity="0.1" d="M153.565 93.8448L153.045 92.7795C153.04 92.7677 153.033 92.7575 153.024 92.7497C153.016 92.7418 153.007 92.7364 152.997 92.7337C152.987 92.731 152.977 92.7312 152.968 92.7341C152.958 92.7371 152.949 92.7428 152.941 92.7509L152.18 93.4889C152.172 93.4967 152.165 93.5067 152.159 93.5185C152.153 93.5303 152.149 93.5436 152.147 93.5576C152.145 93.5716 152.145 93.5861 152.147 93.6001C152.149 93.6142 152.153 93.6275 152.159 93.6394L152.635 94.6927C152.64 94.7049 152.647 94.7155 152.655 94.7239C152.664 94.7322 152.673 94.7381 152.683 94.7412C152.692 94.7443 152.702 94.7446 152.712 94.742C152.722 94.7394 152.731 94.734 152.74 94.7262L153.543 94.0096C153.553 94.0017 153.561 93.9909 153.568 93.9779C153.574 93.9649 153.579 93.9501 153.581 93.9344C153.583 93.9187 153.582 93.9026 153.58 93.8871C153.577 93.8716 153.572 93.8572 153.565 93.8448Z" fill="black"/>
<path opacity="0.1" d="M152.517 94.8886L151.998 93.821C151.986 93.7979 151.969 93.7823 151.949 93.7774C151.93 93.7725 151.91 93.7787 151.893 93.7947L151.134 94.5303C151.118 94.5468 151.106 94.572 151.102 94.6005C151.098 94.629 151.102 94.6587 151.113 94.6832L151.589 95.7365C151.6 95.7603 151.618 95.7769 151.637 95.7832C151.656 95.7894 151.677 95.7847 151.694 95.77L152.497 95.0534C152.507 95.046 152.516 95.0353 152.523 95.0222C152.529 95.0092 152.534 94.9941 152.536 94.9781C152.538 94.9622 152.537 94.9458 152.534 94.9303C152.531 94.9147 152.525 94.9005 152.517 94.8886Z" fill="black"/>
<path opacity="0.1" d="M151.345 96.0542L150.826 94.9889C150.814 94.9659 150.796 94.9503 150.777 94.9454C150.757 94.9405 150.737 94.9467 150.721 94.9627L149.961 95.6983C149.952 95.706 149.945 95.7161 149.939 95.7279C149.934 95.7397 149.93 95.753 149.928 95.767C149.926 95.781 149.926 95.7955 149.928 95.8095C149.93 95.8236 149.933 95.8369 149.939 95.8488L150.415 96.9045C150.427 96.9282 150.444 96.9449 150.463 96.9511C150.483 96.9573 150.503 96.9526 150.52 96.9379L151.324 96.2214C151.333 96.2132 151.342 96.2022 151.348 96.189C151.355 96.1758 151.359 96.1608 151.361 96.1449C151.363 96.129 151.363 96.1127 151.36 96.0971C151.357 96.0814 151.352 96.0668 151.345 96.0542Z" fill="black"/>
<path opacity="0.1" d="M150.21 97.1862L149.69 96.121C149.684 96.1091 149.677 96.099 149.669 96.0911C149.661 96.0832 149.652 96.0778 149.642 96.0751C149.632 96.0725 149.622 96.0726 149.612 96.0756C149.603 96.0785 149.594 96.0842 149.585 96.0923L148.825 96.8208C148.817 96.8285 148.809 96.8386 148.804 96.8504C148.798 96.8622 148.794 96.8755 148.792 96.8895C148.79 96.9035 148.79 96.918 148.792 96.932C148.794 96.9461 148.798 96.9594 148.803 96.9713L149.28 98.0246C149.291 98.0488 149.308 98.0659 149.327 98.0721C149.347 98.0784 149.368 98.0733 149.385 98.058L150.188 97.3415C150.197 97.3335 150.204 97.3231 150.21 97.3109C150.216 97.2987 150.22 97.285 150.222 97.2705C150.224 97.256 150.224 97.241 150.222 97.2266C150.22 97.2121 150.216 97.1984 150.21 97.1862Z" fill="black"/>
<path opacity="0.1" d="M157.465 87.4079L157.047 86.5504C157.022 86.5012 156.984 86.4676 156.943 86.4565C156.901 86.4454 156.858 86.4576 156.822 86.4907L156.203 87.0926C156.168 87.1279 156.144 87.181 156.136 87.241C156.128 87.301 156.136 87.3633 156.158 87.4151L156.542 88.263C156.566 88.3131 156.602 88.3482 156.643 88.3611C156.685 88.374 156.728 88.3636 156.764 88.3322L157.418 87.7423C157.437 87.7249 157.453 87.7024 157.465 87.6761C157.478 87.6498 157.486 87.6203 157.49 87.5891C157.495 87.558 157.495 87.5259 157.49 87.4948C157.486 87.4637 157.477 87.4341 157.465 87.4079Z" fill="black"/>
<path opacity="0.1" d="M156.281 88.5875L155.863 87.7276C155.838 87.6778 155.8 87.6437 155.758 87.6326C155.716 87.6215 155.673 87.6341 155.637 87.6679L155.019 88.2698C154.984 88.3047 154.96 88.3577 154.951 88.4177C154.943 88.4777 154.95 88.5402 154.973 88.5923L155.356 89.4402C155.38 89.4914 155.417 89.5274 155.458 89.5408C155.5 89.5541 155.544 89.5438 155.581 89.5119L156.235 88.9195C156.253 88.9022 156.269 88.8798 156.281 88.8537C156.293 88.8276 156.302 88.7983 156.306 88.7674C156.31 88.7366 156.31 88.7048 156.306 88.6739C156.302 88.643 156.293 88.6137 156.281 88.5875Z" fill="black"/>
<path opacity="0.1" d="M155.101 89.765L154.682 88.9076C154.657 88.8577 154.62 88.8237 154.578 88.8125C154.536 88.8014 154.492 88.8141 154.457 88.8479L153.837 89.4474C153.803 89.4826 153.779 89.5357 153.77 89.5957C153.762 89.6557 153.77 89.7181 153.792 89.7698L154.176 90.6177C154.2 90.6689 154.236 90.7049 154.278 90.7183C154.32 90.7316 154.364 90.7213 154.4 90.6894L155.053 90.0971C155.071 90.0799 155.087 90.0577 155.099 90.0316C155.112 90.0056 155.12 89.9763 155.125 89.9455C155.129 89.9146 155.129 89.8828 155.125 89.8518C155.121 89.8208 155.113 89.7914 155.101 89.765Z" fill="black"/>
<path opacity="0.1" d="M153.917 90.9427L153.499 90.0852C153.474 90.036 153.437 90.0024 153.395 89.9913C153.353 89.9802 153.31 89.9924 153.275 90.0255L152.655 90.625C152.62 90.6603 152.596 90.7134 152.588 90.7734C152.58 90.8334 152.588 90.8957 152.61 90.9475L152.994 91.8049C153.018 91.8555 153.054 91.8911 153.095 91.9044C153.137 91.9177 153.18 91.9078 153.216 91.8766L153.871 91.2866C153.89 91.2693 153.907 91.2464 153.92 91.2193C153.933 91.1922 153.942 91.1616 153.946 91.1293C153.95 91.097 153.95 91.0637 153.945 91.0316C153.94 90.9995 153.931 90.9693 153.917 90.9427Z" fill="black"/>
<path opacity="0.1" d="M152.795 92.228L152.275 91.1627C152.269 91.1509 152.262 91.1407 152.254 91.1328C152.246 91.125 152.236 91.1196 152.227 91.1169C152.217 91.1142 152.207 91.1144 152.197 91.1173C152.188 91.1203 152.178 91.126 152.17 91.1341L151.41 91.8721C151.393 91.8881 151.382 91.9129 151.378 91.941C151.374 91.9691 151.377 91.9984 151.388 92.0226L151.865 93.0783C151.87 93.0903 151.877 93.1007 151.885 93.1088C151.894 93.1169 151.903 93.1226 151.913 93.1254C151.922 93.1283 151.932 93.1284 151.942 93.1256C151.952 93.1229 151.961 93.1173 151.969 93.1093L152.773 92.3928C152.783 92.3849 152.791 92.3741 152.797 92.3611C152.804 92.3481 152.808 92.3333 152.81 92.3176C152.812 92.3019 152.812 92.2858 152.809 92.2703C152.807 92.2548 152.802 92.2404 152.795 92.228Z" fill="black"/>
<path opacity="0.1" d="M151.74 93.2713L151.221 92.2036C151.209 92.1804 151.191 92.1647 151.171 92.1598C151.152 92.1549 151.131 92.1612 151.115 92.1773L150.356 92.913C150.339 92.9295 150.327 92.9546 150.323 92.9831C150.319 93.0117 150.323 93.0413 150.334 93.0658L150.811 94.1192C150.822 94.1434 150.839 94.1604 150.858 94.1667C150.878 94.1729 150.898 94.1679 150.915 94.1526L151.719 93.4361C151.729 93.4282 151.737 93.4174 151.743 93.4044C151.75 93.3914 151.754 93.3765 151.756 93.3609C151.758 93.3452 151.758 93.329 151.755 93.3136C151.752 93.2981 151.747 93.2836 151.74 93.2713Z" fill="black"/>
<path opacity="0.1" d="M150.568 94.4324L150.049 93.3647C150.037 93.3415 150.019 93.3259 149.999 93.321C149.979 93.3161 149.959 93.3223 149.942 93.3385L149.182 94.0741C149.166 94.091 149.154 94.1161 149.15 94.1444C149.146 94.1728 149.15 94.2023 149.16 94.227L149.638 95.2803C149.649 95.3045 149.666 95.3215 149.686 95.3278C149.706 95.3341 149.726 95.329 149.743 95.3137L150.545 94.5972C150.555 94.5898 150.564 94.5793 150.57 94.5665C150.577 94.5536 150.582 94.5387 150.584 94.5228C150.586 94.507 150.586 94.4906 150.583 94.475C150.581 94.4593 150.575 94.4448 150.568 94.4324Z" fill="black"/>
<path opacity="0.1" d="M149.433 95.5692L148.913 94.504C148.907 94.492 148.9 94.4818 148.892 94.4739C148.883 94.466 148.874 94.4606 148.864 94.4579C148.854 94.4553 148.844 94.4554 148.834 94.4584C148.824 94.4614 148.815 94.4671 148.807 94.4753L148.046 95.2133C148.03 95.2298 148.019 95.2547 148.015 95.2828C148.011 95.3109 148.015 95.3399 148.026 95.3638L148.503 96.4171C148.508 96.4296 148.515 96.4405 148.523 96.449C148.531 96.4575 148.54 96.4636 148.55 96.4667C148.56 96.4698 148.57 96.47 148.58 96.4673C148.59 96.4645 148.599 96.4588 148.608 96.4506L149.409 95.734C149.419 95.7267 149.428 95.7162 149.435 95.7033C149.442 95.6904 149.446 95.6755 149.449 95.6597C149.451 95.6438 149.451 95.6275 149.448 95.6118C149.445 95.5962 149.44 95.5816 149.433 95.5692Z" fill="black"/>
<path opacity="0.1" d="M149.074 98.3163L148.554 97.251C148.543 97.228 148.525 97.2124 148.506 97.2074C148.486 97.2025 148.466 97.2087 148.45 97.2247L147.689 97.9604C147.681 97.9681 147.674 97.9782 147.668 97.99C147.663 98.0018 147.659 98.0151 147.657 98.0291C147.655 98.0431 147.655 98.0576 147.656 98.0716C147.658 98.0856 147.662 98.099 147.668 98.1109L148.144 99.1666C148.155 99.1903 148.173 99.207 148.192 99.2132C148.211 99.2194 148.232 99.2147 148.249 99.2L149.052 98.4835C149.062 98.4753 149.071 98.4643 149.077 98.4511C149.083 98.4379 149.088 98.4228 149.09 98.407C149.092 98.3911 149.092 98.3748 149.089 98.3591C149.086 98.3435 149.081 98.3289 149.074 98.3163Z" fill="black"/>
<path opacity="0.1" d="M147.938 99.448L147.419 98.3827C147.413 98.3708 147.406 98.3607 147.398 98.3528C147.389 98.345 147.38 98.3395 147.37 98.3369C147.361 98.3342 147.351 98.3343 147.341 98.3373C147.331 98.3402 147.322 98.3459 147.314 98.354L146.554 99.0921C146.545 99.0998 146.538 99.1099 146.532 99.1217C146.527 99.1335 146.523 99.1468 146.521 99.1608C146.519 99.1748 146.519 99.1893 146.521 99.2033C146.523 99.2173 146.526 99.2307 146.532 99.2426L147.008 100.296C147.019 100.32 147.036 100.337 147.056 100.343C147.076 100.35 147.096 100.345 147.113 100.329L147.917 99.6128C147.926 99.6049 147.935 99.5941 147.941 99.5811C147.948 99.5681 147.952 99.5532 147.954 99.5376C147.956 99.5219 147.956 99.5057 147.953 99.4903C147.95 99.4748 147.945 99.4604 147.938 99.448Z" fill="black"/>
<path opacity="0.1" d="M149.721 92.6791L149.223 91.6759C149.208 91.6447 149.184 91.6236 149.158 91.6169C149.131 91.6102 149.104 91.6185 149.082 91.6401L148.365 92.3351C148.354 92.3457 148.344 92.3594 148.337 92.3754C148.329 92.3914 148.324 92.4093 148.321 92.4282C148.319 92.4471 148.319 92.4665 148.321 92.4854C148.324 92.5042 148.329 92.5222 148.337 92.5382L148.785 93.5294C148.792 93.5457 148.801 93.5599 148.812 93.5711C148.823 93.5823 148.835 93.5903 148.848 93.5945C148.861 93.5987 148.875 93.5992 148.888 93.5958C148.901 93.5924 148.913 93.5852 148.924 93.5748L149.683 92.8893C149.696 92.8796 149.707 92.8664 149.715 92.8504C149.724 92.8343 149.731 92.8159 149.734 92.7962C149.738 92.7764 149.739 92.7558 149.736 92.7357C149.734 92.7155 149.729 92.6963 149.721 92.6791Z" fill="black"/>
<path opacity="0.1" d="M148.586 93.8111L148.096 92.808C148.089 92.7921 148.079 92.7785 148.068 92.768C148.057 92.7575 148.044 92.7502 148.031 92.7467C148.018 92.7431 148.004 92.7433 147.991 92.7473C147.978 92.7512 147.966 92.7589 147.955 92.7698L147.238 93.4767C147.227 93.4871 147.217 93.5006 147.21 93.5163C147.202 93.5321 147.197 93.5498 147.194 93.5685C147.192 93.5872 147.192 93.6065 147.194 93.6252C147.197 93.6438 147.202 93.6616 147.209 93.6774L147.658 94.671C147.672 94.7031 147.695 94.7257 147.721 94.7342C147.747 94.7427 147.774 94.7363 147.797 94.7164L148.556 94.0309C148.569 94.0203 148.58 94.0059 148.588 93.9886C148.597 93.9714 148.603 93.9517 148.606 93.9308C148.609 93.91 148.608 93.8885 148.605 93.8678C148.601 93.8472 148.595 93.8279 148.586 93.8111Z" fill="black"/>
<path opacity="0.1" d="M147.45 94.9436L146.96 93.938C146.945 93.9068 146.921 93.8857 146.895 93.879C146.869 93.8723 146.841 93.8806 146.819 93.9022L146.102 94.5972C146.091 94.6078 146.081 94.6215 146.074 94.6375C146.066 94.6534 146.061 94.6714 146.059 94.6903C146.056 94.7091 146.056 94.7286 146.059 94.7475C146.061 94.7663 146.066 94.7843 146.074 94.8002L146.522 95.7915C146.529 95.8078 146.538 95.822 146.549 95.8332C146.56 95.8444 146.572 95.8523 146.585 95.8566C146.598 95.8608 146.612 95.8613 146.625 95.8579C146.638 95.8545 146.65 95.8473 146.662 95.8368L147.42 95.1513C147.432 95.1409 147.442 95.1272 147.45 95.1109C147.458 95.0946 147.464 95.0762 147.466 95.0567C147.469 95.0373 147.469 95.0172 147.466 94.9977C147.464 94.9783 147.458 94.9598 147.45 94.9436Z" fill="black"/>
<path opacity="0.1" d="M146.33 96.1042L145.81 95.0365C145.798 95.0135 145.781 94.9979 145.761 94.993C145.742 94.9881 145.722 94.9943 145.705 95.0103L144.945 95.7459C144.928 95.7624 144.917 95.7875 144.913 95.8161C144.909 95.8446 144.912 95.8742 144.923 95.8988L145.4 96.9521C145.411 96.9758 145.428 96.9925 145.447 96.9987C145.467 97.0049 145.487 97.0002 145.504 96.9855L146.308 96.269C146.318 96.2618 146.327 96.2512 146.334 96.2383C146.341 96.2253 146.345 96.2103 146.347 96.1943C146.349 96.1783 146.349 96.1619 146.346 96.1462C146.343 96.1306 146.337 96.1162 146.33 96.1042Z" fill="black"/>
<path opacity="0.1" d="M159.768 85.0812L159.318 84.1616C159.293 84.1121 159.255 84.0785 159.213 84.0678C159.171 84.0572 159.128 84.0702 159.092 84.1043L157.335 85.8741C157.301 85.9097 157.278 85.9625 157.27 86.0219C157.262 86.0813 157.27 86.1429 157.292 86.1942L157.716 87.1353C157.728 87.1613 157.743 87.1837 157.762 87.201C157.78 87.2184 157.8 87.2304 157.822 87.2364C157.843 87.2424 157.865 87.2422 157.887 87.2359C157.908 87.2296 157.928 87.2173 157.946 87.1997L159.73 85.406C159.764 85.3692 159.787 85.315 159.794 85.2546C159.801 85.1941 159.792 85.132 159.768 85.0812Z" fill="black"/>
<path opacity="0.1" d="M148.294 96.6653L147.742 95.5451C147.737 95.5331 147.729 95.5228 147.721 95.515C147.713 95.5071 147.703 95.5018 147.693 95.4994C147.683 95.4969 147.673 95.4974 147.663 95.5007C147.653 95.504 147.644 95.5102 147.636 95.5188L145.74 97.4296C145.724 97.4456 145.713 97.47 145.709 97.4978C145.705 97.5255 145.709 97.5542 145.72 97.5777L146.238 98.7313C146.244 98.7438 146.251 98.7545 146.259 98.7628C146.268 98.7712 146.277 98.777 146.288 98.7799C146.298 98.7828 146.308 98.7827 146.318 98.7797C146.328 98.7767 146.338 98.7708 146.346 98.7624L148.274 96.8205C148.291 96.8036 148.302 96.7779 148.306 96.7488C148.31 96.7197 148.305 96.6897 148.294 96.6653Z" fill="black"/>
<path opacity="0.1" d="M154.325 88.0981L153.817 87.028C153.806 87.0046 153.789 86.9885 153.769 86.9831C153.75 86.9778 153.729 86.9836 153.713 86.9994L149.502 91.0884C149.486 91.1045 149.474 91.1292 149.47 91.1573C149.466 91.1855 149.47 91.2147 149.481 91.2389L150 92.3854C150.006 92.3978 150.013 92.4085 150.022 92.4169C150.03 92.4252 150.04 92.431 150.05 92.4339C150.06 92.4368 150.07 92.4368 150.08 92.4337C150.09 92.4307 150.1 92.4248 150.108 92.4164L154.306 88.2509C154.314 88.2428 154.321 88.2324 154.326 88.2203C154.332 88.2082 154.336 88.1946 154.338 88.1804C154.339 88.1662 154.339 88.1516 154.337 88.1375C154.335 88.1234 154.331 88.11 154.325 88.0981Z" fill="black"/>
</g>
<path d="M161.385 88.3368L160.966 87.4769C160.941 87.427 160.904 87.393 160.862 87.3819C160.82 87.3707 160.776 87.3834 160.741 87.4172L160.123 88.0191C160.088 88.054 160.064 88.1069 160.055 88.167C160.046 88.227 160.054 88.2895 160.077 88.3415L160.46 89.1895C160.484 89.2406 160.52 89.2767 160.562 89.29C160.604 89.3034 160.648 89.293 160.684 89.2611L161.338 88.6688C161.357 88.6514 161.372 88.629 161.385 88.6029C161.397 88.5768 161.405 88.5475 161.41 88.5167C161.414 88.4858 161.414 88.454 161.41 88.4232C161.405 88.3923 161.397 88.3629 161.385 88.3368Z" fill="#464A5F"/>
<path d="M160.266 89.4454L159.848 88.5879C159.823 88.5387 159.785 88.5051 159.744 88.494C159.702 88.4829 159.659 88.4951 159.623 88.5282L159.004 89.1277C158.969 89.1626 158.945 89.2155 158.936 89.2756C158.927 89.3356 158.935 89.3981 158.958 89.4502L159.341 90.2981C159.365 90.3492 159.401 90.3853 159.443 90.3986C159.485 90.412 159.529 90.4016 159.565 90.3697L160.219 89.7798C160.238 89.7624 160.254 89.7399 160.266 89.7136C160.279 89.6873 160.287 89.6577 160.291 89.6266C160.296 89.5955 160.296 89.5634 160.291 89.5323C160.287 89.5012 160.278 89.4716 160.266 89.4454Z" fill="#464A5F"/>
<path d="M159.104 90.6105L158.685 89.753C158.66 89.7032 158.623 89.6691 158.581 89.658C158.539 89.6469 158.495 89.6595 158.459 89.6933L157.842 90.2952C157.807 90.3301 157.782 90.3831 157.774 90.4431C157.765 90.5031 157.773 90.5656 157.795 90.6177L158.179 91.4656C158.203 91.5164 158.239 91.5519 158.281 91.5648C158.323 91.5777 158.367 91.567 158.403 91.5348L159.057 90.9449C159.076 90.9275 159.091 90.905 159.104 90.8787C159.116 90.8525 159.125 90.8229 159.129 90.7917C159.133 90.7606 159.133 90.7285 159.129 90.6974C159.125 90.6663 159.116 90.6368 159.104 90.6105Z" fill="#464A5F"/>
<path d="M157.918 91.7882L157.5 90.9284C157.475 90.8791 157.438 90.8455 157.396 90.8344C157.354 90.8233 157.311 90.8356 157.276 90.8687L156.656 91.4706C156.638 91.4883 156.622 91.511 156.61 91.5375C156.598 91.564 156.59 91.5937 156.586 91.6248C156.582 91.6559 156.582 91.6878 156.587 91.7188C156.592 91.7497 156.601 91.779 156.613 91.8049L156.997 92.6528C157.02 92.704 157.057 92.74 157.099 92.7534C157.14 92.7667 157.184 92.7564 157.221 92.7245L157.873 92.1322C157.893 92.1146 157.909 92.0915 157.922 92.0644C157.935 92.0372 157.944 92.0065 157.948 91.9742C157.952 91.942 157.952 91.9088 157.946 91.8768C157.941 91.8448 157.932 91.8146 157.918 91.7882Z" fill="#464A5F"/>
<path d="M156.736 92.9659L156.318 92.1084C156.293 92.0592 156.256 92.0256 156.214 92.0145C156.172 92.0034 156.129 92.0156 156.094 92.0487L155.474 92.6482C155.44 92.6835 155.415 92.7366 155.407 92.7966C155.399 92.8566 155.407 92.9189 155.429 92.9707L155.811 93.8186C155.835 93.8698 155.872 93.9058 155.913 93.9191C155.955 93.9325 155.999 93.9221 156.035 93.8903L156.69 93.2979C156.708 93.2805 156.724 93.2582 156.736 93.2321C156.748 93.206 156.757 93.1767 156.761 93.1458C156.765 93.115 156.765 93.0832 156.761 93.0523C156.757 93.0214 156.748 92.9921 156.736 92.9659Z" fill="#464A5F"/>
<path d="M155.605 94.2507L155.086 93.1854C155.08 93.1736 155.073 93.1634 155.065 93.1556C155.056 93.1477 155.047 93.1423 155.038 93.1396C155.028 93.1369 155.018 93.1371 155.008 93.14C154.998 93.143 154.989 93.1487 154.981 93.1568L154.221 93.8948C154.212 93.9025 154.205 93.9126 154.199 93.9244C154.194 93.9362 154.19 93.9495 154.188 93.9635C154.186 93.9775 154.186 93.992 154.188 94.006C154.19 94.0201 154.193 94.0334 154.199 94.0453L154.676 95.0986C154.686 95.1228 154.704 95.1399 154.723 95.1461C154.743 95.1524 154.763 95.1473 154.78 95.132L155.584 94.4155C155.593 94.4076 155.602 94.3968 155.608 94.3838C155.615 94.3708 155.619 94.356 155.621 94.3403C155.623 94.3246 155.623 94.3085 155.62 94.293C155.617 94.2775 155.612 94.2631 155.605 94.2507Z" fill="#464A5F"/>
<path d="M154.423 95.4284L153.904 94.3631C153.898 94.3512 153.891 94.341 153.882 94.3331C153.874 94.3252 153.865 94.3197 153.855 94.3171C153.845 94.3144 153.835 94.3146 153.825 94.3175C153.815 94.3205 153.806 94.3263 153.797 94.3344L153.039 95.0725C153.03 95.0802 153.023 95.0903 153.017 95.1021C153.012 95.1139 153.008 95.1272 153.006 95.1412C153.004 95.1552 153.004 95.1696 153.006 95.1837C153.008 95.1977 153.012 95.2111 153.017 95.2229L153.494 96.2786C153.499 96.2907 153.506 96.3011 153.514 96.3092C153.522 96.3173 153.532 96.3229 153.541 96.3258C153.551 96.3287 153.561 96.3288 153.571 96.326C153.581 96.3232 153.59 96.3177 153.598 96.3097L154.402 95.5932C154.411 95.585 154.419 95.5741 154.426 95.5611C154.432 95.5481 154.436 95.5333 154.438 95.5177C154.44 95.5022 154.44 95.4861 154.437 95.4707C154.435 95.4553 154.43 95.4409 154.423 95.4284Z" fill="#464A5F"/>
<path d="M153.376 96.472L152.856 95.4043C152.844 95.3813 152.827 95.3657 152.807 95.3608C152.788 95.3559 152.768 95.3621 152.751 95.3781L151.991 96.1042C151.974 96.1206 151.963 96.1458 151.959 96.1743C151.955 96.2028 151.959 96.2325 151.969 96.257L152.446 97.3103C152.457 97.334 152.474 97.3507 152.494 97.3569C152.513 97.3632 152.533 97.3584 152.55 97.3438L153.354 96.6272C153.363 96.6193 153.37 96.6089 153.376 96.5967C153.382 96.5845 153.386 96.5707 153.388 96.5562C153.39 96.5417 153.39 96.5268 153.388 96.5123C153.386 96.4978 153.382 96.4841 153.376 96.472Z" fill="#464A5F"/>
<path d="M152.204 97.6402L151.684 96.5821C151.672 96.559 151.655 96.5434 151.635 96.5385C151.616 96.5336 151.596 96.5398 151.579 96.5558L150.819 97.2914C150.81 97.2994 150.803 97.3097 150.798 97.3217C150.792 97.3337 150.788 97.3472 150.786 97.3614C150.784 97.3756 150.784 97.3903 150.786 97.4045C150.788 97.4187 150.792 97.4322 150.797 97.4443L151.274 98.4976C151.285 98.5213 151.302 98.538 151.321 98.5442C151.341 98.5505 151.361 98.5457 151.378 98.5311L152.182 97.8145C152.193 97.8069 152.202 97.7958 152.209 97.782C152.216 97.7682 152.221 97.7522 152.223 97.7352C152.225 97.7182 152.225 97.7008 152.221 97.6843C152.218 97.6678 152.212 97.6526 152.204 97.6402Z" fill="#464A5F"/>
<path d="M151.068 98.7696L150.548 97.7044C150.543 97.6925 150.536 97.6823 150.527 97.6745C150.519 97.6666 150.51 97.6612 150.5 97.6585C150.49 97.6558 150.48 97.656 150.471 97.6589C150.461 97.6619 150.452 97.6676 150.444 97.6757L149.683 98.4137C149.675 98.4215 149.668 98.4315 149.662 98.4433C149.656 98.4551 149.652 98.4684 149.65 98.4824C149.648 98.4965 149.648 98.5109 149.65 98.525C149.652 98.539 149.656 98.5523 149.662 98.5642L150.138 99.6175C150.143 99.6298 150.15 99.6404 150.158 99.6487C150.167 99.657 150.176 99.6629 150.186 99.666C150.195 99.6692 150.205 99.6694 150.215 99.6669C150.225 99.6643 150.234 99.6589 150.243 99.651L151.046 98.9344C151.056 98.9265 151.064 98.9157 151.071 98.9028C151.077 98.8898 151.082 98.8749 151.084 98.8592C151.086 98.8435 151.085 98.8274 151.083 98.8119C151.08 98.7964 151.075 98.782 151.068 98.7696Z" fill="#464A5F"/>
<path d="M149.932 99.9017L149.413 98.834C149.401 98.811 149.383 98.7954 149.364 98.7905C149.344 98.7856 149.324 98.7918 149.308 98.8077L148.547 99.5434C148.531 99.5599 148.519 99.585 148.515 99.6136C148.511 99.6421 148.515 99.6717 148.526 99.6963L149.002 100.75C149.014 100.773 149.031 100.79 149.05 100.796C149.07 100.802 149.09 100.798 149.107 100.783L149.911 100.066C149.92 100.059 149.929 100.048 149.935 100.035C149.941 100.022 149.946 100.007 149.948 99.9913C149.95 99.9756 149.95 99.9594 149.947 99.944C149.944 99.9285 149.939 99.9141 149.932 99.9017Z" fill="#464A5F"/>
<path d="M148.797 101.031L148.277 99.9661C148.271 99.9542 148.264 99.9441 148.256 99.9362C148.248 99.9283 148.239 99.9229 148.229 99.9202C148.219 99.9176 148.209 99.9177 148.199 99.9207C148.19 99.9236 148.181 99.9293 148.172 99.9374L147.412 100.675C147.404 100.683 147.396 100.693 147.391 100.705C147.385 100.717 147.381 100.73 147.379 100.744C147.377 100.758 147.377 100.773 147.379 100.787C147.381 100.801 147.385 100.814 147.39 100.826L147.867 101.879C147.872 101.891 147.879 101.902 147.887 101.91C147.895 101.919 147.905 101.925 147.914 101.928C147.924 101.931 147.934 101.931 147.944 101.929C147.954 101.926 147.963 101.921 147.972 101.913L148.775 101.196C148.785 101.188 148.793 101.177 148.8 101.164C148.806 101.151 148.81 101.137 148.812 101.121C148.814 101.105 148.814 101.089 148.811 101.074C148.809 101.058 148.804 101.044 148.797 101.031Z" fill="#464A5F"/>
<path d="M160.636 86.7892L160.218 85.9293C160.193 85.8801 160.155 85.8465 160.114 85.8354C160.072 85.8243 160.029 85.8366 159.993 85.8696L159.374 86.4715C159.339 86.5068 159.315 86.5599 159.307 86.6199C159.299 86.6799 159.307 86.7422 159.329 86.794L159.711 87.6419C159.735 87.6931 159.772 87.7291 159.813 87.7424C159.855 87.7558 159.899 87.7454 159.935 87.7135L160.59 87.1212C160.608 87.1038 160.623 87.0815 160.636 87.0554C160.648 87.0293 160.656 86.9999 160.661 86.9691C160.665 86.9382 160.665 86.9065 160.661 86.8756C160.657 86.8447 160.648 86.8154 160.636 86.7892Z" fill="#464A5F"/>
<path d="M159.001 83.3831L158.582 82.5257C158.557 82.4764 158.52 82.4428 158.478 82.4317C158.437 82.4206 158.394 82.4329 158.358 82.466L157.739 83.0655C157.704 83.1007 157.68 83.1538 157.672 83.2138C157.663 83.2738 157.671 83.3361 157.694 83.3879L158.078 84.2358C158.101 84.2864 158.137 84.3219 158.179 84.3353C158.22 84.3486 158.264 84.3386 158.3 84.3075L158.954 83.7175C158.973 83.7002 158.989 83.6777 159.001 83.6514C159.013 83.6251 159.022 83.5955 159.026 83.5644C159.031 83.5332 159.03 83.5012 159.026 83.47C159.022 83.4389 159.013 83.4094 159.001 83.3831Z" fill="#464A5F"/>
<path d="M159.522 87.8902L159.104 87.028C159.079 86.9788 159.042 86.9451 159 86.934C158.958 86.9229 158.915 86.9352 158.88 86.9683L158.26 87.5678C158.226 87.603 158.202 87.6561 158.193 87.7161C158.185 87.7761 158.193 87.8384 158.215 87.8902L158.599 88.7381C158.623 88.7887 158.659 88.8243 158.7 88.8376C158.742 88.8509 158.785 88.841 158.821 88.8098L159.476 88.2198C159.512 88.1848 159.537 88.1305 159.546 88.0688C159.555 88.0071 159.546 87.9429 159.522 87.8902Z" fill="#464A5F"/>
<path d="M158.353 89.0534L157.941 88.196C157.916 88.1467 157.879 88.1131 157.838 88.102C157.796 88.0909 157.753 88.1032 157.717 88.1362L157.098 88.7358C157.063 88.7711 157.039 88.8246 157.03 88.8852C157.022 88.9457 157.03 89.0086 157.053 89.0606L157.435 89.9085C157.459 89.9593 157.496 89.9948 157.537 90.0077C157.579 90.0206 157.623 90.0099 157.659 89.9778L158.313 89.3878C158.331 89.3697 158.347 89.3467 158.358 89.32C158.37 89.2934 158.378 89.2636 158.382 89.2326C158.385 89.2015 158.385 89.1696 158.38 89.1389C158.375 89.1081 158.366 89.0791 158.353 89.0534Z" fill="#464A5F"/>
<path d="M157.171 90.2333L156.753 89.3734C156.728 89.3235 156.69 89.2895 156.648 89.2784C156.606 89.2672 156.563 89.2799 156.527 89.3137L155.909 89.9156C155.874 89.9505 155.85 90.0034 155.841 90.0634C155.833 90.1235 155.84 90.186 155.863 90.238L156.246 91.0859C156.27 91.1371 156.307 91.1732 156.348 91.1865C156.39 91.1999 156.434 91.1895 156.47 91.1576L157.125 90.5653C157.143 90.5479 157.158 90.5255 157.171 90.4994C157.183 90.4733 157.191 90.444 157.196 90.4132C157.2 90.3823 157.2 90.3505 157.196 90.3197C157.192 90.2888 157.183 90.2594 157.171 90.2333Z" fill="#464A5F"/>
<path d="M157.913 84.5465L157.495 83.6842C157.47 83.635 157.433 83.6014 157.391 83.5903C157.349 83.5792 157.306 83.5914 157.271 83.6245L156.651 84.224C156.617 84.2593 156.593 84.3124 156.584 84.3724C156.576 84.4324 156.584 84.4947 156.607 84.5465L156.99 85.3944C157.014 85.4449 157.05 85.4805 157.091 85.4938C157.133 85.5071 157.176 85.4972 157.213 85.466L157.867 84.8761C157.903 84.841 157.928 84.7868 157.937 84.725C157.946 84.6633 157.937 84.5991 157.913 84.5465Z" fill="#464A5F"/>
<path d="M156.744 85.712L156.326 84.8522C156.301 84.803 156.264 84.7694 156.222 84.7583C156.18 84.7472 156.137 84.7594 156.102 84.7925L155.482 85.3944C155.447 85.4293 155.423 85.4822 155.414 85.5422C155.406 85.6023 155.413 85.6648 155.436 85.7168L155.819 86.5647C155.843 86.6159 155.88 86.6519 155.922 86.6653C155.963 86.6786 156.007 86.6683 156.044 86.6364L156.698 86.044C156.716 86.0267 156.732 86.0043 156.744 85.9782C156.756 85.9521 156.765 85.9228 156.769 85.8919C156.773 85.8611 156.773 85.8293 156.769 85.7984C156.765 85.7676 156.756 85.7382 156.744 85.712Z" fill="#464A5F"/>
<path d="M155.562 86.8894L155.144 86.032C155.119 85.9821 155.081 85.948 155.039 85.9369C154.997 85.9258 154.954 85.9385 154.918 85.9723L154.3 86.5718C154.265 86.6067 154.241 86.6596 154.232 86.7196C154.224 86.7797 154.231 86.8422 154.254 86.8942L154.637 87.7445C154.661 87.7957 154.698 87.8317 154.739 87.8451C154.781 87.8584 154.825 87.8481 154.862 87.8162L155.514 87.2238C155.533 87.2067 155.549 87.1843 155.561 87.1581C155.574 87.1319 155.583 87.1024 155.587 87.0712C155.591 87.0401 155.592 87.0079 155.587 86.9767C155.583 86.9455 155.575 86.9158 155.562 86.8894Z" fill="#464A5F"/>
<path d="M155.987 91.4108L155.569 90.5534C155.544 90.5042 155.507 90.4705 155.465 90.4594C155.424 90.4483 155.38 90.4606 155.345 90.4937L154.726 91.0884C154.691 91.1237 154.667 91.1768 154.658 91.2367C154.65 91.2967 154.658 91.3591 154.681 91.4108L155.064 92.2587C155.088 92.3093 155.124 92.3449 155.166 92.3582C155.207 92.3715 155.25 92.3616 155.287 92.3304L155.941 91.7381C155.977 91.7031 156.002 91.6492 156.011 91.5881C156.019 91.5269 156.011 91.4633 155.987 91.4108Z" fill="#464A5F"/>
<path d="M154.805 92.5882L154.387 91.7307C154.362 91.6815 154.325 91.6479 154.283 91.6368C154.241 91.6257 154.198 91.6379 154.163 91.671L153.543 92.2825C153.508 92.3174 153.484 92.3703 153.475 92.4303C153.467 92.4903 153.474 92.5529 153.497 92.6049L153.88 93.4528C153.904 93.504 153.941 93.54 153.982 93.5534C154.024 93.5667 154.068 93.5564 154.104 93.5245L154.759 92.9345C154.778 92.9172 154.795 92.8942 154.808 92.8669C154.822 92.8396 154.831 92.8087 154.835 92.7761C154.839 92.7435 154.839 92.71 154.834 92.6776C154.829 92.6453 154.819 92.6148 154.805 92.5882Z" fill="#464A5F"/>
<path d="M153.675 93.8735L153.155 92.8082C153.149 92.7964 153.142 92.7862 153.134 92.7784C153.126 92.7705 153.117 92.7651 153.107 92.7624C153.097 92.7597 153.087 92.7599 153.077 92.7628C153.068 92.7658 153.059 92.7715 153.05 92.7796L152.297 93.5176C152.288 93.5254 152.281 93.5354 152.275 93.5472C152.27 93.559 152.266 93.5723 152.264 93.5863C152.262 93.6003 152.262 93.6148 152.264 93.6288C152.266 93.6429 152.269 93.6562 152.275 93.6681L152.752 94.7214C152.757 94.7336 152.764 94.7442 152.772 94.7526C152.78 94.7609 152.789 94.7668 152.799 94.7699C152.809 94.773 152.819 94.7733 152.829 94.7707C152.838 94.7681 152.848 94.7627 152.856 94.7548L153.66 94.0383C153.669 94.0294 153.676 94.0178 153.682 94.0045C153.687 93.9911 153.691 93.9762 153.693 93.9607C153.694 93.9451 153.693 93.9294 153.69 93.9144C153.687 93.8993 153.682 93.8854 153.675 93.8735Z" fill="#464A5F"/>
<path d="M152.629 94.9097L152.109 93.842C152.097 93.8188 152.079 93.8031 152.059 93.7983C152.04 93.7934 152.019 93.7996 152.003 93.8158L151.242 94.5514C151.226 94.5683 151.215 94.5934 151.211 94.6217C151.207 94.6501 151.21 94.6796 151.221 94.7043L151.699 95.7576C151.71 95.7818 151.727 95.7989 151.746 95.8051C151.766 95.8114 151.786 95.8063 151.803 95.791L152.605 95.0745C152.615 95.0671 152.624 95.0566 152.631 95.0438C152.638 95.0309 152.642 95.016 152.645 95.0001C152.647 94.9843 152.646 94.9679 152.644 94.9523C152.641 94.9366 152.636 94.922 152.629 94.9097Z" fill="#464A5F"/>
<path d="M151.455 96.0849L150.935 95.0173C150.923 94.9942 150.906 94.9786 150.886 94.9737C150.867 94.9688 150.847 94.975 150.83 94.991L150.07 95.7266C150.053 95.7431 150.042 95.7683 150.038 95.7968C150.034 95.8253 150.038 95.855 150.048 95.8795L150.525 96.9328C150.536 96.9565 150.553 96.9732 150.573 96.9794C150.592 96.9857 150.612 96.9809 150.63 96.9663L151.433 96.2497C151.443 96.2425 151.452 96.232 151.459 96.219C151.466 96.2061 151.47 96.191 151.472 96.175C151.475 96.1591 151.474 96.1426 151.471 96.127C151.468 96.1113 151.462 96.0969 151.455 96.0849Z" fill="#464A5F"/>
<path d="M150.321 97.2149L149.806 96.1497C149.801 96.1378 149.793 96.1277 149.785 96.1198C149.777 96.1119 149.768 96.1065 149.758 96.1038C149.748 96.1012 149.738 96.1013 149.728 96.1043C149.719 96.1072 149.71 96.1129 149.701 96.121L148.941 96.859C148.924 96.8751 148.913 96.8998 148.909 96.9279C148.905 96.9561 148.909 96.9854 148.919 97.0095L149.396 98.0628C149.407 98.087 149.424 98.1041 149.444 98.1104C149.463 98.1166 149.484 98.1116 149.501 98.0963L150.304 97.3797C150.314 97.3715 150.322 97.3604 150.328 97.3471C150.334 97.3338 150.338 97.3188 150.34 97.303C150.341 97.2872 150.34 97.2711 150.337 97.2559C150.334 97.2407 150.328 97.2267 150.321 97.2149Z" fill="#464A5F"/>
<path d="M157.574 87.4387L157.158 86.5788C157.133 86.529 157.095 86.4949 157.053 86.4838C157.011 86.4727 156.968 86.4853 156.932 86.5191L156.313 87.121C156.278 87.1563 156.254 87.2094 156.246 87.2694C156.237 87.3294 156.245 87.3917 156.268 87.4435L156.651 88.2914C156.675 88.3422 156.712 88.3777 156.754 88.3906C156.796 88.4035 156.839 88.3928 156.875 88.3606L157.528 87.7707C157.546 87.7533 157.562 87.731 157.574 87.7049C157.586 87.6788 157.595 87.6494 157.599 87.6186C157.604 87.5877 157.604 87.556 157.599 87.5251C157.595 87.4942 157.587 87.4649 157.574 87.4387Z" fill="#464A5F"/>
<path d="M156.392 88.6162L155.974 87.7587C155.949 87.7091 155.912 87.675 155.87 87.6635C155.829 87.6519 155.786 87.6638 155.75 87.6966L155.131 88.2985C155.096 88.3338 155.072 88.3869 155.063 88.4469C155.055 88.5069 155.063 88.5692 155.086 88.621L155.469 89.4689C155.493 89.5194 155.529 89.555 155.571 89.5683C155.612 89.5817 155.655 89.5717 155.692 89.5405L156.346 88.9482C156.364 88.9309 156.38 88.9085 156.392 88.8824C156.404 88.8563 156.413 88.827 156.417 88.7961C156.421 88.7653 156.421 88.7335 156.417 88.7026C156.413 88.6717 156.404 88.6424 156.392 88.6162Z" fill="#464A5F"/>
<path d="M155.21 89.7939L154.787 88.9388C154.762 88.889 154.724 88.8549 154.682 88.8438C154.64 88.8327 154.597 88.8453 154.561 88.8791L153.957 89.4762C153.922 89.5111 153.897 89.5641 153.889 89.6241C153.88 89.6841 153.888 89.7466 153.91 89.7987L154.294 90.6466C154.317 90.6978 154.354 90.7338 154.396 90.7471C154.438 90.7605 154.481 90.7501 154.518 90.7182L155.172 90.1283C155.19 90.11 155.205 90.0868 155.216 90.0601C155.228 90.0334 155.236 90.0036 155.239 89.9725C155.243 89.9414 155.242 89.9097 155.237 89.879C155.232 89.8483 155.223 89.8194 155.21 89.7939Z" fill="#464A5F"/>
<path d="M154.026 90.9714L153.608 90.1139C153.583 90.0647 153.546 90.0311 153.504 90.02C153.463 90.0089 153.42 90.0211 153.384 90.0542L152.765 90.6537C152.73 90.689 152.706 90.7421 152.698 90.8021C152.689 90.8621 152.697 90.9244 152.72 90.9762L153.103 91.8241C153.127 91.8746 153.163 91.9102 153.205 91.9235C153.246 91.9368 153.289 91.9269 153.326 91.8957L153.98 91.3058C153.998 91.2884 154.014 91.2659 154.027 91.2396C154.039 91.2133 154.048 91.1838 154.052 91.1526C154.056 91.1215 154.056 91.0894 154.052 91.0583C154.048 91.0272 154.039 90.9976 154.026 90.9714Z" fill="#464A5F"/>
<path d="M152.898 92.2561L152.378 91.1909C152.372 91.1789 152.365 91.1687 152.357 91.1608C152.348 91.1529 152.339 91.1475 152.329 91.1448C152.319 91.1422 152.309 91.1423 152.299 91.1453C152.289 91.1483 152.28 91.154 152.272 91.1622L151.511 91.9002C151.495 91.9163 151.483 91.941 151.479 91.9691C151.475 91.9973 151.479 92.0265 151.49 92.0507L151.966 93.1064C151.972 93.1185 151.979 93.129 151.987 93.1371C151.996 93.1452 152.005 93.1509 152.015 93.1538C152.025 93.1567 152.035 93.1567 152.045 93.1539C152.055 93.1511 152.064 93.1455 152.072 93.1375L152.874 92.4209C152.884 92.4132 152.893 92.4026 152.899 92.3897C152.906 92.3768 152.91 92.362 152.913 92.3463C152.915 92.3306 152.915 92.3144 152.912 92.2988C152.909 92.2832 152.905 92.2687 152.898 92.2561Z" fill="#464A5F"/>
<path d="M151.85 93.2999L151.33 92.2346C151.325 92.2228 151.317 92.2126 151.309 92.2048C151.301 92.1969 151.292 92.1915 151.282 92.1888C151.272 92.1861 151.262 92.1863 151.252 92.1892C151.243 92.1922 151.234 92.1979 151.225 92.206L150.47 92.9416C150.453 92.9581 150.442 92.9832 150.438 93.0118C150.434 93.0403 150.438 93.0699 150.448 93.0945L150.925 94.1478C150.936 94.1715 150.953 94.1882 150.973 94.1944C150.992 94.2006 151.012 94.1959 151.03 94.1812L151.833 93.4647C151.842 93.4562 151.85 93.4449 151.856 93.4316C151.862 93.4184 151.866 93.4034 151.868 93.3878C151.869 93.3721 151.868 93.3562 151.865 93.341C151.862 93.3258 151.857 93.3118 151.85 93.2999Z" fill="#464A5F"/>
<path d="M150.678 94.4683L150.158 93.4006C150.146 93.3774 150.128 93.3617 150.109 93.3568C150.089 93.352 150.068 93.3582 150.052 93.3744L149.293 94.11C149.276 94.1265 149.265 94.1516 149.261 94.1801C149.257 94.2087 149.261 94.2383 149.271 94.2629L149.748 95.3162C149.759 95.3404 149.776 95.3574 149.796 95.3637C149.815 95.3699 149.836 95.3649 149.853 95.3496L150.656 94.6331C150.666 94.6252 150.674 94.6144 150.681 94.6014C150.687 94.5884 150.691 94.5735 150.694 94.5579C150.696 94.5422 150.695 94.526 150.692 94.5106C150.69 94.4951 150.685 94.4807 150.678 94.4683Z" fill="#464A5F"/>
<path d="M149.542 95.5975L149.022 94.5323C149.017 94.5204 149.009 94.5102 149.001 94.5023C148.993 94.4944 148.983 94.4889 148.973 94.4863C148.963 94.4836 148.953 94.4838 148.943 94.4867C148.934 94.4897 148.924 94.4955 148.916 94.5036L148.157 95.2417C148.149 95.2494 148.142 95.2595 148.136 95.2713C148.13 95.2831 148.126 95.2964 148.124 95.3104C148.122 95.3244 148.122 95.3388 148.124 95.3529C148.126 95.3669 148.13 95.3803 148.136 95.3921L148.612 96.4478C148.618 96.4599 148.625 96.4702 148.633 96.4783C148.641 96.4864 148.65 96.4921 148.66 96.495C148.67 96.4979 148.68 96.498 148.689 96.4952C148.699 96.4924 148.709 96.4869 148.717 96.4789L149.52 95.7624C149.53 95.7542 149.538 95.7433 149.544 95.7302C149.551 95.7172 149.555 95.7025 149.557 95.6869C149.559 95.6713 149.559 95.6553 149.556 95.6399C149.553 95.6245 149.549 95.6101 149.542 95.5975Z" fill="#464A5F"/>
<path d="M149.185 98.3468L148.665 97.2792C148.653 97.256 148.636 97.2403 148.616 97.2354C148.596 97.2305 148.576 97.2368 148.559 97.2529L147.799 97.9886C147.782 98.005 147.77 98.0302 147.766 98.0587C147.762 98.0872 147.766 98.1169 147.777 98.1414L148.254 99.1947C148.265 99.2185 148.282 99.2351 148.301 99.2414C148.321 99.2476 148.341 99.2429 148.358 99.2282L149.162 98.5116C149.172 98.5043 149.181 98.4938 149.187 98.4809C149.194 98.468 149.199 98.4531 149.201 98.4373C149.203 98.4214 149.203 98.4051 149.2 98.3894C149.197 98.3738 149.192 98.3592 149.185 98.3468Z" fill="#464A5F"/>
<path d="M148.049 99.4765L147.53 98.4112C147.524 98.3993 147.517 98.3891 147.508 98.3812C147.5 98.3733 147.491 98.3678 147.481 98.3652C147.471 98.3625 147.461 98.3627 147.451 98.3656C147.441 98.3686 147.432 98.3744 147.423 98.3825L146.663 99.1206C146.647 99.1366 146.635 99.1614 146.631 99.1895C146.627 99.2176 146.631 99.2469 146.641 99.271L147.118 100.324C147.123 100.337 147.13 100.347 147.139 100.356C147.147 100.364 147.156 100.37 147.166 100.373C147.176 100.376 147.186 100.376 147.196 100.374C147.206 100.371 147.216 100.366 147.224 100.358L148.026 99.6413C148.036 99.6339 148.045 99.6234 148.052 99.6105C148.058 99.5977 148.063 99.5828 148.065 99.5669C148.068 99.5511 148.067 99.5347 148.065 99.5191C148.062 99.5034 148.057 99.4888 148.049 99.4765Z" fill="#464A5F"/>
<path d="M149.831 92.7102L149.341 91.7046C149.326 91.6734 149.302 91.6523 149.276 91.6456C149.249 91.6389 149.222 91.6472 149.2 91.6688L148.478 92.3638C148.456 92.3857 148.44 92.4191 148.435 92.4571C148.43 92.495 148.435 92.5344 148.45 92.5669L148.898 93.5605C148.913 93.5928 148.936 93.6154 148.962 93.6235C148.989 93.6315 149.016 93.6243 149.039 93.6035L149.796 92.918C149.808 92.9082 149.819 92.8948 149.827 92.8788C149.836 92.8629 149.842 92.8445 149.845 92.825C149.848 92.8055 149.849 92.7852 149.846 92.7655C149.844 92.7457 149.839 92.7269 149.831 92.7102Z" fill="#464A5F"/>
<path d="M148.695 93.8398L148.205 92.8367C148.198 92.8208 148.188 92.8072 148.177 92.7967C148.166 92.7861 148.154 92.7789 148.14 92.7753C148.127 92.7718 148.114 92.772 148.101 92.776C148.088 92.7799 148.075 92.7876 148.064 92.7984L147.347 93.4959C147.325 93.5173 147.31 93.5503 147.304 93.5879C147.299 93.6254 147.304 93.6644 147.319 93.6965L147.767 94.6901C147.782 94.7223 147.805 94.7451 147.831 94.7535C147.858 94.762 147.885 94.7555 147.908 94.7355L148.667 94.05C148.679 94.0389 148.688 94.0247 148.696 94.0081C148.704 93.9915 148.709 93.9729 148.712 93.9534C148.714 93.9338 148.714 93.9137 148.711 93.8942C148.709 93.8747 148.703 93.8562 148.695 93.8398Z" fill="#464A5F"/>
<path d="M147.56 94.9719L147.062 93.9664C147.046 93.9354 147.023 93.9142 146.997 93.9075C146.971 93.9008 146.944 93.9091 146.922 93.9305L146.203 94.6256C146.181 94.6474 146.166 94.6809 146.16 94.7188C146.155 94.7568 146.16 94.7962 146.175 94.8286L146.623 95.8222C146.638 95.8545 146.661 95.8772 146.688 95.8852C146.714 95.8933 146.742 95.8861 146.764 95.8652L147.523 95.1797C147.535 95.1701 147.546 95.157 147.555 95.1411C147.563 95.1252 147.57 95.1069 147.573 95.0873C147.576 95.0678 147.577 95.0475 147.575 95.0276C147.572 95.0077 147.567 94.9888 147.56 94.9719Z" fill="#464A5F"/>
<path d="M146.441 96.1353L145.921 95.0676C145.909 95.0444 145.891 95.0287 145.872 95.0238C145.852 95.0189 145.831 95.0252 145.815 95.0413L145.054 95.777C145.038 95.7939 145.027 95.8192 145.023 95.8477C145.019 95.8762 145.023 95.9056 145.034 95.9299L145.511 96.9832C145.522 97.0074 145.539 97.0245 145.558 97.0307C145.578 97.037 145.599 97.0319 145.616 97.0166L146.419 96.3001C146.429 96.2922 146.437 96.2814 146.444 96.2684C146.45 96.2554 146.454 96.2406 146.456 96.2249C146.458 96.2092 146.458 96.193 146.455 96.1776C146.453 96.1621 146.448 96.1477 146.441 96.1353Z" fill="#464A5F"/>
<path d="M159.879 85.117L159.436 84.195C159.41 84.1455 159.373 84.112 159.331 84.1013C159.289 84.0906 159.245 84.1037 159.21 84.1377L157.443 85.9076C157.409 85.9431 157.386 85.9959 157.378 86.0554C157.37 86.1148 157.378 86.1763 157.4 86.2276L157.825 87.1687C157.837 87.1947 157.853 87.2171 157.871 87.2345C157.889 87.2518 157.91 87.2638 157.931 87.2698C157.953 87.2758 157.975 87.2756 157.996 87.2694C158.018 87.2631 158.038 87.2508 158.056 87.2332L159.837 85.4394C159.872 85.4035 159.895 85.35 159.903 85.2901C159.91 85.2301 159.902 85.1682 159.879 85.117Z" fill="#464A5F"/>
<path d="M148.403 96.6942L147.852 95.574C147.846 95.562 147.839 95.5518 147.83 95.5439C147.822 95.5361 147.813 95.5307 147.803 95.5283C147.793 95.5258 147.782 95.5263 147.773 95.5296C147.763 95.533 147.754 95.5391 147.746 95.5477L145.85 97.4585C145.833 97.4749 145.822 97.4998 145.818 97.5279C145.815 97.556 145.819 97.5851 145.83 97.609L146.349 98.7602C146.355 98.7727 146.362 98.7834 146.371 98.7917C146.379 98.8001 146.389 98.8059 146.399 98.8088C146.409 98.8117 146.419 98.8116 146.429 98.8086C146.439 98.8056 146.449 98.7997 146.457 98.7913L148.385 96.8495C148.401 96.8322 148.413 96.8062 148.416 96.7772C148.419 96.7482 148.415 96.7184 148.403 96.6942Z" fill="#464A5F"/>
<path d="M154.435 88.1269L153.937 87.064C153.925 87.0401 153.908 87.0234 153.888 87.0176C153.868 87.0118 153.848 87.0173 153.831 87.033L149.622 91.1173C149.613 91.125 149.606 91.1351 149.601 91.1469C149.595 91.1587 149.591 91.172 149.589 91.186C149.587 91.2 149.587 91.2145 149.589 91.2285C149.591 91.2425 149.595 91.2559 149.6 91.2678L150.118 92.4142C150.124 92.4267 150.131 92.4374 150.14 92.4457C150.148 92.4541 150.158 92.4599 150.168 92.4628C150.178 92.4657 150.188 92.4656 150.198 92.4626C150.208 92.4596 150.218 92.4537 150.226 92.4453L154.423 88.2798C154.439 88.2615 154.449 88.2353 154.451 88.2068C154.453 88.1782 154.447 88.1495 154.435 88.1269Z" fill="#464A5F"/>
<path opacity="0.1" d="M154.455 84.4771L152.217 79.7981C152.155 79.6681 152.06 79.5786 151.952 79.549C151.845 79.5195 151.733 79.5524 151.642 79.6405L145.478 85.5949C145.432 85.6391 145.393 85.6957 145.363 85.7615C145.333 85.8274 145.312 85.9011 145.302 85.9785C145.292 86.056 145.292 86.1356 145.303 86.2128C145.314 86.29 145.336 86.3633 145.366 86.4285L147.648 91.2413C147.678 91.3067 147.718 91.3626 147.764 91.406C147.809 91.4493 147.861 91.4792 147.915 91.4939C147.968 91.5085 148.024 91.5077 148.077 91.4914C148.131 91.4751 148.182 91.4437 148.227 91.3989L154.349 85.3059C154.394 85.2616 154.432 85.2051 154.462 85.1394C154.491 85.0737 154.512 85.0003 154.521 84.9233C154.531 84.8463 154.53 84.7672 154.519 84.6907C154.508 84.6141 154.486 84.5415 154.455 84.4771Z" fill="black"/>
<path d="M154.558 84.5059L152.32 79.8269C152.257 79.6974 152.162 79.6082 152.055 79.5787C151.947 79.5492 151.836 79.5817 151.745 79.6692L145.589 85.6285C145.543 85.6722 145.504 85.7286 145.474 85.7943C145.443 85.8601 145.422 85.9338 145.411 86.0113C145.401 86.0889 145.401 86.1686 145.412 86.246C145.423 86.3234 145.445 86.3968 145.476 86.462L147.751 91.27C147.781 91.3354 147.821 91.3914 147.866 91.4348C147.912 91.4781 147.964 91.508 148.017 91.5226C148.071 91.5373 148.127 91.5364 148.18 91.5201C148.234 91.5038 148.285 91.4724 148.33 91.4277L154.455 85.3347C154.499 85.29 154.537 85.2332 154.567 85.1673C154.596 85.1015 154.616 85.028 154.626 84.951C154.635 84.874 154.634 84.7951 154.623 84.7187C154.611 84.6423 154.589 84.57 154.558 84.5059Z" fill="#939498"/>
</svg>
